DBRep_DrawableShape

CASCADE Topology V1, (c) Matra-Datavision
Locations 30
1
              1               0               0               0 
              0               1               0               0 
              0               0               1               0 
1
-2.22044604925031e-16               1               0               0 
             -1 -2.22044604925031e-16               0               0 
              0               0               1               0 
1
              1               0               0 11.1125000000003 
              0               1               0          1219.2 
              0               0               1              -0 
2  1 1 2 1 3 1 0
1
              1               0               0               0 
              0               1               0               0 
              0               0               1               0 
2  1 -1 5 -1 0
1
              1               0               0          1092.2 
              0               1               0               0 
              0               0               1               0 
2  1 -1 7 -1 0
1
              1               0               0               0 
              0               1               0               0 
              0               0               1          2400.3 
2  1 -1 9 -1 0
1
              1               0               0               0 
              0               1               0               0 
              0               0               1            38.1 
2  1 -1 11 -1 0
1
              1               0               0          1181.1 
              0               1               0               0 
              0               0               1            38.1 
2  1 -1 13 -1 0
1
              1               0               0 88.8999999999999 
              0               1               0               0 
              0               0               1            38.1 
2  1 -1 15 -1 0
1
              1               0               0          1092.2 
              0               1               0               0 
              0               0               1            38.1 
2  1 -1 17 -1 0
1
              1               0               0 88.8999999999999 
              0               1               0               0 
              0               0               1          2108.2 
2  1 -1 19 -1 0
1
              1               0               0           406.4 
              0               1               0               0 
              0               0               1         2292.35 
2  1 -1 21 -1 0
1
              1               0               0           812.8 
              0               1               0               0 
              0               0               1         2292.35 
2  1 -1 23 -1 0
1
              1               0               0               0 
              0               1               0        -11.1125 
              0               0               1               0 
2  1 -1 25 -1 0
1
              1               0               0             127 
              0               1               0        -12.1125 
              0               0               1               0 
2  1 -1 0
2  25 1 27 -1 0
2  1 -1 27 -1 0
Curve2ds 288
1 0 0 1 0 
1 0 0 1 0 
1 38.099999999999994 0 0 -1 
1 0 0 0 1 
1 0 -139.69999999999999 1 0 
1 0 0 1 0 
1 0 0 0 -1 
1 0 0 0 1 
1 0 0 1 0 
1 0 126.99999999999994 1 0 
1 38.099999999999994 0 0 -1 
1 126.99999999999994 0 0 1 
1 0 -139.69999999999999 1 0 
1 0 126.99999999999994 1 0 
1 0 0 0 -1 
1 126.99999999999994 0 0 1 
1 0 0 0 1 
1 0 0 1 0 
1 38.099999999999994 0 0 1 
1 0 0 1 0 
1 0 0 0 1 
1 0 139.69999999999999 1 0 
1 38.099999999999994 0 0 1 
1 0 139.69999999999999 1 0 
1 0 0 1 0 
1 0 0 1 0 
1 38.099999999999994 0 0 -1 
1 0 0 0 1 
1 0 -139.69999999999999 1 0 
1 0 0 1 0 
1 0 0 0 -1 
1 0 0 0 1 
1 0 0 1 0 
1 0 127 1 0 
1 38.099999999999994 0 0 -1 
1 127 0 0 1 
1 0 -139.69999999999999 1 0 
1 0 127 1 0 
1 0 0 0 -1 
1 127 0 0 1 
1 0 0 0 1 
1 0 0 1 0 
1 38.099999999999994 0 0 1 
1 0 0 1 0 
1 0 0 0 1 
1 0 139.69999999999999 1 0 
1 38.099999999999994 0 0 1 
1 0 139.69999999999999 1 0 
1 0 0 1 0 
1 0 0 1 0 
1 38.099999999999994 0 0 -1 
1 0 0 0 1 
1 0 -139.69999999999999 1 0 
1 0 0 1 0 
1 0 0 0 -1 
1 0 0 0 1 
1 0 0 1 0 
1 0 1219.1999999999998 1 0 
1 38.099999999999994 0 0 -1 
1 1219.1999999999998 0 0 1 
1 0 -139.69999999999999 1 0 
1 0 1219.1999999999998 1 0 
1 0 0 0 -1 
1 1219.1999999999998 0 0 1 
1 0 0 0 1 
1 0 0 1 0 
1 38.099999999999994 0 0 1 
1 0 0 1 0 
1 0 0 0 1 
1 0 139.69999999999999 1 0 
1 38.099999999999994 0 0 1 
1 0 139.69999999999999 1 0 
1 0 0 1 0 
1 0 0 1 0 
1 2362.1999999999998 0 0 -1 
1 0 0 0 1 
1 0 -139.69999999999999 1 0 
1 0 0 1 0 
1 0 0 0 -1 
1 0 0 0 1 
1 0 0 1 0 
1 0 38.099999999999994 1 0 
1 2362.1999999999998 0 0 -1 
1 38.099999999999994 0 0 1 
1 0 -139.69999999999999 1 0 
1 0 38.099999999999994 1 0 
1 0 0 0 -1 
1 38.099999999999994 0 0 1 
1 0 0 0 1 
1 0 0 1 0 
1 2362.1999999999998 0 0 1 
1 0 0 1 0 
1 0 0 0 1 
1 0 139.69999999999999 1 0 
1 2362.1999999999998 0 0 1 
1 0 139.69999999999999 1 0 
1 0 0 1 0 
1 0 0 1 0 
1 2362.1999999999998 0 0 -1 
1 0 0 0 1 
1 0 -139.69999999999999 1 0 
1 0 0 1 0 
1 0 0 0 -1 
1 0 0 0 1 
1 0 0 1 0 
1 0 38.099999999999994 1 0 
1 2362.1999999999998 0 0 -1 
1 38.099999999999994 0 0 1 
1 0 -139.69999999999999 1 0 
1 0 38.099999999999994 1 0 
1 0 0 0 -1 
1 38.099999999999994 0 0 1 
1 0 0 0 1 
1 0 0 1 0 
1 2362.1999999999998 0 0 1 
1 0 0 1 0 
1 0 0 0 1 
1 0 139.69999999999999 1 0 
1 2362.1999999999998 0 0 1 
1 0 139.69999999999999 1 0 
1 0 0 1 0 
1 0 0 1 0 
1 2070.0999999999999 0 0 -1 
1 0 0 0 1 
1 0 -139.69999999999999 1 0 
1 0 0 1 0 
1 0 0 0 -1 
1 0 0 0 1 
1 0 0 1 0 
1 0 38.099999999999994 1 0 
1 2070.0999999999999 0 0 -1 
1 38.099999999999994 0 0 1 
1 0 -139.69999999999999 1 0 
1 0 38.099999999999994 1 0 
1 0 0 0 -1 
1 38.099999999999994 0 0 1 
1 0 0 0 1 
1 0 0 1 0 
1 2070.0999999999999 0 0 1 
1 0 0 1 0 
1 0 0 0 1 
1 0 139.69999999999999 1 0 
1 2070.0999999999999 0 0 1 
1 0 139.69999999999999 1 0 
1 0 0 1 0 
1 0 0 1 0 
1 2070.0999999999999 0 0 -1 
1 0 0 0 1 
1 0 -139.69999999999999 1 0 
1 0 0 1 0 
1 0 0 0 -1 
1 0 0 0 1 
1 0 0 1 0 
1 0 38.099999999999994 1 0 
1 2070.0999999999999 0 0 -1 
1 38.099999999999994 0 0 1 
1 0 -139.69999999999999 1 0 
1 0 38.099999999999994 1 0 
1 0 0 0 -1 
1 38.099999999999994 0 0 1 
1 0 0 0 1 
1 0 0 1 0 
1 2070.0999999999999 0 0 1 
1 0 0 1 0 
1 0 0 0 1 
1 0 139.69999999999999 1 0 
1 2070.0999999999999 0 0 1 
1 0 139.69999999999999 1 0 
1 0 0 1 0 
1 0 0 1 0 
1 184.14999999999998 0 0 -1 
1 0 0 0 1 
1 0 -139.69999999999999 1 0 
1 0 0 1 0 
1 0 0 0 -1 
1 0 0 0 1 
1 0 0 1 0 
1 0 1041.3999999999999 1 0 
1 184.14999999999998 0 0 -1 
1 1041.3999999999999 0 0 1 
1 0 -139.69999999999999 1 0 
1 0 1041.3999999999999 1 0 
1 0 0 0 -1 
1 1041.3999999999999 0 0 1 
1 0 0 0 1 
1 0 0 1 0 
1 184.14999999999998 0 0 1 
1 0 0 1 0 
1 0 0 0 1 
1 0 139.69999999999999 1 0 
1 184.14999999999998 0 0 1 
1 0 139.69999999999999 1 0 
1 0 0 1 0 
1 0 0 1 0 
1 107.94999999999982 0 0 -1 
1 0 0 0 1 
1 0 -139.69999999999999 1 0 
1 0 0 1 0 
1 0 0 0 -1 
1 0 0 0 1 
1 0 0 1 0 
1 0 38.099999999999994 1 0 
1 107.94999999999982 0 0 -1 
1 38.099999999999994 0 0 1 
1 0 -139.69999999999999 1 0 
1 0 38.099999999999994 1 0 
1 0 0 0 -1 
1 38.099999999999994 0 0 1 
1 0 0 0 1 
1 0 0 1 0 
1 107.94999999999982 0 0 1 
1 0 0 1 0 
1 0 0 0 1 
1 0 139.69999999999999 1 0 
1 107.94999999999982 0 0 1 
1 0 139.69999999999999 1 0 
1 0 0 1 0 
1 0 0 1 0 
1 107.94999999999982 0 0 -1 
1 0 0 0 1 
1 0 -139.69999999999999 1 0 
1 0 0 1 0 
1 0 0 0 -1 
1 0 0 0 1 
1 0 0 1 0 
1 0 38.099999999999994 1 0 
1 107.94999999999982 0 0 -1 
1 38.099999999999994 0 0 1 
1 0 -139.69999999999999 1 0 
1 0 38.099999999999994 1 0 
1 0 0 0 -1 
1 38.099999999999994 0 0 1 
1 0 0 0 1 
1 0 0 1 0 
1 107.94999999999982 0 0 1 
1 0 0 1 0 
1 0 0 0 1 
1 0 139.69999999999999 1 0 
1 107.94999999999982 0 0 1 
1 0 139.69999999999999 1 0 
1 0 0 1 0 
1 0 0 1 0 
1 2438.3999999999996 0 0 -1 
1 0 0 0 1 
1 0 -11.112499999999999 1 0 
1 0 0 1 0 
1 0 0 0 -1 
1 0 0 0 1 
1 0 0 0 1 
1 0 0 1 0 
8 -2108.1999999999998 0
1 0 126.99999999999994 -1 0 
8 -2108.1999999999998 0
1 0 -1 -1 -0 
8 63.499999999999972 1028.6999999999998
1 2108.1999999999998 63.499999999999972 0 1 
8 63.499999999999972 1028.6999999999998
1 -63.499999999999972 1 1 0 
8 -2108.1999999999998 0
1 0 1092.1999999999998 -1 0 
8 -2108.1999999999998 0
1 0 -1 -1 -0 
1 0 0 0 1 
1 0 0 1 0 
1 0 1219.1999999999998 1 0 
1 0 0 1 0 
1 2438.3999999999996 0 0 1 
1 0 0 1 0 
1 0 11.112499999999999 1 0 
1 2438.3999999999996 0 0 1 
1 1219.1999999999998 0 0 1 
1 2438.3999999999996 0 0 -1 
1 0 0 0 1 
1 0 11.112499999999999 1 0 
8 -2108.1999999999998 0
1 0 126.99999999999994 -1 0 
8 -2108.1999999999998 0
1 0 -12.112499999999999 -1 -0 
8 63.499999999999972 1028.6999999999998
1 2108.1999999999998 63.499999999999972 0 1 
8 63.499999999999972 1028.6999999999998
1 -63.499999999999972 12.112499999999999 1 0 
8 -2108.1999999999998 0
1 0 1092.1999999999998 -1 0 
8 -2108.1999999999998 0
1 0 -12.112499999999999 -1 -0 
1 0 0 0 1 
1 0 11.112499999999999 1 0 
1 0 1219.1999999999998 1 0 
1 0 -11.112499999999999 1 0 
1 126.99999999999994 -1 0 1 
1 0 0 0 -1 
1 2108.1999999999998 0 0 -1 
1 0 0 0 1 
1 965.19999999999993 0 0 1 
1 2108.1999999999998 0 0 -1 
1 0 0 0 -1 
1 1092.1999999999998 -1 0 1 
1 1219.1999999999998 0 0 1 
1 0 0 0 -1 
Curves 144
1 0 0 0 0 0 1 
1 0 0 38.099999999999994 -0 1 0 
1 0 139.69999999999999 0 0 0 1 
1 0 0 0 -0 1 0 
1 126.99999999999994 0 0 0 0 1 
1 126.99999999999994 0 38.099999999999994 -0 1 0 
1 126.99999999999994 139.69999999999999 0 0 0 1 
1 126.99999999999994 0 0 -0 1 0 
1 0 0 0 1 0 -0 
1 0 0 38.099999999999994 1 0 -0 
1 0 139.69999999999999 0 1 0 -0 
1 0 139.69999999999999 38.099999999999994 1 0 -0 
1 0 0 0 0 0 1 
1 0 0 38.099999999999994 -0 1 0 
1 0 139.69999999999999 0 0 0 1 
1 0 0 0 -0 1 0 
1 127 0 0 0 0 1 
1 127 0 38.099999999999994 -0 1 0 
1 127 139.69999999999999 0 0 0 1 
1 127 0 0 -0 1 0 
1 0 0 0 1 0 -0 
1 0 0 38.099999999999994 1 0 -0 
1 0 139.69999999999999 0 1 0 -0 
1 0 139.69999999999999 38.099999999999994 1 0 -0 
1 0 0 0 0 0 1 
1 0 0 38.099999999999994 -0 1 0 
1 0 139.69999999999999 0 0 0 1 
1 0 0 0 -0 1 0 
1 1219.1999999999998 0 0 0 0 1 
1 1219.1999999999998 0 38.099999999999994 -0 1 0 
1 1219.1999999999998 139.69999999999999 0 0 0 1 
1 1219.1999999999998 0 0 -0 1 0 
1 0 0 0 1 0 -0 
1 0 0 38.099999999999994 1 0 -0 
1 0 139.69999999999999 0 1 0 -0 
1 0 139.69999999999999 38.099999999999994 1 0 -0 
1 0 0 0 0 0 1 
1 0 0 2362.1999999999998 -0 1 0 
1 0 139.69999999999999 0 0 0 1 
1 0 0 0 -0 1 0 
1 38.099999999999994 0 0 0 0 1 
1 38.099999999999994 0 2362.1999999999998 -0 1 0 
1 38.099999999999994 139.69999999999999 0 0 0 1 
1 38.099999999999994 0 0 -0 1 0 
1 0 0 0 1 0 -0 
1 0 0 2362.1999999999998 1 0 -0 
1 0 139.69999999999999 0 1 0 -0 
1 0 139.69999999999999 2362.1999999999998 1 0 -0 
1 0 0 0 0 0 1 
1 0 0 2362.1999999999998 -0 1 0 
1 0 139.69999999999999 0 0 0 1 
1 0 0 0 -0 1 0 
1 38.099999999999994 0 0 0 0 1 
1 38.099999999999994 0 2362.1999999999998 -0 1 0 
1 38.099999999999994 139.69999999999999 0 0 0 1 
1 38.099999999999994 0 0 -0 1 0 
1 0 0 0 1 0 -0 
1 0 0 2362.1999999999998 1 0 -0 
1 0 139.69999999999999 0 1 0 -0 
1 0 139.69999999999999 2362.1999999999998 1 0 -0 
1 0 0 0 0 0 1 
1 0 0 2070.0999999999999 -0 1 0 
1 0 139.69999999999999 0 0 0 1 
1 0 0 0 -0 1 0 
1 38.099999999999994 0 0 0 0 1 
1 38.099999999999994 0 2070.0999999999999 -0 1 0 
1 38.099999999999994 139.69999999999999 0 0 0 1 
1 38.099999999999994 0 0 -0 1 0 
1 0 0 0 1 0 -0 
1 0 0 2070.0999999999999 1 0 -0 
1 0 139.69999999999999 0 1 0 -0 
1 0 139.69999999999999 2070.0999999999999 1 0 -0 
1 0 0 0 0 0 1 
1 0 0 2070.0999999999999 -0 1 0 
1 0 139.69999999999999 0 0 0 1 
1 0 0 0 -0 1 0 
1 38.099999999999994 0 0 0 0 1 
1 38.099999999999994 0 2070.0999999999999 -0 1 0 
1 38.099999999999994 139.69999999999999 0 0 0 1 
1 38.099999999999994 0 0 -0 1 0 
1 0 0 0 1 0 -0 
1 0 0 2070.0999999999999 1 0 -0 
1 0 139.69999999999999 0 1 0 -0 
1 0 139.69999999999999 2070.0999999999999 1 0 -0 
1 0 0 0 0 0 1 
1 0 0 184.14999999999998 -0 1 0 
1 0 139.69999999999999 0 0 0 1 
1 0 0 0 -0 1 0 
1 1041.3999999999999 0 0 0 0 1 
1 1041.3999999999999 0 184.14999999999998 -0 1 0 
1 1041.3999999999999 139.69999999999999 0 0 0 1 
1 1041.3999999999999 0 0 -0 1 0 
1 0 0 0 1 0 -0 
1 0 0 184.14999999999998 1 0 -0 
1 0 139.69999999999999 0 1 0 -0 
1 0 139.69999999999999 184.14999999999998 1 0 -0 
1 0 0 0 0 0 1 
1 0 0 107.94999999999982 -0 1 0 
1 0 139.69999999999999 0 0 0 1 
1 0 0 0 -0 1 0 
1 38.099999999999994 0 0 0 0 1 
1 38.099999999999994 0 107.94999999999982 -0 1 0 
1 38.099999999999994 139.69999999999999 0 0 0 1 
1 38.099999999999994 0 0 -0 1 0 
1 0 0 0 1 0 -0 
1 0 0 107.94999999999982 1 0 -0 
1 0 139.69999999999999 0 1 0 -0 
1 0 139.69999999999999 107.94999999999982 1 0 -0 
1 0 0 0 0 0 1 
1 0 0 107.94999999999982 -0 1 0 
1 0 139.69999999999999 0 0 0 1 
1 0 0 0 -0 1 0 
1 38.099999999999994 0 0 0 0 1 
1 38.099999999999994 0 107.94999999999982 -0 1 0 
1 38.099999999999994 139.69999999999999 0 0 0 1 
1 38.099999999999994 0 0 -0 1 0 
1 0 0 0 1 0 -0 
1 0 0 107.94999999999982 1 0 -0 
1 0 139.69999999999999 0 1 0 -0 
1 0 139.69999999999999 107.94999999999982 1 0 -0 
1 0 0 0 0 0 1 
1 0 0 2438.3999999999996 -0 1 0 
1 0 11.112499999999999 0 0 0 1 
1 0 0 0 -0 1 0 
1 0 0 0 1 0 -0 
1 126.99999999999994 -11.112499999999999 0 -0 0 -1 
1 63.499999999999972 -11.112499999999999 2108.1999999999998 1 0 -0 
1 1092.1999999999998 -11.112499999999999 0 -0 0 -1 
1 0 0 0 1 0 -0 
1 1219.1999999999998 0 0 0 0 1 
1 0 0 2438.3999999999996 1 0 -0 
1 0 11.112499999999999 2438.3999999999996 1 0 -0 
1 1219.1999999999998 0 2438.3999999999996 -0 1 0 
1 0 11.112499999999999 0 1 0 -0 
1 126.99999999999994 0 0 -0 0 -1 
1 63.499999999999972 0 2108.1999999999998 1 0 -0 
1 1092.1999999999998 0 0 -0 0 -1 
1 0 11.112499999999999 0 1 0 -0 
1 1219.1999999999998 11.112499999999999 0 0 0 1 
1 0 0 0 -0 1 0 
1 0 0 2108.1999999999998 -0 1 0 
1 965.19999999999993 0 2108.1999999999998 -0 1 0 
1 965.19999999999993 0 0 -0 1 0 
1 1219.1999999999998 0 0 -0 1 0 
Polygon3D 0
PolygonOnTriangulations 0
Surfaces 70
1 0 0 0 1 0 -0 0 0 1 0 -1 0 
1 0 0 0 -0 1 0 0 0 1 1 0 -0 
1 0 0 38.099999999999994 0 0 1 1 0 -0 -0 1 0 
1 0 139.69999999999999 0 -0 1 0 0 0 1 1 0 -0 
1 0 0 0 0 0 1 1 0 -0 -0 1 0 
1 126.99999999999994 0 0 1 0 -0 0 0 1 0 -1 0 
1 0 0 0 1 0 -0 0 0 1 0 -1 0 
1 0 0 0 -0 1 0 0 0 1 1 0 -0 
1 0 0 38.099999999999994 0 0 1 1 0 -0 -0 1 0 
1 0 139.69999999999999 0 -0 1 0 0 0 1 1 0 -0 
1 0 0 0 0 0 1 1 0 -0 -0 1 0 
1 127 0 0 1 0 -0 0 0 1 0 -1 0 
1 0 0 0 1 0 -0 0 0 1 0 -1 0 
1 0 0 0 -0 1 0 0 0 1 1 0 -0 
1 0 0 38.099999999999994 0 0 1 1 0 -0 -0 1 0 
1 0 139.69999999999999 0 -0 1 0 0 0 1 1 0 -0 
1 0 0 0 0 0 1 1 0 -0 -0 1 0 
1 1219.1999999999998 0 0 1 0 -0 0 0 1 0 -1 0 
1 0 0 0 1 0 -0 0 0 1 0 -1 0 
1 0 0 0 -0 1 0 0 0 1 1 0 -0 
1 0 0 2362.1999999999998 0 0 1 1 0 -0 -0 1 0 
1 0 139.69999999999999 0 -0 1 0 0 0 1 1 0 -0 
1 0 0 0 0 0 1 1 0 -0 -0 1 0 
1 38.099999999999994 0 0 1 0 -0 0 0 1 0 -1 0 
1 0 0 0 1 0 -0 0 0 1 0 -1 0 
1 0 0 0 -0 1 0 0 0 1 1 0 -0 
1 0 0 2362.1999999999998 0 0 1 1 0 -0 -0 1 0 
1 0 139.69999999999999 0 -0 1 0 0 0 1 1 0 -0 
1 0 0 0 0 0 1 1 0 -0 -0 1 0 
1 38.099999999999994 0 0 1 0 -0 0 0 1 0 -1 0 
1 0 0 0 1 0 -0 0 0 1 0 -1 0 
1 0 0 0 -0 1 0 0 0 1 1 0 -0 
1 0 0 2070.0999999999999 0 0 1 1 0 -0 -0 1 0 
1 0 139.69999999999999 0 -0 1 0 0 0 1 1 0 -0 
1 0 0 0 0 0 1 1 0 -0 -0 1 0 
1 38.099999999999994 0 0 1 0 -0 0 0 1 0 -1 0 
1 0 0 0 1 0 -0 0 0 1 0 -1 0 
1 0 0 0 -0 1 0 0 0 1 1 0 -0 
1 0 0 2070.0999999999999 0 0 1 1 0 -0 -0 1 0 
1 0 139.69999999999999 0 -0 1 0 0 0 1 1 0 -0 
1 0 0 0 0 0 1 1 0 -0 -0 1 0 
1 38.099999999999994 0 0 1 0 -0 0 0 1 0 -1 0 
1 0 0 0 1 0 -0 0 0 1 0 -1 0 
1 0 0 0 -0 1 0 0 0 1 1 0 -0 
1 0 0 184.14999999999998 0 0 1 1 0 -0 -0 1 0 
1 0 139.69999999999999 0 -0 1 0 0 0 1 1 0 -0 
1 0 0 0 0 0 1 1 0 -0 -0 1 0 
1 1041.3999999999999 0 0 1 0 -0 0 0 1 0 -1 0 
1 0 0 0 1 0 -0 0 0 1 0 -1 0 
1 0 0 0 -0 1 0 0 0 1 1 0 -0 
1 0 0 107.94999999999982 0 0 1 1 0 -0 -0 1 0 
1 0 139.69999999999999 0 -0 1 0 0 0 1 1 0 -0 
1 0 0 0 0 0 1 1 0 -0 -0 1 0 
1 38.099999999999994 0 0 1 0 -0 0 0 1 0 -1 0 
1 0 0 0 1 0 -0 0 0 1 0 -1 0 
1 0 0 0 -0 1 0 0 0 1 1 0 -0 
1 0 0 107.94999999999982 0 0 1 1 0 -0 -0 1 0 
1 0 139.69999999999999 0 -0 1 0 0 0 1 1 0 -0 
1 0 0 0 0 0 1 1 0 -0 -0 1 0 
1 38.099999999999994 0 0 1 0 -0 0 0 1 0 -1 0 
1 0 0 0 1 0 -0 0 0 1 0 -1 0 
1 0 0 0 -0 1 0 0 0 1 1 0 -0 
1 0 0 2438.3999999999996 0 0 1 1 0 -0 -0 1 0 
1 0 11.112499999999999 0 -0 1 0 0 0 1 1 0 -0 
1 0 0 0 0 0 1 1 0 -0 -0 1 0 
1 0 0 0 1 0 -0 0 0 1 0 -1 0 
1 0 0 2108.1999999999998 0 0 1 1 0 -0 -0 1 0 
1 965.19999999999993 0 0 1 0 -0 0 0 1 0 -1 0 
1 0 0 0 0 0 1 1 0 -0 -0 1 0 
1 1219.1999999999998 0 0 1 0 -0 0 0 1 0 -1 0 
Triangulations 0

TShapes 404
Ve
1e-07
0 0 38.1
0 0

0101101
*
Ve
1e-07
0 0 0
0 0

0101101
*
Ed
 1e-07 1 1 0
1  1 0 0 38.1
2  1 1 0 0 38.1
2  2 2 0 0 38.1
0

0101000
-404 6 +403 6 *
Ve
1e-07
0 139.7 38.1
0 0

0101101
*
Ed
 1e-07 1 1 0
1  2 0 0 139.7
2  3 1 0 0 139.7
2  4 3 0 0 139.7
0

0101000
-401 6 +404 6 *
Ve
1e-07
0 139.7 0
0 0

0101101
*
Ed
 1e-07 1 1 0
1  3 0 0 38.1
2  5 1 0 0 38.1
2  6 4 0 0 38.1
0

0101000
-401 6 +399 6 *
Ed
 1e-07 1 1 0
1  4 0 0 139.7
2  7 1 0 0 139.7
2  8 5 0 0 139.7
0

0101000
-399 6 +403 6 *
Wi

0101100
-402 0 -400 0 +398 0 +397 0 *
Fa
0  1e-07 1 0

0111000
+396 0 *
Ve
1e-07
127 0 38.1
0 0

0101101
*
Ve
1e-07
127 0 0
0 0

0101101
*
Ed
 1e-07 1 1 0
1  5 0 0 38.1
2  9 6 0 0 38.1
2  10 2 0 0 38.1
0

0101000
-394 6 +393 6 *
Ve
1e-07
127 139.7 38.1
0 0

0101101
*
Ed
 1e-07 1 1 0
1  6 0 0 139.7
2  11 6 0 0 139.7
2  12 3 0 0 139.7
0

0101000
-391 6 +394 6 *
Ve
1e-07
127 139.7 0
0 0

0101101
*
Ed
 1e-07 1 1 0
1  7 0 0 38.1
2  13 6 0 0 38.1
2  14 4 0 0 38.1
0

0101000
-391 6 +389 6 *
Ed
 1e-07 1 1 0
1  8 0 0 139.7
2  15 6 0 0 139.7
2  16 5 0 0 139.7
0

0101000
-389 6 +393 6 *
Wi

0101100
-392 0 -390 0 +388 0 +387 0 *
Fa
0  1e-07 6 0

0111000
+386 0 *
Ed
 1e-07 1 1 0
1  9 0 0 127
2  17 2 0 0 127
2  18 5 0 0 127
0

0101000
-393 6 +403 6 *
Ed
 1e-07 1 1 0
1  10 0 0 127
2  19 2 0 0 127
2  20 3 0 0 127
0

0101000
-394 6 +404 6 *
Wi

0101100
-384 0 -392 0 +383 0 +402 0 *
Fa
0  1e-07 2 0

0111000
+382 0 *
Ed
 1e-07 1 1 0
1  11 0 0 127
2  21 4 0 0 127
2  22 5 0 0 127
0

0101000
-389 6 +399 6 *
Ed
 1e-07 1 1 0
1  12 0 0 127
2  23 4 0 0 127
2  24 3 0 0 127
0

0101000
-391 6 +401 6 *
Wi

0101100
-380 0 -388 0 +379 0 +398 0 *
Fa
0  1e-07 4 0

0111000
+378 0 *
Wi

0101100
-397 0 -380 0 +387 0 +384 0 *
Fa
0  1e-07 5 0

0111000
+376 0 *
Wi

0101100
-400 0 -379 0 +390 0 +383 0 *
Fa
0  1e-07 3 0

0111000
+374 0 *
Sh

0101100
-395 0 +385 0 -381 0 +377 0 -375 0 +373 0 *
So

0100000
+372 0 *
Ve
1e-07
1092.2 0 38.1
0 0

0101101
*
Ve
1e-07
1092.2 0 0
0 0

0101101
*
Ed
 1e-07 1 1 0
1  13 0 0 38.1
2  25 7 0 0 38.1
2  26 8 0 0 38.1
0

0101000
-370 8 +369 8 *
Ve
1e-07
1092.2 139.7 38.1
0 0

0101101
*
Ed
 1e-07 1 1 0
1  14 0 0 139.7
2  27 7 0 0 139.7
2  28 9 0 0 139.7
0

0101000
-367 8 +370 8 *
Ve
1e-07
1092.2 139.7 0
0 0

0101101
*
Ed
 1e-07 1 1 0
1  15 0 0 38.1
2  29 7 0 0 38.1
2  30 10 0 0 38.1
0

0101000
-367 8 +365 8 *
Ed
 1e-07 1 1 0
1  16 0 0 139.7
2  31 7 0 0 139.7
2  32 11 0 0 139.7
0

0101000
-365 8 +369 8 *
Wi

0101100
-368 0 -366 0 +364 0 +363 0 *
Fa
0  1e-07 7 0

0111000
+362 0 *
Ve
1e-07
1219.2 0 38.1
0 0

0101101
*
Ve
1e-07
1219.2 0 0
0 0

0101101
*
Ed
 1e-07 1 1 0
1  17 0 0 38.1
2  33 12 0 0 38.1
2  34 8 0 0 38.1
0

0101000
-360 8 +359 8 *
Ve
1e-07
1219.2 139.7 38.1
0 0

0101101
*
Ed
 1e-07 1 1 0
1  18 0 0 139.7
2  35 12 0 0 139.7
2  36 9 0 0 139.7
0

0101000
-357 8 +360 8 *
Ve
1e-07
1219.2 139.7 0
0 0

0101101
*
Ed
 1e-07 1 1 0
1  19 0 0 38.1
2  37 12 0 0 38.1
2  38 10 0 0 38.1
0

0101000
-357 8 +355 8 *
Ed
 1e-07 1 1 0
1  20 0 0 139.7
2  39 12 0 0 139.7
2  40 11 0 0 139.7
0

0101000
-355 8 +359 8 *
Wi

0101100
-358 0 -356 0 +354 0 +353 0 *
Fa
0  1e-07 12 0

0111000
+352 0 *
Ed
 1e-07 1 1 0
1  21 0 0 127
2  41 8 0 0 127
2  42 11 0 0 127
0

0101000
-359 8 +369 8 *
Ed
 1e-07 1 1 0
1  22 0 0 127
2  43 8 0 0 127
2  44 9 0 0 127
0

0101000
-360 8 +370 8 *
Wi

0101100
-350 0 -358 0 +349 0 +368 0 *
Fa
0  1e-07 8 0

0111000
+348 0 *
Ed
 1e-07 1 1 0
1  23 0 0 127
2  45 10 0 0 127
2  46 11 0 0 127
0

0101000
-355 8 +365 8 *
Ed
 1e-07 1 1 0
1  24 0 0 127
2  47 10 0 0 127
2  48 9 0 0 127
0

0101000
-357 8 +367 8 *
Wi

0101100
-346 0 -354 0 +345 0 +364 0 *
Fa
0  1e-07 10 0

0111000
+344 0 *
Wi

0101100
-363 0 -346 0 +353 0 +350 0 *
Fa
0  1e-07 11 0

0111000
+342 0 *
Wi

0101100
-366 0 -345 0 +356 0 +349 0 *
Fa
0  1e-07 9 0

0111000
+340 0 *
Sh

0101100
-361 0 +351 0 -347 0 +343 0 -341 0 +339 0 *
So

0100000
+338 0 *
Ve
1e-07
0 0 2438.4
0 0

0101101
*
Ve
1e-07
0 0 2400.3
0 0

0101101
*
Ed
 1e-07 1 1 0
1  25 0 0 38.1
2  49 13 0 0 38.1
2  50 14 0 0 38.1
0

0101000
-336 10 +335 10 *
Ve
1e-07
0 139.7 2438.4
0 0

0101101
*
Ed
 1e-07 1 1 0
1  26 0 0 139.7
2  51 13 0 0 139.7
2  52 15 0 0 139.7
0

0101000
-333 10 +336 10 *
Ve
1e-07
0 139.7 2400.3
0 0

0101101
*
Ed
 1e-07 1 1 0
1  27 0 0 38.1
2  53 13 0 0 38.1
2  54 16 0 0 38.1
0

0101000
-333 10 +331 10 *
Ed
 1e-07 1 1 0
1  28 0 0 139.7
2  55 13 0 0 139.7
2  56 17 0 0 139.7
0

0101000
-331 10 +335 10 *
Wi

0101100
-334 0 -332 0 +330 0 +329 0 *
Fa
0  1e-07 13 0

0111000
+328 0 *
Ve
1e-07
1219.2 0 2438.4
0 0

0101101
*
Ve
1e-07
1219.2 0 2400.3
0 0

0101101
*
Ed
 1e-07 1 1 0
1  29 0 0 38.1
2  57 18 0 0 38.1
2  58 14 0 0 38.1
0

0101000
-326 10 +325 10 *
Ve
1e-07
1219.2 139.7 2438.4
0 0

0101101
*
Ed
 1e-07 1 1 0
1  30 0 0 139.7
2  59 18 0 0 139.7
2  60 15 0 0 139.7
0

0101000
-323 10 +326 10 *
Ve
1e-07
1219.2 139.7 2400.3
0 0

0101101
*
Ed
 1e-07 1 1 0
1  31 0 0 38.1
2  61 18 0 0 38.1
2  62 16 0 0 38.1
0

0101000
-323 10 +321 10 *
Ed
 1e-07 1 1 0
1  32 0 0 139.7
2  63 18 0 0 139.7
2  64 17 0 0 139.7
0

0101000
-321 10 +325 10 *
Wi

0101100
-324 0 -322 0 +320 0 +319 0 *
Fa
0  1e-07 18 0

0111000
+318 0 *
Ed
 1e-07 1 1 0
1  33 0 0 1219.2
2  65 14 0 0 1219.2
2  66 17 0 0 1219.2
0

0101000
-325 10 +335 10 *
Ed
 1e-07 1 1 0
1  34 0 0 1219.2
2  67 14 0 0 1219.2
2  68 15 0 0 1219.2
0

0101000
-326 10 +336 10 *
Wi

0101100
-316 0 -324 0 +315 0 +334 0 *
Fa
0  1e-07 14 0

0111000
+314 0 *
Ed
 1e-07 1 1 0
1  35 0 0 1219.2
2  69 16 0 0 1219.2
2  70 17 0 0 1219.2
0

0101000
-321 10 +331 10 *
Ed
 1e-07 1 1 0
1  36 0 0 1219.2
2  71 16 0 0 1219.2
2  72 15 0 0 1219.2
0

0101000
-323 10 +333 10 *
Wi

0101100
-312 0 -320 0 +311 0 +330 0 *
Fa
0  1e-07 16 0

0111000
+310 0 *
Wi

0101100
-329 0 -312 0 +319 0 +316 0 *
Fa
0  1e-07 17 0

0111000
+308 0 *
Wi

0101100
-332 0 -311 0 +322 0 +315 0 *
Fa
0  1e-07 15 0

0111000
+306 0 *
Sh

0101100
-327 0 +317 0 -313 0 +309 0 -307 0 +305 0 *
So

0100000
+304 0 *
Ve
1e-07
0 0 2400.3
0 0

0101101
*
Ve
1e-07
0 0 38.1
0 0

0101101
*
Ed
 1e-07 1 1 0
1  37 0 0 2362.2
2  73 19 0 0 2362.2
2  74 20 0 0 2362.2
0

0101000
-302 12 +301 12 *
Ve
1e-07
0 139.7 2400.3
0 0

0101101
*
Ed
 1e-07 1 1 0
1  38 0 0 139.7
2  75 19 0 0 139.7
2  76 21 0 0 139.7
0

0101000
-299 12 +302 12 *
Ve
1e-07
0 139.7 38.1
0 0

0101101
*
Ed
 1e-07 1 1 0
1  39 0 0 2362.2
2  77 19 0 0 2362.2
2  78 22 0 0 2362.2
0

0101000
-299 12 +297 12 *
Ed
 1e-07 1 1 0
1  40 0 0 139.7
2  79 19 0 0 139.7
2  80 23 0 0 139.7
0

0101000
-297 12 +301 12 *
Wi

0101100
-300 0 -298 0 +296 0 +295 0 *
Fa
0  1e-07 19 0

0111000
+294 0 *
Ve
1e-07
38.1 0 2400.3
0 0

0101101
*
Ve
1e-07
38.1 0 38.1
0 0

0101101
*
Ed
 1e-07 1 1 0
1  41 0 0 2362.2
2  81 24 0 0 2362.2
2  82 20 0 0 2362.2
0

0101000
-292 12 +291 12 *
Ve
1e-07
38.1 139.7 2400.3
0 0

0101101
*
Ed
 1e-07 1 1 0
1  42 0 0 139.7
2  83 24 0 0 139.7
2  84 21 0 0 139.7
0

0101000
-289 12 +292 12 *
Ve
1e-07
38.1 139.7 38.1
0 0

0101101
*
Ed
 1e-07 1 1 0
1  43 0 0 2362.2
2  85 24 0 0 2362.2
2  86 22 0 0 2362.2
0

0101000
-289 12 +287 12 *
Ed
 1e-07 1 1 0
1  44 0 0 139.7
2  87 24 0 0 139.7
2  88 23 0 0 139.7
0

0101000
-287 12 +291 12 *
Wi

0101100
-290 0 -288 0 +286 0 +285 0 *
Fa
0  1e-07 24 0

0111000
+284 0 *
Ed
 1e-07 1 1 0
1  45 0 0 38.1
2  89 20 0 0 38.1
2  90 23 0 0 38.1
0

0101000
-291 12 +301 12 *
Ed
 1e-07 1 1 0
1  46 0 0 38.1
2  91 20 0 0 38.1
2  92 21 0 0 38.1
0

0101000
-292 12 +302 12 *
Wi

0101100
-282 0 -290 0 +281 0 +300 0 *
Fa
0  1e-07 20 0

0111000
+280 0 *
Ed
 1e-07 1 1 0
1  47 0 0 38.1
2  93 22 0 0 38.1
2  94 23 0 0 38.1
0

0101000
-287 12 +297 12 *
Ed
 1e-07 1 1 0
1  48 0 0 38.1
2  95 22 0 0 38.1
2  96 21 0 0 38.1
0

0101000
-289 12 +299 12 *
Wi

0101100
-278 0 -286 0 +277 0 +296 0 *
Fa
0  1e-07 22 0

0111000
+276 0 *
Wi

0101100
-295 0 -278 0 +285 0 +282 0 *
Fa
0  1e-07 23 0

0111000
+274 0 *
Wi

0101100
-298 0 -277 0 +288 0 +281 0 *
Fa
0  1e-07 21 0

0111000
+272 0 *
Sh

0101100
-293 0 +283 0 -279 0 +275 0 -273 0 +271 0 *
So

0100000
+270 0 *
Ve
1e-07
1181.1 0 2400.3
0 0

0101101
*
Ve
1e-07
1181.1 0 38.1
0 0

0101101
*
Ed
 1e-07 1 1 0
1  49 0 0 2362.2
2  97 25 0 0 2362.2
2  98 26 0 0 2362.2
0

0101000
-268 14 +267 14 *
Ve
1e-07
1181.1 139.7 2400.3
0 0

0101101
*
Ed
 1e-07 1 1 0
1  50 0 0 139.7
2  99 25 0 0 139.7
2  100 27 0 0 139.7
0

0101000
-265 14 +268 14 *
Ve
1e-07
1181.1 139.7 38.1
0 0

0101101
*
Ed
 1e-07 1 1 0
1  51 0 0 2362.2
2  101 25 0 0 2362.2
2  102 28 0 0 2362.2
0

0101000
-265 14 +263 14 *
Ed
 1e-07 1 1 0
1  52 0 0 139.7
2  103 25 0 0 139.7
2  104 29 0 0 139.7
0

0101000
-263 14 +267 14 *
Wi

0101100
-266 0 -264 0 +262 0 +261 0 *
Fa
0  1e-07 25 0

0111000
+260 0 *
Ve
1e-07
1219.2 0 2400.3
0 0

0101101
*
Ve
1e-07
1219.2 0 38.1
0 0

0101101
*
Ed
 1e-07 1 1 0
1  53 0 0 2362.2
2  105 30 0 0 2362.2
2  106 26 0 0 2362.2
0

0101000
-258 14 +257 14 *
Ve
1e-07
1219.2 139.7 2400.3
0 0

0101101
*
Ed
 1e-07 1 1 0
1  54 0 0 139.7
2  107 30 0 0 139.7
2  108 27 0 0 139.7
0

0101000
-255 14 +258 14 *
Ve
1e-07
1219.2 139.7 38.1
0 0

0101101
*
Ed
 1e-07 1 1 0
1  55 0 0 2362.2
2  109 30 0 0 2362.2
2  110 28 0 0 2362.2
0

0101000
-255 14 +253 14 *
Ed
 1e-07 1 1 0
1  56 0 0 139.7
2  111 30 0 0 139.7
2  112 29 0 0 139.7
0

0101000
-253 14 +257 14 *
Wi

0101100
-256 0 -254 0 +252 0 +251 0 *
Fa
0  1e-07 30 0

0111000
+250 0 *
Ed
 1e-07 1 1 0
1  57 0 0 38.1
2  113 26 0 0 38.1
2  114 29 0 0 38.1
0

0101000
-257 14 +267 14 *
Ed
 1e-07 1 1 0
1  58 0 0 38.1
2  115 26 0 0 38.1
2  116 27 0 0 38.1
0

0101000
-258 14 +268 14 *
Wi

0101100
-248 0 -256 0 +247 0 +266 0 *
Fa
0  1e-07 26 0

0111000
+246 0 *
Ed
 1e-07 1 1 0
1  59 0 0 38.1
2  117 28 0 0 38.1
2  118 29 0 0 38.1
0

0101000
-253 14 +263 14 *
Ed
 1e-07 1 1 0
1  60 0 0 38.1
2  119 28 0 0 38.1
2  120 27 0 0 38.1
0

0101000
-255 14 +265 14 *
Wi

0101100
-244 0 -252 0 +243 0 +262 0 *
Fa
0  1e-07 28 0

0111000
+242 0 *
Wi

0101100
-261 0 -244 0 +251 0 +248 0 *
Fa
0  1e-07 29 0

0111000
+240 0 *
Wi

0101100
-264 0 -243 0 +254 0 +247 0 *
Fa
0  1e-07 27 0

0111000
+238 0 *
Sh

0101100
-259 0 +249 0 -245 0 +241 0 -239 0 +237 0 *
So

0100000
+236 0 *
Ve
1e-07
88.8999999999999 0 2108.2
0 0

0101101
*
Ve
1e-07
88.8999999999999 0 38.1
0 0

0101101
*
Ed
 1e-07 1 1 0
1  61 0 0 2070.1
2  121 31 0 0 2070.1
2  122 32 0 0 2070.1
0

0101000
-234 16 +233 16 *
Ve
1e-07
88.8999999999999 139.7 2108.2
0 0

0101101
*
Ed
 1e-07 1 1 0
1  62 0 0 139.7
2  123 31 0 0 139.7
2  124 33 0 0 139.7
0

0101000
-231 16 +234 16 *
Ve
1e-07
88.8999999999999 139.7 38.1
0 0

0101101
*
Ed
 1e-07 1 1 0
1  63 0 0 2070.1
2  125 31 0 0 2070.1
2  126 34 0 0 2070.1
0

0101000
-231 16 +229 16 *
Ed
 1e-07 1 1 0
1  64 0 0 139.7
2  127 31 0 0 139.7
2  128 35 0 0 139.7
0

0101000
-229 16 +233 16 *
Wi

0101100
-232 0 -230 0 +228 0 +227 0 *
Fa
0  1e-07 31 0

0111000
+226 0 *
Ve
1e-07
127 0 2108.2
0 0

0101101
*
Ve
1e-07
127 0 38.1
0 0

0101101
*
Ed
 1e-07 1 1 0
1  65 0 0 2070.1
2  129 36 0 0 2070.1
2  130 32 0 0 2070.1
0

0101000
-224 16 +223 16 *
Ve
1e-07
127 139.7 2108.2
0 0

0101101
*
Ed
 1e-07 1 1 0
1  66 0 0 139.7
2  131 36 0 0 139.7
2  132 33 0 0 139.7
0

0101000
-221 16 +224 16 *
Ve
1e-07
127 139.7 38.1
0 0

0101101
*
Ed
 1e-07 1 1 0
1  67 0 0 2070.1
2  133 36 0 0 2070.1
2  134 34 0 0 2070.1
0

0101000
-221 16 +219 16 *
Ed
 1e-07 1 1 0
1  68 0 0 139.7
2  135 36 0 0 139.7
2  136 35 0 0 139.7
0

0101000
-219 16 +223 16 *
Wi

0101100
-222 0 -220 0 +218 0 +217 0 *
Fa
0  1e-07 36 0

0111000
+216 0 *
Ed
 1e-07 1 1 0
1  69 0 0 38.1
2  137 32 0 0 38.1
2  138 35 0 0 38.1
0

0101000
-223 16 +233 16 *
Ed
 1e-07 1 1 0
1  70 0 0 38.1
2  139 32 0 0 38.1
2  140 33 0 0 38.1
0

0101000
-224 16 +234 16 *
Wi

0101100
-214 0 -222 0 +213 0 +232 0 *
Fa
0  1e-07 32 0

0111000
+212 0 *
Ed
 1e-07 1 1 0
1  71 0 0 38.1
2  141 34 0 0 38.1
2  142 35 0 0 38.1
0

0101000
-219 16 +229 16 *
Ed
 1e-07 1 1 0
1  72 0 0 38.1
2  143 34 0 0 38.1
2  144 33 0 0 38.1
0

0101000
-221 16 +231 16 *
Wi

0101100
-210 0 -218 0 +209 0 +228 0 *
Fa
0  1e-07 34 0

0111000
+208 0 *
Wi

0101100
-227 0 -210 0 +217 0 +214 0 *
Fa
0  1e-07 35 0

0111000
+206 0 *
Wi

0101100
-230 0 -209 0 +220 0 +213 0 *
Fa
0  1e-07 33 0

0111000
+204 0 *
Sh

0101100
-225 0 +215 0 -211 0 +207 0 -205 0 +203 0 *
So

0100000
+202 0 *
Ve
1e-07
1092.2 0 2108.2
0 0

0101101
*
Ve
1e-07
1092.2 0 38.1
0 0

0101101
*
Ed
 1e-07 1 1 0
1  73 0 0 2070.1
2  145 37 0 0 2070.1
2  146 38 0 0 2070.1
0

0101000
-200 18 +199 18 *
Ve
1e-07
1092.2 139.7 2108.2
0 0

0101101
*
Ed
 1e-07 1 1 0
1  74 0 0 139.7
2  147 37 0 0 139.7
2  148 39 0 0 139.7
0

0101000
-197 18 +200 18 *
Ve
1e-07
1092.2 139.7 38.1
0 0

0101101
*
Ed
 1e-07 1 1 0
1  75 0 0 2070.1
2  149 37 0 0 2070.1
2  150 40 0 0 2070.1
0

0101000
-197 18 +195 18 *
Ed
 1e-07 1 1 0
1  76 0 0 139.7
2  151 37 0 0 139.7
2  152 41 0 0 139.7
0

0101000
-195 18 +199 18 *
Wi

0101100
-198 0 -196 0 +194 0 +193 0 *
Fa
0  1e-07 37 0

0111000
+192 0 *
Ve
1e-07
1130.3 0 2108.2
0 0

0101101
*
Ve
1e-07
1130.3 0 38.1
0 0

0101101
*
Ed
 1e-07 1 1 0
1  77 0 0 2070.1
2  153 42 0 0 2070.1
2  154 38 0 0 2070.1
0

0101000
-190 18 +189 18 *
Ve
1e-07
1130.3 139.7 2108.2
0 0

0101101
*
Ed
 1e-07 1 1 0
1  78 0 0 139.7
2  155 42 0 0 139.7
2  156 39 0 0 139.7
0

0101000
-187 18 +190 18 *
Ve
1e-07
1130.3 139.7 38.1
0 0

0101101
*
Ed
 1e-07 1 1 0
1  79 0 0 2070.1
2  157 42 0 0 2070.1
2  158 40 0 0 2070.1
0

0101000
-187 18 +185 18 *
Ed
 1e-07 1 1 0
1  80 0 0 139.7
2  159 42 0 0 139.7
2  160 41 0 0 139.7
0

0101000
-185 18 +189 18 *
Wi

0101100
-188 0 -186 0 +184 0 +183 0 *
Fa
0  1e-07 42 0

0111000
+182 0 *
Ed
 1e-07 1 1 0
1  81 0 0 38.1
2  161 38 0 0 38.1
2  162 41 0 0 38.1
0

0101000
-189 18 +199 18 *
Ed
 1e-07 1 1 0
1  82 0 0 38.1
2  163 38 0 0 38.1
2  164 39 0 0 38.1
0

0101000
-190 18 +200 18 *
Wi

0101100
-180 0 -188 0 +179 0 +198 0 *
Fa
0  1e-07 38 0

0111000
+178 0 *
Ed
 1e-07 1 1 0
1  83 0 0 38.1
2  165 40 0 0 38.1
2  166 41 0 0 38.1
0

0101000
-185 18 +195 18 *
Ed
 1e-07 1 1 0
1  84 0 0 38.1
2  167 40 0 0 38.1
2  168 39 0 0 38.1
0

0101000
-187 18 +197 18 *
Wi

0101100
-176 0 -184 0 +175 0 +194 0 *
Fa
0  1e-07 40 0

0111000
+174 0 *
Wi

0101100
-193 0 -176 0 +183 0 +180 0 *
Fa
0  1e-07 41 0

0111000
+172 0 *
Wi

0101100
-196 0 -175 0 +186 0 +179 0 *
Fa
0  1e-07 39 0

0111000
+170 0 *
Sh

0101100
-191 0 +181 0 -177 0 +173 0 -171 0 +169 0 *
So

0100000
+168 0 *
Ve
1e-07
88.8999999999999 0 2292.35
0 0

0101101
*
Ve
1e-07
88.8999999999999 0 2108.2
0 0

0101101
*
Ed
 1e-07 1 1 0
1  85 0 0 184.15
2  169 43 0 0 184.15
2  170 44 0 0 184.15
0

0101000
-166 20 +165 20 *
Ve
1e-07
88.8999999999999 139.7 2292.35
0 0

0101101
*
Ed
 1e-07 1 1 0
1  86 0 0 139.7
2  171 43 0 0 139.7
2  172 45 0 0 139.7
0

0101000
-163 20 +166 20 *
Ve
1e-07
88.8999999999999 139.7 2108.2
0 0

0101101
*
Ed
 1e-07 1 1 0
1  87 0 0 184.15
2  173 43 0 0 184.15
2  174 46 0 0 184.15
0

0101000
-163 20 +161 20 *
Ed
 1e-07 1 1 0
1  88 0 0 139.7
2  175 43 0 0 139.7
2  176 47 0 0 139.7
0

0101000
-161 20 +165 20 *
Wi

0101100
-164 0 -162 0 +160 0 +159 0 *
Fa
0  1e-07 43 0

0111000
+158 0 *
Ve
1e-07
1130.3 0 2292.35
0 0

0101101
*
Ve
1e-07
1130.3 0 2108.2
0 0

0101101
*
Ed
 1e-07 1 1 0
1  89 0 0 184.15
2  177 48 0 0 184.15
2  178 44 0 0 184.15
0

0101000
-156 20 +155 20 *
Ve
1e-07
1130.3 139.7 2292.35
0 0

0101101
*
Ed
 1e-07 1 1 0
1  90 0 0 139.7
2  179 48 0 0 139.7
2  180 45 0 0 139.7
0

0101000
-153 20 +156 20 *
Ve
1e-07
1130.3 139.7 2108.2
0 0

0101101
*
Ed
 1e-07 1 1 0
1  91 0 0 184.15
2  181 48 0 0 184.15
2  182 46 0 0 184.15
0

0101000
-153 20 +151 20 *
Ed
 1e-07 1 1 0
1  92 0 0 139.7
2  183 48 0 0 139.7
2  184 47 0 0 139.7
0

0101000
-151 20 +155 20 *
Wi

0101100
-154 0 -152 0 +150 0 +149 0 *
Fa
0  1e-07 48 0

0111000
+148 0 *
Ed
 1e-07 1 1 0
1  93 0 0 1041.4
2  185 44 0 0 1041.4
2  186 47 0 0 1041.4
0

0101000
-155 20 +165 20 *
Ed
 1e-07 1 1 0
1  94 0 0 1041.4
2  187 44 0 0 1041.4
2  188 45 0 0 1041.4
0

0101000
-156 20 +166 20 *
Wi

0101100
-146 0 -154 0 +145 0 +164 0 *
Fa
0  1e-07 44 0

0111000
+144 0 *
Ed
 1e-07 1 1 0
1  95 0 0 1041.4
2  189 46 0 0 1041.4
2  190 47 0 0 1041.4
0

0101000
-151 20 +161 20 *
Ed
 1e-07 1 1 0
1  96 0 0 1041.4
2  191 46 0 0 1041.4
2  192 45 0 0 1041.4
0

0101000
-153 20 +163 20 *
Wi

0101100
-142 0 -150 0 +141 0 +160 0 *
Fa
0  1e-07 46 0

0111000
+140 0 *
Wi

0101100
-159 0 -142 0 +149 0 +146 0 *
Fa
0  1e-07 47 0

0111000
+138 0 *
Wi

0101100
-162 0 -141 0 +152 0 +145 0 *
Fa
0  1e-07 45 0

0111000
+136 0 *
Sh

0101100
-157 0 +147 0 -143 0 +139 0 -137 0 +135 0 *
So

0100000
+134 0 *
Ve
1e-07
406.4 0 2400.3
0 0

0101101
*
Ve
1e-07
406.4 0 2292.35
0 0

0101101
*
Ed
 1e-07 1 1 0
1  97 0 0 107.95
2  193 49 0 0 107.95
2  194 50 0 0 107.95
0

0101000
-132 22 +131 22 *
Ve
1e-07
406.4 139.7 2400.3
0 0

0101101
*
Ed
 1e-07 1 1 0
1  98 0 0 139.7
2  195 49 0 0 139.7
2  196 51 0 0 139.7
0

0101000
-129 22 +132 22 *
Ve
1e-07
406.4 139.7 2292.35
0 0

0101101
*
Ed
 1e-07 1 1 0
1  99 0 0 107.95
2  197 49 0 0 107.95
2  198 52 0 0 107.95
0

0101000
-129 22 +127 22 *
Ed
 1e-07 1 1 0
1  100 0 0 139.7
2  199 49 0 0 139.7
2  200 53 0 0 139.7
0

0101000
-127 22 +131 22 *
Wi

0101100
-130 0 -128 0 +126 0 +125 0 *
Fa
0  1e-07 49 0

0111000
+124 0 *
Ve
1e-07
444.5 0 2400.3
0 0

0101101
*
Ve
1e-07
444.5 0 2292.35
0 0

0101101
*
Ed
 1e-07 1 1 0
1  101 0 0 107.95
2  201 54 0 0 107.95
2  202 50 0 0 107.95
0

0101000
-122 22 +121 22 *
Ve
1e-07
444.5 139.7 2400.3
0 0

0101101
*
Ed
 1e-07 1 1 0
1  102 0 0 139.7
2  203 54 0 0 139.7
2  204 51 0 0 139.7
0

0101000
-119 22 +122 22 *
Ve
1e-07
444.5 139.7 2292.35
0 0

0101101
*
Ed
 1e-07 1 1 0
1  103 0 0 107.95
2  205 54 0 0 107.95
2  206 52 0 0 107.95
0

0101000
-119 22 +117 22 *
Ed
 1e-07 1 1 0
1  104 0 0 139.7
2  207 54 0 0 139.7
2  208 53 0 0 139.7
0

0101000
-117 22 +121 22 *
Wi

0101100
-120 0 -118 0 +116 0 +115 0 *
Fa
0  1e-07 54 0

0111000
+114 0 *
Ed
 1e-07 1 1 0
1  105 0 0 38.1
2  209 50 0 0 38.1
2  210 53 0 0 38.1
0

0101000
-121 22 +131 22 *
Ed
 1e-07 1 1 0
1  106 0 0 38.1
2  211 50 0 0 38.1
2  212 51 0 0 38.1
0

0101000
-122 22 +132 22 *
Wi

0101100
-112 0 -120 0 +111 0 +130 0 *
Fa
0  1e-07 50 0

0111000
+110 0 *
Ed
 1e-07 1 1 0
1  107 0 0 38.1
2  213 52 0 0 38.1
2  214 53 0 0 38.1
0

0101000
-117 22 +127 22 *
Ed
 1e-07 1 1 0
1  108 0 0 38.1
2  215 52 0 0 38.1
2  216 51 0 0 38.1
0

0101000
-119 22 +129 22 *
Wi

0101100
-108 0 -116 0 +107 0 +126 0 *
Fa
0  1e-07 52 0

0111000
+106 0 *
Wi

0101100
-125 0 -108 0 +115 0 +112 0 *
Fa
0  1e-07 53 0

0111000
+104 0 *
Wi

0101100
-128 0 -107 0 +118 0 +111 0 *
Fa
0  1e-07 51 0

0111000
+102 0 *
Sh

0101100
-123 0 +113 0 -109 0 +105 0 -103 0 +101 0 *
So

0100000
+100 0 *
Ve
1e-07
812.8 0 2400.3
0 0

0101101
*
Ve
1e-07
812.8 0 2292.35
0 0

0101101
*
Ed
 1e-07 1 1 0
1  109 0 0 107.95
2  217 55 0 0 107.95
2  218 56 0 0 107.95
0

0101000
-98 24 +97 24 *
Ve
1e-07
812.8 139.7 2400.3
0 0

0101101
*
Ed
 1e-07 1 1 0
1  110 0 0 139.7
2  219 55 0 0 139.7
2  220 57 0 0 139.7
0

0101000
-95 24 +98 24 *
Ve
1e-07
812.8 139.7 2292.35
0 0

0101101
*
Ed
 1e-07 1 1 0
1  111 0 0 107.95
2  221 55 0 0 107.95
2  222 58 0 0 107.95
0

0101000
-95 24 +93 24 *
Ed
 1e-07 1 1 0
1  112 0 0 139.7
2  223 55 0 0 139.7
2  224 59 0 0 139.7
0

0101000
-93 24 +97 24 *
Wi

0101100
-96 0 -94 0 +92 0 +91 0 *
Fa
0  1e-07 55 0

0111000
+90 0 *
Ve
1e-07
850.9 0 2400.3
0 0

0101101
*
Ve
1e-07
850.9 0 2292.35
0 0

0101101
*
Ed
 1e-07 1 1 0
1  113 0 0 107.95
2  225 60 0 0 107.95
2  226 56 0 0 107.95
0

0101000
-88 24 +87 24 *
Ve
1e-07
850.9 139.7 2400.3
0 0

0101101
*
Ed
 1e-07 1 1 0
1  114 0 0 139.7
2  227 60 0 0 139.7
2  228 57 0 0 139.7
0

0101000
-85 24 +88 24 *
Ve
1e-07
850.9 139.7 2292.35
0 0

0101101
*
Ed
 1e-07 1 1 0
1  115 0 0 107.95
2  229 60 0 0 107.95
2  230 58 0 0 107.95
0

0101000
-85 24 +83 24 *
Ed
 1e-07 1 1 0
1  116 0 0 139.7
2  231 60 0 0 139.7
2  232 59 0 0 139.7
0

0101000
-83 24 +87 24 *
Wi

0101100
-86 0 -84 0 +82 0 +81 0 *
Fa
0  1e-07 60 0

0111000
+80 0 *
Ed
 1e-07 1 1 0
1  117 0 0 38.1
2  233 56 0 0 38.1
2  234 59 0 0 38.1
0

0101000
-87 24 +97 24 *
Ed
 1e-07 1 1 0
1  118 0 0 38.1
2  235 56 0 0 38.1
2  236 57 0 0 38.1
0

0101000
-88 24 +98 24 *
Wi

0101100
-78 0 -86 0 +77 0 +96 0 *
Fa
0  1e-07 56 0

0111000
+76 0 *
Ed
 1e-07 1 1 0
1  119 0 0 38.1
2  237 58 0 0 38.1
2  238 59 0 0 38.1
0

0101000
-83 24 +93 24 *
Ed
 1e-07 1 1 0
1  120 0 0 38.1
2  239 58 0 0 38.1
2  240 57 0 0 38.1
0

0101000
-85 24 +95 24 *
Wi

0101100
-74 0 -82 0 +73 0 +92 0 *
Fa
0  1e-07 58 0

0111000
+72 0 *
Wi

0101100
-91 0 -74 0 +81 0 +78 0 *
Fa
0  1e-07 59 0

0111000
+70 0 *
Wi

0101100
-94 0 -73 0 +84 0 +77 0 *
Fa
0  1e-07 57 0

0111000
+68 0 *
Sh

0101100
-89 0 +79 0 -75 0 +71 0 -69 0 +67 0 *
So

0100000
+66 0 *
Ve
1e-07
0 -11.1125 2438.4
0 0

0101101
*
Ve
1e-07
0 -11.1125 0
0 0

0101101
*
Ed
 1e-07 1 1 0
1  121 0 0 2438.4
2  241 61 0 0 2438.4
2  242 62 0 0 2438.4
0

0101000
-64 26 +63 26 *
Ve
1e-07
0 0 2438.4
0 0

0101101
*
Ed
 1e-07 1 1 0
1  122 0 0 11.1125
2  243 61 0 0 11.1125
2  244 63 0 0 11.1125
0

0101000
-61 26 +64 26 *
Ve
1e-07
0 0 0
0 0

0101101
*
Ed
 1e-07 1 1 0
1  123 0 0 2438.4
2  245 61 0 0 2438.4
2  246 64 0 0 2438.4
0

0101000
-61 26 +59 26 *
Ed
 1e-07 1 1 0
1  124 0 0 11.1125
2  247 61 0 0 11.1125
2  248 65 0 0 11.1125
0

0101000
-59 26 +63 26 *
Wi

0101100
-62 0 -60 0 +58 0 +57 0 *
Fa
0  1e-07 61 0

0111000
+56 0 *
Ve
1.5e-07
127 -11.1125 0
0 0

0101101
*
Ed
 1e-07 1 1 0
1  125 0 0 127
2  249 62 0 0 127
2  250 65 0 0 127
0

0101000
+63 26 -54 26 *
Ve
1.5e-07
127 -11.1125 2108.2
0 0

0101101
*
Ed
 1.5e-07 1 1 0
1  126 0 -2108.2 0
2  251 62 25 -2108.2 0
2  252 66 27 -2108.2 0
0

0101000
+52 28 -54 28 *
Ve
1.5e-07
1092.2 -11.1125 2108.2
0 0

0101101
*
Ed
 1.5e-07 1 1 0
1  127 0 63.5 1028.7
2  253 62 25 63.5 1028.7
2  254 67 27 63.5 1028.7
0

0101000
+52 28 -50 28 *
Ve
1.5e-07
1092.2 -11.1125 0
0 0

0101101
*
Ed
 1.5e-07 1 1 0
1  128 0 -2108.2 0
2  255 62 25 -2108.2 0
2  256 68 27 -2108.2 0
0

0101000
+50 28 -48 28 *
Ve
1e-07
1219.2 -11.1125 0
0 0

0101101
*
Ed
 1e-07 1 1 0
1  129 0 1092.2 1219.2
2  257 62 0 1092.2 1219.2
2  258 69 0 1092.2 1219.2
0

0101000
+48 26 -46 26 *
Ve
1e-07
1219.2 -11.1125 2438.4
0 0

0101101
*
Ed
 1e-07 1 1 0
1  130 0 0 2438.4
2  259 62 0 0 2438.4
2  260 70 0 0 2438.4
0

0101000
-44 26 +46 26 *
Ed
 1e-07 1 1 0
1  131 0 0 1219.2
2  261 62 0 0 1219.2
2  262 63 0 0 1219.2
0

0101000
-44 26 +64 26 *
Wi

0101100
-53 25 +51 0 -49 0 -47 0 -45 25 -43 25 +42 25 +62 25 *
Fa
0  1e-07 62 25

0101000
+41 0 *
Ve
1e-07
1219.2 0 2438.4
0 0

0101101
*
Ed
 1e-07 1 1 0
1  132 0 0 1219.2
2  263 63 0 0 1219.2
2  264 64 0 0 1219.2
0

0101000
-39 26 +61 26 *
Ed
 1e-07 1 1 0
1  133 0 0 11.1125
2  265 63 0 0 11.1125
2  266 70 0 0 11.1125
0

0101000
-39 26 +44 26 *
Wi

0101100
-60 0 -38 0 +37 0 +42 0 *
Fa
0  1e-07 63 0

0111000
+36 0 *
Ve
1.5e-07
127 0 0
0 0

0101101
*
Ed
 1e-07 1 1 0
1  134 0 0 127
2  267 64 0 0 127
2  268 65 0 0 127
0

0101000
+59 26 -34 26 *
Ve
1.5e-07
127 0 2108.2
0 0

0101101
*
Ed
 1.5e-07 1 1 0
1  135 0 -2108.2 0
2  269 64 25 -2108.2 0
2  270 66 27 -2108.2 0
0

0101000
+32 28 -34 28 *
Ve
1.5e-07
1092.2 0 2108.2
0 0

0101101
*
Ed
 1.5e-07 1 1 0
1  136 0 63.5 1028.7
2  271 64 25 63.5 1028.7
2  272 67 27 63.5 1028.7
0

0101000
+32 28 -30 28 *
Ve
1.5e-07
1092.2 0 0
0 0

0101101
*
Ed
 1.5e-07 1 1 0
1  137 0 -2108.2 0
2  273 64 25 -2108.2 0
2  274 68 27 -2108.2 0
0

0101000
+30 28 -28 28 *
Ve
1e-07
1219.2 0 0
0 0

0101101
*
Ed
 1e-07 1 1 0
1  138 0 1092.2 1219.2
2  275 64 0 1092.2 1219.2
2  276 69 0 1092.2 1219.2
0

0101000
+28 26 -26 26 *
Ed
 1e-07 1 1 0
1  139 0 0 2438.4
2  277 64 0 0 2438.4
2  278 70 0 0 2438.4
0

0101000
-39 26 +26 26 *
Wi

0101100
-33 25 +31 0 -29 0 -27 0 -25 25 -24 25 +38 25 +58 25 *
Fa
0  1e-07 64 25

0101000
+23 0 *
Ed
 1e-07 1 1 0
1  140 0 1 12.1125
2  279 65 29 1 12.1125
2  280 66 0 1 12.1125
0

0101000
+54 30 -34 30 *
Wi

0101100
-33 25 +21 27 +53 25 -57 25 *
Fa
0  1e-07 65 25

0101000
+20 0 *
Ed
 1e-07 1 1 0
1  141 0 1 12.1125
2  281 66 0 1 12.1125
2  282 67 0 1 12.1125
0

0101000
+52 30 -32 30 *
Wi

0101100
-18 27 -31 0 +21 27 +51 0 *
Fa
0  1e-07 66 27

0101000
+17 0 *
Ed
 1e-07 1 1 0
1  142 0 1 12.1125
2  283 67 0 1 12.1125
2  284 68 0 1 12.1125
0

0101000
+50 30 -30 30 *
Wi

0101100
-18 27 -29 0 +15 27 +49 0 *
Fa
0  1e-07 67 27

0101000
+14 0 *
Ed
 1e-07 1 1 0
1  143 0 1 12.1125
2  285 68 0 1 12.1125
2  286 69 29 1 12.1125
0

0101000
+48 30 -28 30 *
Wi

0101100
-15 27 -27 0 +12 27 +47 0 *
Fa
0  1e-07 68 27

0101000
+11 0 *
Ed
 1e-07 1 1 0
1  144 0 0 11.1125
2  287 69 0 0 11.1125
2  288 70 0 0 11.1125
0

0101000
-26 26 +46 26 *
Wi

0101100
-25 25 +9 25 +45 25 -12 27 *
Fa
0  1e-07 69 25

0101000
+8 0 *
Wi

0101100
-43 0 -37 0 +24 0 +9 0 *
Fa
0  1e-07 70 0

0111000
+6 0 *
Sh

0101100
-55 25 -40 0 +35 25 +22 0 -19 0 +16 0 -13 0 -10 0 -7 0 +5 25 
*
So

0100000
+4 0 *
Co

0100000
+3 0 *
Co

1100000
+371 5 +337 7 +303 9 +269 11 +235 13 +201 15 +167 17 +133 19 +99 21 +65 23 
+2 0 *

+1 4 