DBRep_DrawableShape

CASCADE Topology V1, (c) Matra-Datavision
Locations 36
1
              1               0               0               0 
              0               1               0               0 
              0               0               1               0 
1
1.11022302462516e-16              -1               0               0 
              1 1.11022302462516e-16               0               0 
              0               0               1               0 
1
              1               0               0           139.7 
              0               1               0 1.23373533611471e-15 
              0               0               1              -0 
2  1 1 2 1 3 1 0
1
              1               0               0               0 
              0               1               0               0 
              0               0               1               0 
2  1 -1 5 -1 0
1
              1               0               0          2133.6 
              0               1               0               0 
              0               0               1               0 
2  1 -1 7 -1 0
1
              1               0               0               0 
              0               1               0               0 
              0               0               1          2400.3 
2  1 -1 9 -1 0
1
              1               0               0               0 
              0               1               0               0 
              0               0               1            38.1 
2  1 -1 11 -1 0
1
              1               0               0          2400.3 
              0               1               0               0 
              0               0               1            38.1 
2  1 -1 13 -1 0
1
              1               0               0           266.7 
              0               1               0               0 
              0               0               1            38.1 
2  1 -1 15 -1 0
1
              1               0               0          2133.6 
              0               1               0               0 
              0               0               1            38.1 
2  1 -1 17 -1 0
1
              1               0               0           266.7 
              0               1               0               0 
              0               0               1          2108.2 
2  1 -1 19 -1 0
1
              1               0               0           406.4 
              0               1               0               0 
              0               0               1         2393.95 
2  1 -1 21 -1 0
1
              1               0               0           812.8 
              0               1               0               0 
              0               0               1         2393.95 
2  1 -1 23 -1 0
1
              1               0               0          1219.2 
              0               1               0               0 
              0               0               1         2393.95 
2  1 -1 25 -1 0
1
              1               0               0          1625.6 
              0               1               0               0 
              0               0               1         2393.95 
2  1 -1 27 -1 0
1
              1               0               0            2032 
              0               1               0               0 
              0               0               1         2393.95 
2  1 -1 29 -1 0
1
              1               0               0               0 
              0               1               0        -11.1125 
              0               0               1               0 
2  1 -1 31 -1 0
1
              1               0               0           304.8 
              0               1               0        -12.1125 
              0               0               1               0 
2  1 -1 0
2  31 1 33 -1 0
2  1 -1 33 -1 0
Curve2ds 360
1 0 0 1 0 
1 0 0 1 0 
1 38.099999999999994 0 0 -1 
1 0 0 0 1 
1 0 -139.69999999999999 1 0 
1 0 0 1 0 
1 0 0 0 -1 
1 0 0 0 1 
1 0 0 1 0 
1 0 304.79999999999984 1 0 
1 38.099999999999994 0 0 -1 
1 304.79999999999984 0 0 1 
1 0 -139.69999999999999 1 0 
1 0 304.79999999999984 1 0 
1 0 0 0 -1 
1 304.79999999999984 0 0 1 
1 0 0 0 1 
1 0 0 1 0 
1 38.099999999999994 0 0 1 
1 0 0 1 0 
1 0 0 0 1 
1 0 139.69999999999999 1 0 
1 38.099999999999994 0 0 1 
1 0 139.69999999999999 1 0 
1 0 0 1 0 
1 0 0 1 0 
1 38.099999999999994 0 0 -1 
1 0 0 0 1 
1 0 -139.69999999999999 1 0 
1 0 0 1 0 
1 0 0 0 -1 
1 0 0 0 1 
1 0 0 1 0 
1 0 304.79999999999973 1 0 
1 38.099999999999994 0 0 -1 
1 304.79999999999973 0 0 1 
1 0 -139.69999999999999 1 0 
1 0 304.79999999999973 1 0 
1 0 0 0 -1 
1 304.79999999999973 0 0 1 
1 0 0 0 1 
1 0 0 1 0 
1 38.099999999999994 0 0 1 
1 0 0 1 0 
1 0 0 0 1 
1 0 139.69999999999999 1 0 
1 38.099999999999994 0 0 1 
1 0 139.69999999999999 1 0 
1 0 0 1 0 
1 0 0 1 0 
1 38.099999999999994 0 0 -1 
1 0 0 0 1 
1 0 -139.69999999999999 1 0 
1 0 0 1 0 
1 0 0 0 -1 
1 0 0 0 1 
1 0 0 1 0 
1 0 2438.3999999999996 1 0 
1 38.099999999999994 0 0 -1 
1 2438.3999999999996 0 0 1 
1 0 -139.69999999999999 1 0 
1 0 2438.3999999999996 1 0 
1 0 0 0 -1 
1 2438.3999999999996 0 0 1 
1 0 0 0 1 
1 0 0 1 0 
1 38.099999999999994 0 0 1 
1 0 0 1 0 
1 0 0 0 1 
1 0 139.69999999999999 1 0 
1 38.099999999999994 0 0 1 
1 0 139.69999999999999 1 0 
1 0 0 1 0 
1 0 0 1 0 
1 2362.1999999999998 0 0 -1 
1 0 0 0 1 
1 0 -139.69999999999999 1 0 
1 0 0 1 0 
1 0 0 0 -1 
1 0 0 0 1 
1 0 0 1 0 
1 0 38.099999999999994 1 0 
1 2362.1999999999998 0 0 -1 
1 38.099999999999994 0 0 1 
1 0 -139.69999999999999 1 0 
1 0 38.099999999999994 1 0 
1 0 0 0 -1 
1 38.099999999999994 0 0 1 
1 0 0 0 1 
1 0 0 1 0 
1 2362.1999999999998 0 0 1 
1 0 0 1 0 
1 0 0 0 1 
1 0 139.69999999999999 1 0 
1 2362.1999999999998 0 0 1 
1 0 139.69999999999999 1 0 
1 0 0 1 0 
1 0 0 1 0 
1 2362.1999999999998 0 0 -1 
1 0 0 0 1 
1 0 -139.69999999999999 1 0 
1 0 0 1 0 
1 0 0 0 -1 
1 0 0 0 1 
1 0 0 1 0 
1 0 38.099999999999994 1 0 
1 2362.1999999999998 0 0 -1 
1 38.099999999999994 0 0 1 
1 0 -139.69999999999999 1 0 
1 0 38.099999999999994 1 0 
1 0 0 0 -1 
1 38.099999999999994 0 0 1 
1 0 0 0 1 
1 0 0 1 0 
1 2362.1999999999998 0 0 1 
1 0 0 1 0 
1 0 0 0 1 
1 0 139.69999999999999 1 0 
1 2362.1999999999998 0 0 1 
1 0 139.69999999999999 1 0 
1 0 0 1 0 
1 0 0 1 0 
1 2070.0999999999999 0 0 -1 
1 0 0 0 1 
1 0 -139.69999999999999 1 0 
1 0 0 1 0 
1 0 0 0 -1 
1 0 0 0 1 
1 0 0 1 0 
1 0 38.099999999999994 1 0 
1 2070.0999999999999 0 0 -1 
1 38.099999999999994 0 0 1 
1 0 -139.69999999999999 1 0 
1 0 38.099999999999994 1 0 
1 0 0 0 -1 
1 38.099999999999994 0 0 1 
1 0 0 0 1 
1 0 0 1 0 
1 2070.0999999999999 0 0 1 
1 0 0 1 0 
1 0 0 0 1 
1 0 139.69999999999999 1 0 
1 2070.0999999999999 0 0 1 
1 0 139.69999999999999 1 0 
1 0 0 1 0 
1 0 0 1 0 
1 2070.0999999999999 0 0 -1 
1 0 0 0 1 
1 0 -139.69999999999999 1 0 
1 0 0 1 0 
1 0 0 0 -1 
1 0 0 0 1 
1 0 0 1 0 
1 0 38.099999999999994 1 0 
1 2070.0999999999999 0 0 -1 
1 38.099999999999994 0 0 1 
1 0 -139.69999999999999 1 0 
1 0 38.099999999999994 1 0 
1 0 0 0 -1 
1 38.099999999999994 0 0 1 
1 0 0 0 1 
1 0 0 1 0 
1 2070.0999999999999 0 0 1 
1 0 0 1 0 
1 0 0 0 1 
1 0 139.69999999999999 1 0 
1 2070.0999999999999 0 0 1 
1 0 139.69999999999999 1 0 
1 0 0 1 0 
1 0 0 1 0 
1 285.75 0 0 -1 
1 0 0 0 1 
1 0 -139.69999999999999 1 0 
1 0 0 1 0 
1 0 0 0 -1 
1 0 0 0 1 
1 0 0 1 0 
1 0 1905 1 0 
1 285.75 0 0 -1 
1 1905 0 0 1 
1 0 -139.69999999999999 1 0 
1 0 1905 1 0 
1 0 0 0 -1 
1 1905 0 0 1 
1 0 0 0 1 
1 0 0 1 0 
1 285.75 0 0 1 
1 0 0 1 0 
1 0 0 0 1 
1 0 139.69999999999999 1 0 
1 285.75 0 0 1 
1 0 139.69999999999999 1 0 
1 0 0 1 0 
1 0 0 1 0 
1 6.3499999999999091 0 0 -1 
1 0 0 0 1 
1 0 -139.69999999999999 1 0 
1 0 0 1 0 
1 0 0 0 -1 
1 0 0 0 1 
1 0 0 1 0 
1 0 38.099999999999994 1 0 
1 6.3499999999999091 0 0 -1 
1 38.099999999999994 0 0 1 
1 0 -139.69999999999999 1 0 
1 0 38.099999999999994 1 0 
1 0 0 0 -1 
1 38.099999999999994 0 0 1 
1 0 0 0 1 
1 0 0 1 0 
1 6.3499999999999091 0 0 1 
1 0 0 1 0 
1 0 0 0 1 
1 0 139.69999999999999 1 0 
1 6.3499999999999091 0 0 1 
1 0 139.69999999999999 1 0 
1 0 0 1 0 
1 0 0 1 0 
1 6.3499999999999091 0 0 -1 
1 0 0 0 1 
1 0 -139.69999999999999 1 0 
1 0 0 1 0 
1 0 0 0 -1 
1 0 0 0 1 
1 0 0 1 0 
1 0 38.099999999999994 1 0 
1 6.3499999999999091 0 0 -1 
1 38.099999999999994 0 0 1 
1 0 -139.69999999999999 1 0 
1 0 38.099999999999994 1 0 
1 0 0 0 -1 
1 38.099999999999994 0 0 1 
1 0 0 0 1 
1 0 0 1 0 
1 6.3499999999999091 0 0 1 
1 0 0 1 0 
1 0 0 0 1 
1 0 139.69999999999999 1 0 
1 6.3499999999999091 0 0 1 
1 0 139.69999999999999 1 0 
1 0 0 1 0 
1 0 0 1 0 
1 6.3499999999999091 0 0 -1 
1 0 0 0 1 
1 0 -139.69999999999999 1 0 
1 0 0 1 0 
1 0 0 0 -1 
1 0 0 0 1 
1 0 0 1 0 
1 0 38.099999999999994 1 0 
1 6.3499999999999091 0 0 -1 
1 38.099999999999994 0 0 1 
1 0 -139.69999999999999 1 0 
1 0 38.099999999999994 1 0 
1 0 0 0 -1 
1 38.099999999999994 0 0 1 
1 0 0 0 1 
1 0 0 1 0 
1 6.3499999999999091 0 0 1 
1 0 0 1 0 
1 0 0 0 1 
1 0 139.69999999999999 1 0 
1 6.3499999999999091 0 0 1 
1 0 139.69999999999999 1 0 
1 0 0 1 0 
1 0 0 1 0 
1 6.3499999999999091 0 0 -1 
1 0 0 0 1 
1 0 -139.69999999999999 1 0 
1 0 0 1 0 
1 0 0 0 -1 
1 0 0 0 1 
1 0 0 1 0 
1 0 38.099999999999994 1 0 
1 6.3499999999999091 0 0 -1 
1 38.099999999999994 0 0 1 
1 0 -139.69999999999999 1 0 
1 0 38.099999999999994 1 0 
1 0 0 0 -1 
1 38.099999999999994 0 0 1 
1 0 0 0 1 
1 0 0 1 0 
1 6.3499999999999091 0 0 1 
1 0 0 1 0 
1 0 0 0 1 
1 0 139.69999999999999 1 0 
1 6.3499999999999091 0 0 1 
1 0 139.69999999999999 1 0 
1 0 0 1 0 
1 0 0 1 0 
1 6.3499999999999091 0 0 -1 
1 0 0 0 1 
1 0 -139.69999999999999 1 0 
1 0 0 1 0 
1 0 0 0 -1 
1 0 0 0 1 
1 0 0 1 0 
1 0 38.099999999999994 1 0 
1 6.3499999999999091 0 0 -1 
1 38.099999999999994 0 0 1 
1 0 -139.69999999999999 1 0 
1 0 38.099999999999994 1 0 
1 0 0 0 -1 
1 38.099999999999994 0 0 1 
1 0 0 0 1 
1 0 0 1 0 
1 6.3499999999999091 0 0 1 
1 0 0 1 0 
1 0 0 0 1 
1 0 139.69999999999999 1 0 
1 6.3499999999999091 0 0 1 
1 0 139.69999999999999 1 0 
1 0 0 1 0 
1 0 0 1 0 
1 2438.3999999999996 0 0 -1 
1 0 0 0 1 
1 0 -11.112499999999999 1 0 
1 0 0 1 0 
1 0 0 0 -1 
1 0 0 0 1 
1 0 0 0 1 
1 0 0 1 0 
8 -2108.1999999999998 0
1 0 304.79999999999984 -1 0 
8 -2108.1999999999998 0
1 0 -1 -1 -0 
8 152.39999999999992 1981.1999999999998
1 2108.1999999999998 152.39999999999992 0 1 
8 152.39999999999992 1981.1999999999998
1 -152.39999999999992 1 1 0 
8 -2108.1999999999998 0
1 0 2133.5999999999999 -1 0 
8 -2108.1999999999998 0
1 0 -1 -1 -0 
1 0 0 0 1 
1 0 0 1 0 
1 0 2438.3999999999996 1 0 
1 0 0 1 0 
1 2438.3999999999996 0 0 1 
1 0 0 1 0 
1 0 11.112499999999999 1 0 
1 2438.3999999999996 0 0 1 
1 2438.3999999999996 0 0 1 
1 2438.3999999999996 0 0 -1 
1 0 0 0 1 
1 0 11.112499999999999 1 0 
8 -2108.1999999999998 0
1 0 304.79999999999984 -1 0 
8 -2108.1999999999998 0
1 0 -12.112499999999999 -1 -0 
8 152.39999999999992 1981.1999999999998
1 2108.1999999999998 152.39999999999992 0 1 
8 152.39999999999992 1981.1999999999998
1 -152.39999999999992 12.112499999999999 1 0 
8 -2108.1999999999998 0
1 0 2133.5999999999999 -1 0 
8 -2108.1999999999998 0
1 0 -12.112499999999999 -1 -0 
1 0 0 0 1 
1 0 11.112499999999999 1 0 
1 0 2438.3999999999996 1 0 
1 0 -11.112499999999999 1 0 
1 304.79999999999984 -1 0 1 
1 0 0 0 -1 
1 2108.1999999999998 0 0 -1 
1 0 0 0 1 
1 1828.8 0 0 1 
1 2108.1999999999998 0 0 -1 
1 0 0 0 -1 
1 2133.5999999999999 -1 0 1 
1 2438.3999999999996 0 0 1 
1 0 0 0 -1 
Curves 180
1 0 0 0 0 0 1 
1 0 0 38.099999999999994 -0 1 0 
1 0 139.69999999999999 0 0 0 1 
1 0 0 0 -0 1 0 
1 304.79999999999984 0 0 0 0 1 
1 304.79999999999984 0 38.099999999999994 -0 1 0 
1 304.79999999999984 139.69999999999999 0 0 0 1 
1 304.79999999999984 0 0 -0 1 0 
1 0 0 0 1 0 -0 
1 0 0 38.099999999999994 1 0 -0 
1 0 139.69999999999999 0 1 0 -0 
1 0 139.69999999999999 38.099999999999994 1 0 -0 
1 0 0 0 0 0 1 
1 0 0 38.099999999999994 -0 1 0 
1 0 139.69999999999999 0 0 0 1 
1 0 0 0 -0 1 0 
1 304.79999999999973 0 0 0 0 1 
1 304.79999999999973 0 38.099999999999994 -0 1 0 
1 304.79999999999973 139.69999999999999 0 0 0 1 
1 304.79999999999973 0 0 -0 1 0 
1 0 0 0 1 0 -0 
1 0 0 38.099999999999994 1 0 -0 
1 0 139.69999999999999 0 1 0 -0 
1 0 139.69999999999999 38.099999999999994 1 0 -0 
1 0 0 0 0 0 1 
1 0 0 38.099999999999994 -0 1 0 
1 0 139.69999999999999 0 0 0 1 
1 0 0 0 -0 1 0 
1 2438.3999999999996 0 0 0 0 1 
1 2438.3999999999996 0 38.099999999999994 -0 1 0 
1 2438.3999999999996 139.69999999999999 0 0 0 1 
1 2438.3999999999996 0 0 -0 1 0 
1 0 0 0 1 0 -0 
1 0 0 38.099999999999994 1 0 -0 
1 0 139.69999999999999 0 1 0 -0 
1 0 139.69999999999999 38.099999999999994 1 0 -0 
1 0 0 0 0 0 1 
1 0 0 2362.1999999999998 -0 1 0 
1 0 139.69999999999999 0 0 0 1 
1 0 0 0 -0 1 0 
1 38.099999999999994 0 0 0 0 1 
1 38.099999999999994 0 2362.1999999999998 -0 1 0 
1 38.099999999999994 139.69999999999999 0 0 0 1 
1 38.099999999999994 0 0 -0 1 0 
1 0 0 0 1 0 -0 
1 0 0 2362.1999999999998 1 0 -0 
1 0 139.69999999999999 0 1 0 -0 
1 0 139.69999999999999 2362.1999999999998 1 0 -0 
1 0 0 0 0 0 1 
1 0 0 2362.1999999999998 -0 1 0 
1 0 139.69999999999999 0 0 0 1 
1 0 0 0 -0 1 0 
1 38.099999999999994 0 0 0 0 1 
1 38.099999999999994 0 2362.1999999999998 -0 1 0 
1 38.099999999999994 139.69999999999999 0 0 0 1 
1 38.099999999999994 0 0 -0 1 0 
1 0 0 0 1 0 -0 
1 0 0 2362.1999999999998 1 0 -0 
1 0 139.69999999999999 0 1 0 -0 
1 0 139.69999999999999 2362.1999999999998 1 0 -0 
1 0 0 0 0 0 1 
1 0 0 2070.0999999999999 -0 1 0 
1 0 139.69999999999999 0 0 0 1 
1 0 0 0 -0 1 0 
1 38.099999999999994 0 0 0 0 1 
1 38.099999999999994 0 2070.0999999999999 -0 1 0 
1 38.099999999999994 139.69999999999999 0 0 0 1 
1 38.099999999999994 0 0 -0 1 0 
1 0 0 0 1 0 -0 
1 0 0 2070.0999999999999 1 0 -0 
1 0 139.69999999999999 0 1 0 -0 
1 0 139.69999999999999 2070.0999999999999 1 0 -0 
1 0 0 0 0 0 1 
1 0 0 2070.0999999999999 -0 1 0 
1 0 139.69999999999999 0 0 0 1 
1 0 0 0 -0 1 0 
1 38.099999999999994 0 0 0 0 1 
1 38.099999999999994 0 2070.0999999999999 -0 1 0 
1 38.099999999999994 139.69999999999999 0 0 0 1 
1 38.099999999999994 0 0 -0 1 0 
1 0 0 0 1 0 -0 
1 0 0 2070.0999999999999 1 0 -0 
1 0 139.69999999999999 0 1 0 -0 
1 0 139.69999999999999 2070.0999999999999 1 0 -0 
1 0 0 0 0 0 1 
1 0 0 285.75 -0 1 0 
1 0 139.69999999999999 0 0 0 1 
1 0 0 0 -0 1 0 
1 1905 0 0 0 0 1 
1 1905 0 285.75 -0 1 0 
1 1905 139.69999999999999 0 0 0 1 
1 1905 0 0 -0 1 0 
1 0 0 0 1 0 -0 
1 0 0 285.75 1 0 -0 
1 0 139.69999999999999 0 1 0 -0 
1 0 139.69999999999999 285.75 1 0 -0 
1 0 0 0 0 0 1 
1 0 0 6.3499999999999091 -0 1 0 
1 0 139.69999999999999 0 0 0 1 
1 0 0 0 -0 1 0 
1 38.099999999999994 0 0 0 0 1 
1 38.099999999999994 0 6.3499999999999091 -0 1 0 
1 38.099999999999994 139.69999999999999 0 0 0 1 
1 38.099999999999994 0 0 -0 1 0 
1 0 0 0 1 0 -0 
1 0 0 6.3499999999999091 1 0 -0 
1 0 139.69999999999999 0 1 0 -0 
1 0 139.69999999999999 6.3499999999999091 1 0 -0 
1 0 0 0 0 0 1 
1 0 0 6.3499999999999091 -0 1 0 
1 0 139.69999999999999 0 0 0 1 
1 0 0 0 -0 1 0 
1 38.099999999999994 0 0 0 0 1 
1 38.099999999999994 0 6.3499999999999091 -0 1 0 
1 38.099999999999994 139.69999999999999 0 0 0 1 
1 38.099999999999994 0 0 -0 1 0 
1 0 0 0 1 0 -0 
1 0 0 6.3499999999999091 1 0 -0 
1 0 139.69999999999999 0 1 0 -0 
1 0 139.69999999999999 6.3499999999999091 1 0 -0 
1 0 0 0 0 0 1 
1 0 0 6.3499999999999091 -0 1 0 
1 0 139.69999999999999 0 0 0 1 
1 0 0 0 -0 1 0 
1 38.099999999999994 0 0 0 0 1 
1 38.099999999999994 0 6.3499999999999091 -0 1 0 
1 38.099999999999994 139.69999999999999 0 0 0 1 
1 38.099999999999994 0 0 -0 1 0 
1 0 0 0 1 0 -0 
1 0 0 6.3499999999999091 1 0 -0 
1 0 139.69999999999999 0 1 0 -0 
1 0 139.69999999999999 6.3499999999999091 1 0 -0 
1 0 0 0 0 0 1 
1 0 0 6.3499999999999091 -0 1 0 
1 0 139.69999999999999 0 0 0 1 
1 0 0 0 -0 1 0 
1 38.099999999999994 0 0 0 0 1 
1 38.099999999999994 0 6.3499999999999091 -0 1 0 
1 38.099999999999994 139.69999999999999 0 0 0 1 
1 38.099999999999994 0 0 -0 1 0 
1 0 0 0 1 0 -0 
1 0 0 6.3499999999999091 1 0 -0 
1 0 139.69999999999999 0 1 0 -0 
1 0 139.69999999999999 6.3499999999999091 1 0 -0 
1 0 0 0 0 0 1 
1 0 0 6.3499999999999091 -0 1 0 
1 0 139.69999999999999 0 0 0 1 
1 0 0 0 -0 1 0 
1 38.099999999999994 0 0 0 0 1 
1 38.099999999999994 0 6.3499999999999091 -0 1 0 
1 38.099999999999994 139.69999999999999 0 0 0 1 
1 38.099999999999994 0 0 -0 1 0 
1 0 0 0 1 0 -0 
1 0 0 6.3499999999999091 1 0 -0 
1 0 139.69999999999999 0 1 0 -0 
1 0 139.69999999999999 6.3499999999999091 1 0 -0 
1 0 0 0 0 0 1 
1 0 0 2438.3999999999996 -0 1 0 
1 0 11.112499999999999 0 0 0 1 
1 0 0 0 -0 1 0 
1 0 0 0 1 0 -0 
1 304.79999999999984 -11.112499999999999 0 -0 0 -1 
1 152.39999999999992 -11.112499999999999 2108.1999999999998 1 0 -0 
1 2133.5999999999999 -11.112499999999999 0 -0 0 -1 
1 0 0 0 1 0 -0 
1 2438.3999999999996 0 0 0 0 1 
1 0 0 2438.3999999999996 1 0 -0 
1 0 11.112499999999999 2438.3999999999996 1 0 -0 
1 2438.3999999999996 0 2438.3999999999996 -0 1 0 
1 0 11.112499999999999 0 1 0 -0 
1 304.79999999999984 0 0 -0 0 -1 
1 152.39999999999992 0 2108.1999999999998 1 0 -0 
1 2133.5999999999999 0 0 -0 0 -1 
1 0 11.112499999999999 0 1 0 -0 
1 2438.3999999999996 11.112499999999999 0 0 0 1 
1 0 0 0 -0 1 0 
1 0 0 2108.1999999999998 -0 1 0 
1 1828.8 0 2108.1999999999998 -0 1 0 
1 1828.8 0 0 -0 1 0 
1 2438.3999999999996 0 0 -0 1 0 
Polygon3D 0
PolygonOnTriangulations 0
Surfaces 88
1 0 0 0 1 0 -0 0 0 1 0 -1 0 
1 0 0 0 -0 1 0 0 0 1 1 0 -0 
1 0 0 38.099999999999994 0 0 1 1 0 -0 -0 1 0 
1 0 139.69999999999999 0 -0 1 0 0 0 1 1 0 -0 
1 0 0 0 0 0 1 1 0 -0 -0 1 0 
1 304.79999999999984 0 0 1 0 -0 0 0 1 0 -1 0 
1 0 0 0 1 0 -0 0 0 1 0 -1 0 
1 0 0 0 -0 1 0 0 0 1 1 0 -0 
1 0 0 38.099999999999994 0 0 1 1 0 -0 -0 1 0 
1 0 139.69999999999999 0 -0 1 0 0 0 1 1 0 -0 
1 0 0 0 0 0 1 1 0 -0 -0 1 0 
1 304.79999999999973 0 0 1 0 -0 0 0 1 0 -1 0 
1 0 0 0 1 0 -0 0 0 1 0 -1 0 
1 0 0 0 -0 1 0 0 0 1 1 0 -0 
1 0 0 38.099999999999994 0 0 1 1 0 -0 -0 1 0 
1 0 139.69999999999999 0 -0 1 0 0 0 1 1 0 -0 
1 0 0 0 0 0 1 1 0 -0 -0 1 0 
1 2438.3999999999996 0 0 1 0 -0 0 0 1 0 -1 0 
1 0 0 0 1 0 -0 0 0 1 0 -1 0 
1 0 0 0 -0 1 0 0 0 1 1 0 -0 
1 0 0 2362.1999999999998 0 0 1 1 0 -0 -0 1 0 
1 0 139.69999999999999 0 -0 1 0 0 0 1 1 0 -0 
1 0 0 0 0 0 1 1 0 -0 -0 1 0 
1 38.099999999999994 0 0 1 0 -0 0 0 1 0 -1 0 
1 0 0 0 1 0 -0 0 0 1 0 -1 0 
1 0 0 0 -0 1 0 0 0 1 1 0 -0 
1 0 0 2362.1999999999998 0 0 1 1 0 -0 -0 1 0 
1 0 139.69999999999999 0 -0 1 0 0 0 1 1 0 -0 
1 0 0 0 0 0 1 1 0 -0 -0 1 0 
1 38.099999999999994 0 0 1 0 -0 0 0 1 0 -1 0 
1 0 0 0 1 0 -0 0 0 1 0 -1 0 
1 0 0 0 -0 1 0 0 0 1 1 0 -0 
1 0 0 2070.0999999999999 0 0 1 1 0 -0 -0 1 0 
1 0 139.69999999999999 0 -0 1 0 0 0 1 1 0 -0 
1 0 0 0 0 0 1 1 0 -0 -0 1 0 
1 38.099999999999994 0 0 1 0 -0 0 0 1 0 -1 0 
1 0 0 0 1 0 -0 0 0 1 0 -1 0 
1 0 0 0 -0 1 0 0 0 1 1 0 -0 
1 0 0 2070.0999999999999 0 0 1 1 0 -0 -0 1 0 
1 0 139.69999999999999 0 -0 1 0 0 0 1 1 0 -0 
1 0 0 0 0 0 1 1 0 -0 -0 1 0 
1 38.099999999999994 0 0 1 0 -0 0 0 1 0 -1 0 
1 0 0 0 1 0 -0 0 0 1 0 -1 0 
1 0 0 0 -0 1 0 0 0 1 1 0 -0 
1 0 0 285.75 0 0 1 1 0 -0 -0 1 0 
1 0 139.69999999999999 0 -0 1 0 0 0 1 1 0 -0 
1 0 0 0 0 0 1 1 0 -0 -0 1 0 
1 1905 0 0 1 0 -0 0 0 1 0 -1 0 
1 0 0 0 1 0 -0 0 0 1 0 -1 0 
1 0 0 0 -0 1 0 0 0 1 1 0 -0 
1 0 0 6.3499999999999091 0 0 1 1 0 -0 -0 1 0 
1 0 139.69999999999999 0 -0 1 0 0 0 1 1 0 -0 
1 0 0 0 0 0 1 1 0 -0 -0 1 0 
1 38.099999999999994 0 0 1 0 -0 0 0 1 0 -1 0 
1 0 0 0 1 0 -0 0 0 1 0 -1 0 
1 0 0 0 -0 1 0 0 0 1 1 0 -0 
1 0 0 6.3499999999999091 0 0 1 1 0 -0 -0 1 0 
1 0 139.69999999999999 0 -0 1 0 0 0 1 1 0 -0 
1 0 0 0 0 0 1 1 0 -0 -0 1 0 
1 38.099999999999994 0 0 1 0 -0 0 0 1 0 -1 0 
1 0 0 0 1 0 -0 0 0 1 0 -1 0 
1 0 0 0 -0 1 0 0 0 1 1 0 -0 
1 0 0 6.3499999999999091 0 0 1 1 0 -0 -0 1 0 
1 0 139.69999999999999 0 -0 1 0 0 0 1 1 0 -0 
1 0 0 0 0 0 1 1 0 -0 -0 1 0 
1 38.099999999999994 0 0 1 0 -0 0 0 1 0 -1 0 
1 0 0 0 1 0 -0 0 0 1 0 -1 0 
1 0 0 0 -0 1 0 0 0 1 1 0 -0 
1 0 0 6.3499999999999091 0 0 1 1 0 -0 -0 1 0 
1 0 139.69999999999999 0 -0 1 0 0 0 1 1 0 -0 
1 0 0 0 0 0 1 1 0 -0 -0 1 0 
1 38.099999999999994 0 0 1 0 -0 0 0 1 0 -1 0 
1 0 0 0 1 0 -0 0 0 1 0 -1 0 
1 0 0 0 -0 1 0 0 0 1 1 0 -0 
1 0 0 6.3499999999999091 0 0 1 1 0 -0 -0 1 0 
1 0 139.69999999999999 0 -0 1 0 0 0 1 1 0 -0 
1 0 0 0 0 0 1 1 0 -0 -0 1 0 
1 38.099999999999994 0 0 1 0 -0 0 0 1 0 -1 0 
1 0 0 0 1 0 -0 0 0 1 0 -1 0 
1 0 0 0 -0 1 0 0 0 1 1 0 -0 
1 0 0 2438.3999999999996 0 0 1 1 0 -0 -0 1 0 
1 0 11.112499999999999 0 -0 1 0 0 0 1 1 0 -0 
1 0 0 0 0 0 1 1 0 -0 -0 1 0 
1 0 0 0 1 0 -0 0 0 1 0 -1 0 
1 0 0 2108.1999999999998 0 0 1 1 0 -0 -0 1 0 
1 1828.8 0 0 1 0 -0 0 0 1 0 -1 0 
1 0 0 0 0 0 1 1 0 -0 -0 1 0 
1 2438.3999999999996 0 0 1 0 -0 0 0 1 0 -1 0 
Triangulations 0

TShapes 506
Ve
1e-07
0 0 38.1
0 0

0101101
*
Ve
1e-07
0 0 0
0 0

0101101
*
Ed
 1e-07 1 1 0
1  1 0 0 38.1
2  1 1 0 0 38.1
2  2 2 0 0 38.1
0

0101000
-506 6 +505 6 *
Ve
1e-07
0 139.7 38.1
0 0

0101101
*
Ed
 1e-07 1 1 0
1  2 0 0 139.7
2  3 1 0 0 139.7
2  4 3 0 0 139.7
0

0101000
-503 6 +506 6 *
Ve
1e-07
0 139.7 0
0 0

0101101
*
Ed
 1e-07 1 1 0
1  3 0 0 38.1
2  5 1 0 0 38.1
2  6 4 0 0 38.1
0

0101000
-503 6 +501 6 *
Ed
 1e-07 1 1 0
1  4 0 0 139.7
2  7 1 0 0 139.7
2  8 5 0 0 139.7
0

0101000
-501 6 +505 6 *
Wi

0101100
-504 0 -502 0 +500 0 +499 0 *
Fa
0  1e-07 1 0

0111000
+498 0 *
Ve
1e-07
304.8 0 38.1
0 0

0101101
*
Ve
1e-07
304.8 0 0
0 0

0101101
*
Ed
 1e-07 1 1 0
1  5 0 0 38.1
2  9 6 0 0 38.1
2  10 2 0 0 38.1
0

0101000
-496 6 +495 6 *
Ve
1e-07
304.8 139.7 38.1
0 0

0101101
*
Ed
 1e-07 1 1 0
1  6 0 0 139.7
2  11 6 0 0 139.7
2  12 3 0 0 139.7
0

0101000
-493 6 +496 6 *
Ve
1e-07
304.8 139.7 0
0 0

0101101
*
Ed
 1e-07 1 1 0
1  7 0 0 38.1
2  13 6 0 0 38.1
2  14 4 0 0 38.1
0

0101000
-493 6 +491 6 *
Ed
 1e-07 1 1 0
1  8 0 0 139.7
2  15 6 0 0 139.7
2  16 5 0 0 139.7
0

0101000
-491 6 +495 6 *
Wi

0101100
-494 0 -492 0 +490 0 +489 0 *
Fa
0  1e-07 6 0

0111000
+488 0 *
Ed
 1e-07 1 1 0
1  9 0 0 304.8
2  17 2 0 0 304.8
2  18 5 0 0 304.8
0

0101000
-495 6 +505 6 *
Ed
 1e-07 1 1 0
1  10 0 0 304.8
2  19 2 0 0 304.8
2  20 3 0 0 304.8
0

0101000
-496 6 +506 6 *
Wi

0101100
-486 0 -494 0 +485 0 +504 0 *
Fa
0  1e-07 2 0

0111000
+484 0 *
Ed
 1e-07 1 1 0
1  11 0 0 304.8
2  21 4 0 0 304.8
2  22 5 0 0 304.8
0

0101000
-491 6 +501 6 *
Ed
 1e-07 1 1 0
1  12 0 0 304.8
2  23 4 0 0 304.8
2  24 3 0 0 304.8
0

0101000
-493 6 +503 6 *
Wi

0101100
-482 0 -490 0 +481 0 +500 0 *
Fa
0  1e-07 4 0

0111000
+480 0 *
Wi

0101100
-499 0 -482 0 +489 0 +486 0 *
Fa
0  1e-07 5 0

0111000
+478 0 *
Wi

0101100
-502 0 -481 0 +492 0 +485 0 *
Fa
0  1e-07 3 0

0111000
+476 0 *
Sh

0101100
-497 0 +487 0 -483 0 +479 0 -477 0 +475 0 *
So

0100000
+474 0 *
Ve
1e-07
2133.6 0 38.1
0 0

0101101
*
Ve
1e-07
2133.6 0 0
0 0

0101101
*
Ed
 1e-07 1 1 0
1  13 0 0 38.1
2  25 7 0 0 38.1
2  26 8 0 0 38.1
0

0101000
-472 8 +471 8 *
Ve
1e-07
2133.6 139.7 38.1
0 0

0101101
*
Ed
 1e-07 1 1 0
1  14 0 0 139.7
2  27 7 0 0 139.7
2  28 9 0 0 139.7
0

0101000
-469 8 +472 8 *
Ve
1e-07
2133.6 139.7 0
0 0

0101101
*
Ed
 1e-07 1 1 0
1  15 0 0 38.1
2  29 7 0 0 38.1
2  30 10 0 0 38.1
0

0101000
-469 8 +467 8 *
Ed
 1e-07 1 1 0
1  16 0 0 139.7
2  31 7 0 0 139.7
2  32 11 0 0 139.7
0

0101000
-467 8 +471 8 *
Wi

0101100
-470 0 -468 0 +466 0 +465 0 *
Fa
0  1e-07 7 0

0111000
+464 0 *
Ve
1e-07
2438.4 0 38.1
0 0

0101101
*
Ve
1e-07
2438.4 0 0
0 0

0101101
*
Ed
 1e-07 1 1 0
1  17 0 0 38.1
2  33 12 0 0 38.1
2  34 8 0 0 38.1
0

0101000
-462 8 +461 8 *
Ve
1e-07
2438.4 139.7 38.1
0 0

0101101
*
Ed
 1e-07 1 1 0
1  18 0 0 139.7
2  35 12 0 0 139.7
2  36 9 0 0 139.7
0

0101000
-459 8 +462 8 *
Ve
1e-07
2438.4 139.7 0
0 0

0101101
*
Ed
 1e-07 1 1 0
1  19 0 0 38.1
2  37 12 0 0 38.1
2  38 10 0 0 38.1
0

0101000
-459 8 +457 8 *
Ed
 1e-07 1 1 0
1  20 0 0 139.7
2  39 12 0 0 139.7
2  40 11 0 0 139.7
0

0101000
-457 8 +461 8 *
Wi

0101100
-460 0 -458 0 +456 0 +455 0 *
Fa
0  1e-07 12 0

0111000
+454 0 *
Ed
 1e-07 1 1 0
1  21 0 0 304.8
2  41 8 0 0 304.8
2  42 11 0 0 304.8
0

0101000
-461 8 +471 8 *
Ed
 1e-07 1 1 0
1  22 0 0 304.8
2  43 8 0 0 304.8
2  44 9 0 0 304.8
0

0101000
-462 8 +472 8 *
Wi

0101100
-452 0 -460 0 +451 0 +470 0 *
Fa
0  1e-07 8 0

0111000
+450 0 *
Ed
 1e-07 1 1 0
1  23 0 0 304.8
2  45 10 0 0 304.8
2  46 11 0 0 304.8
0

0101000
-457 8 +467 8 *
Ed
 1e-07 1 1 0
1  24 0 0 304.8
2  47 10 0 0 304.8
2  48 9 0 0 304.8
0

0101000
-459 8 +469 8 *
Wi

0101100
-448 0 -456 0 +447 0 +466 0 *
Fa
0  1e-07 10 0

0111000
+446 0 *
Wi

0101100
-465 0 -448 0 +455 0 +452 0 *
Fa
0  1e-07 11 0

0111000
+444 0 *
Wi

0101100
-468 0 -447 0 +458 0 +451 0 *
Fa
0  1e-07 9 0

0111000
+442 0 *
Sh

0101100
-463 0 +453 0 -449 0 +445 0 -443 0 +441 0 *
So

0100000
+440 0 *
Ve
1e-07
0 0 2438.4
0 0

0101101
*
Ve
1e-07
0 0 2400.3
0 0

0101101
*
Ed
 1e-07 1 1 0
1  25 0 0 38.1
2  49 13 0 0 38.1
2  50 14 0 0 38.1
0

0101000
-438 10 +437 10 *
Ve
1e-07
0 139.7 2438.4
0 0

0101101
*
Ed
 1e-07 1 1 0
1  26 0 0 139.7
2  51 13 0 0 139.7
2  52 15 0 0 139.7
0

0101000
-435 10 +438 10 *
Ve
1e-07
0 139.7 2400.3
0 0

0101101
*
Ed
 1e-07 1 1 0
1  27 0 0 38.1
2  53 13 0 0 38.1
2  54 16 0 0 38.1
0

0101000
-435 10 +433 10 *
Ed
 1e-07 1 1 0
1  28 0 0 139.7
2  55 13 0 0 139.7
2  56 17 0 0 139.7
0

0101000
-433 10 +437 10 *
Wi

0101100
-436 0 -434 0 +432 0 +431 0 *
Fa
0  1e-07 13 0

0111000
+430 0 *
Ve
1e-07
2438.4 0 2438.4
0 0

0101101
*
Ve
1e-07
2438.4 0 2400.3
0 0

0101101
*
Ed
 1e-07 1 1 0
1  29 0 0 38.1
2  57 18 0 0 38.1
2  58 14 0 0 38.1
0

0101000
-428 10 +427 10 *
Ve
1e-07
2438.4 139.7 2438.4
0 0

0101101
*
Ed
 1e-07 1 1 0
1  30 0 0 139.7
2  59 18 0 0 139.7
2  60 15 0 0 139.7
0

0101000
-425 10 +428 10 *
Ve
1e-07
2438.4 139.7 2400.3
0 0

0101101
*
Ed
 1e-07 1 1 0
1  31 0 0 38.1
2  61 18 0 0 38.1
2  62 16 0 0 38.1
0

0101000
-425 10 +423 10 *
Ed
 1e-07 1 1 0
1  32 0 0 139.7
2  63 18 0 0 139.7
2  64 17 0 0 139.7
0

0101000
-423 10 +427 10 *
Wi

0101100
-426 0 -424 0 +422 0 +421 0 *
Fa
0  1e-07 18 0

0111000
+420 0 *
Ed
 1e-07 1 1 0
1  33 0 0 2438.4
2  65 14 0 0 2438.4
2  66 17 0 0 2438.4
0

0101000
-427 10 +437 10 *
Ed
 1e-07 1 1 0
1  34 0 0 2438.4
2  67 14 0 0 2438.4
2  68 15 0 0 2438.4
0

0101000
-428 10 +438 10 *
Wi

0101100
-418 0 -426 0 +417 0 +436 0 *
Fa
0  1e-07 14 0

0111000
+416 0 *
Ed
 1e-07 1 1 0
1  35 0 0 2438.4
2  69 16 0 0 2438.4
2  70 17 0 0 2438.4
0

0101000
-423 10 +433 10 *
Ed
 1e-07 1 1 0
1  36 0 0 2438.4
2  71 16 0 0 2438.4
2  72 15 0 0 2438.4
0

0101000
-425 10 +435 10 *
Wi

0101100
-414 0 -422 0 +413 0 +432 0 *
Fa
0  1e-07 16 0

0111000
+412 0 *
Wi

0101100
-431 0 -414 0 +421 0 +418 0 *
Fa
0  1e-07 17 0

0111000
+410 0 *
Wi

0101100
-434 0 -413 0 +424 0 +417 0 *
Fa
0  1e-07 15 0

0111000
+408 0 *
Sh

0101100
-429 0 +419 0 -415 0 +411 0 -409 0 +407 0 *
So

0100000
+406 0 *
Ve
1e-07
0 0 2400.3
0 0

0101101
*
Ve
1e-07
0 0 38.1
0 0

0101101
*
Ed
 1e-07 1 1 0
1  37 0 0 2362.2
2  73 19 0 0 2362.2
2  74 20 0 0 2362.2
0

0101000
-404 12 +403 12 *
Ve
1e-07
0 139.7 2400.3
0 0

0101101
*
Ed
 1e-07 1 1 0
1  38 0 0 139.7
2  75 19 0 0 139.7
2  76 21 0 0 139.7
0

0101000
-401 12 +404 12 *
Ve
1e-07
0 139.7 38.1
0 0

0101101
*
Ed
 1e-07 1 1 0
1  39 0 0 2362.2
2  77 19 0 0 2362.2
2  78 22 0 0 2362.2
0

0101000
-401 12 +399 12 *
Ed
 1e-07 1 1 0
1  40 0 0 139.7
2  79 19 0 0 139.7
2  80 23 0 0 139.7
0

0101000
-399 12 +403 12 *
Wi

0101100
-402 0 -400 0 +398 0 +397 0 *
Fa
0  1e-07 19 0

0111000
+396 0 *
Ve
1e-07
38.1 0 2400.3
0 0

0101101
*
Ve
1e-07
38.1 0 38.1
0 0

0101101
*
Ed
 1e-07 1 1 0
1  41 0 0 2362.2
2  81 24 0 0 2362.2
2  82 20 0 0 2362.2
0

0101000
-394 12 +393 12 *
Ve
1e-07
38.1 139.7 2400.3
0 0

0101101
*
Ed
 1e-07 1 1 0
1  42 0 0 139.7
2  83 24 0 0 139.7
2  84 21 0 0 139.7
0

0101000
-391 12 +394 12 *
Ve
1e-07
38.1 139.7 38.1
0 0

0101101
*
Ed
 1e-07 1 1 0
1  43 0 0 2362.2
2  85 24 0 0 2362.2
2  86 22 0 0 2362.2
0

0101000
-391 12 +389 12 *
Ed
 1e-07 1 1 0
1  44 0 0 139.7
2  87 24 0 0 139.7
2  88 23 0 0 139.7
0

0101000
-389 12 +393 12 *
Wi

0101100
-392 0 -390 0 +388 0 +387 0 *
Fa
0  1e-07 24 0

0111000
+386 0 *
Ed
 1e-07 1 1 0
1  45 0 0 38.1
2  89 20 0 0 38.1
2  90 23 0 0 38.1
0

0101000
-393 12 +403 12 *
Ed
 1e-07 1 1 0
1  46 0 0 38.1
2  91 20 0 0 38.1
2  92 21 0 0 38.1
0

0101000
-394 12 +404 12 *
Wi

0101100
-384 0 -392 0 +383 0 +402 0 *
Fa
0  1e-07 20 0

0111000
+382 0 *
Ed
 1e-07 1 1 0
1  47 0 0 38.1
2  93 22 0 0 38.1
2  94 23 0 0 38.1
0

0101000
-389 12 +399 12 *
Ed
 1e-07 1 1 0
1  48 0 0 38.1
2  95 22 0 0 38.1
2  96 21 0 0 38.1
0

0101000
-391 12 +401 12 *
Wi

0101100
-380 0 -388 0 +379 0 +398 0 *
Fa
0  1e-07 22 0

0111000
+378 0 *
Wi

0101100
-397 0 -380 0 +387 0 +384 0 *
Fa
0  1e-07 23 0

0111000
+376 0 *
Wi

0101100
-400 0 -379 0 +390 0 +383 0 *
Fa
0  1e-07 21 0

0111000
+374 0 *
Sh

0101100
-395 0 +385 0 -381 0 +377 0 -375 0 +373 0 *
So

0100000
+372 0 *
Ve
1e-07
2400.3 0 2400.3
0 0

0101101
*
Ve
1e-07
2400.3 0 38.1
0 0

0101101
*
Ed
 1e-07 1 1 0
1  49 0 0 2362.2
2  97 25 0 0 2362.2
2  98 26 0 0 2362.2
0

0101000
-370 14 +369 14 *
Ve
1e-07
2400.3 139.7 2400.3
0 0

0101101
*
Ed
 1e-07 1 1 0
1  50 0 0 139.7
2  99 25 0 0 139.7
2  100 27 0 0 139.7
0

0101000
-367 14 +370 14 *
Ve
1e-07
2400.3 139.7 38.1
0 0

0101101
*
Ed
 1e-07 1 1 0
1  51 0 0 2362.2
2  101 25 0 0 2362.2
2  102 28 0 0 2362.2
0

0101000
-367 14 +365 14 *
Ed
 1e-07 1 1 0
1  52 0 0 139.7
2  103 25 0 0 139.7
2  104 29 0 0 139.7
0

0101000
-365 14 +369 14 *
Wi

0101100
-368 0 -366 0 +364 0 +363 0 *
Fa
0  1e-07 25 0

0111000
+362 0 *
Ve
1e-07
2438.4 0 2400.3
0 0

0101101
*
Ve
1e-07
2438.4 0 38.1
0 0

0101101
*
Ed
 1e-07 1 1 0
1  53 0 0 2362.2
2  105 30 0 0 2362.2
2  106 26 0 0 2362.2
0

0101000
-360 14 +359 14 *
Ve
1e-07
2438.4 139.7 2400.3
0 0

0101101
*
Ed
 1e-07 1 1 0
1  54 0 0 139.7
2  107 30 0 0 139.7
2  108 27 0 0 139.7
0

0101000
-357 14 +360 14 *
Ve
1e-07
2438.4 139.7 38.1
0 0

0101101
*
Ed
 1e-07 1 1 0
1  55 0 0 2362.2
2  109 30 0 0 2362.2
2  110 28 0 0 2362.2
0

0101000
-357 14 +355 14 *
Ed
 1e-07 1 1 0
1  56 0 0 139.7
2  111 30 0 0 139.7
2  112 29 0 0 139.7
0

0101000
-355 14 +359 14 *
Wi

0101100
-358 0 -356 0 +354 0 +353 0 *
Fa
0  1e-07 30 0

0111000
+352 0 *
Ed
 1e-07 1 1 0
1  57 0 0 38.1
2  113 26 0 0 38.1
2  114 29 0 0 38.1
0

0101000
-359 14 +369 14 *
Ed
 1e-07 1 1 0
1  58 0 0 38.1
2  115 26 0 0 38.1
2  116 27 0 0 38.1
0

0101000
-360 14 +370 14 *
Wi

0101100
-350 0 -358 0 +349 0 +368 0 *
Fa
0  1e-07 26 0

0111000
+348 0 *
Ed
 1e-07 1 1 0
1  59 0 0 38.1
2  117 28 0 0 38.1
2  118 29 0 0 38.1
0

0101000
-355 14 +365 14 *
Ed
 1e-07 1 1 0
1  60 0 0 38.1
2  119 28 0 0 38.1
2  120 27 0 0 38.1
0

0101000
-357 14 +367 14 *
Wi

0101100
-346 0 -354 0 +345 0 +364 0 *
Fa
0  1e-07 28 0

0111000
+344 0 *
Wi

0101100
-363 0 -346 0 +353 0 +350 0 *
Fa
0  1e-07 29 0

0111000
+342 0 *
Wi

0101100
-366 0 -345 0 +356 0 +349 0 *
Fa
0  1e-07 27 0

0111000
+340 0 *
Sh

0101100
-361 0 +351 0 -347 0 +343 0 -341 0 +339 0 *
So

0100000
+338 0 *
Ve
1e-07
266.7 0 2108.2
0 0

0101101
*
Ve
1e-07
266.7 0 38.1
0 0

0101101
*
Ed
 1e-07 1 1 0
1  61 0 0 2070.1
2  121 31 0 0 2070.1
2  122 32 0 0 2070.1
0

0101000
-336 16 +335 16 *
Ve
1e-07
266.7 139.7 2108.2
0 0

0101101
*
Ed
 1e-07 1 1 0
1  62 0 0 139.7
2  123 31 0 0 139.7
2  124 33 0 0 139.7
0

0101000
-333 16 +336 16 *
Ve
1e-07
266.7 139.7 38.1
0 0

0101101
*
Ed
 1e-07 1 1 0
1  63 0 0 2070.1
2  125 31 0 0 2070.1
2  126 34 0 0 2070.1
0

0101000
-333 16 +331 16 *
Ed
 1e-07 1 1 0
1  64 0 0 139.7
2  127 31 0 0 139.7
2  128 35 0 0 139.7
0

0101000
-331 16 +335 16 *
Wi

0101100
-334 0 -332 0 +330 0 +329 0 *
Fa
0  1e-07 31 0

0111000
+328 0 *
Ve
1e-07
304.8 0 2108.2
0 0

0101101
*
Ve
1e-07
304.8 0 38.1
0 0

0101101
*
Ed
 1e-07 1 1 0
1  65 0 0 2070.1
2  129 36 0 0 2070.1
2  130 32 0 0 2070.1
0

0101000
-326 16 +325 16 *
Ve
1e-07
304.8 139.7 2108.2
0 0

0101101
*
Ed
 1e-07 1 1 0
1  66 0 0 139.7
2  131 36 0 0 139.7
2  132 33 0 0 139.7
0

0101000
-323 16 +326 16 *
Ve
1e-07
304.8 139.7 38.1
0 0

0101101
*
Ed
 1e-07 1 1 0
1  67 0 0 2070.1
2  133 36 0 0 2070.1
2  134 34 0 0 2070.1
0

0101000
-323 16 +321 16 *
Ed
 1e-07 1 1 0
1  68 0 0 139.7
2  135 36 0 0 139.7
2  136 35 0 0 139.7
0

0101000
-321 16 +325 16 *
Wi

0101100
-324 0 -322 0 +320 0 +319 0 *
Fa
0  1e-07 36 0

0111000
+318 0 *
Ed
 1e-07 1 1 0
1  69 0 0 38.1
2  137 32 0 0 38.1
2  138 35 0 0 38.1
0

0101000
-325 16 +335 16 *
Ed
 1e-07 1 1 0
1  70 0 0 38.1
2  139 32 0 0 38.1
2  140 33 0 0 38.1
0

0101000
-326 16 +336 16 *
Wi

0101100
-316 0 -324 0 +315 0 +334 0 *
Fa
0  1e-07 32 0

0111000
+314 0 *
Ed
 1e-07 1 1 0
1  71 0 0 38.1
2  141 34 0 0 38.1
2  142 35 0 0 38.1
0

0101000
-321 16 +331 16 *
Ed
 1e-07 1 1 0
1  72 0 0 38.1
2  143 34 0 0 38.1
2  144 33 0 0 38.1
0

0101000
-323 16 +333 16 *
Wi

0101100
-312 0 -320 0 +311 0 +330 0 *
Fa
0  1e-07 34 0

0111000
+310 0 *
Wi

0101100
-329 0 -312 0 +319 0 +316 0 *
Fa
0  1e-07 35 0

0111000
+308 0 *
Wi

0101100
-332 0 -311 0 +322 0 +315 0 *
Fa
0  1e-07 33 0

0111000
+306 0 *
Sh

0101100
-327 0 +317 0 -313 0 +309 0 -307 0 +305 0 *
So

0100000
+304 0 *
Ve
1e-07
2133.6 0 2108.2
0 0

0101101
*
Ve
1e-07
2133.6 0 38.1
0 0

0101101
*
Ed
 1e-07 1 1 0
1  73 0 0 2070.1
2  145 37 0 0 2070.1
2  146 38 0 0 2070.1
0

0101000
-302 18 +301 18 *
Ve
1e-07
2133.6 139.7 2108.2
0 0

0101101
*
Ed
 1e-07 1 1 0
1  74 0 0 139.7
2  147 37 0 0 139.7
2  148 39 0 0 139.7
0

0101000
-299 18 +302 18 *
Ve
1e-07
2133.6 139.7 38.1
0 0

0101101
*
Ed
 1e-07 1 1 0
1  75 0 0 2070.1
2  149 37 0 0 2070.1
2  150 40 0 0 2070.1
0

0101000
-299 18 +297 18 *
Ed
 1e-07 1 1 0
1  76 0 0 139.7
2  151 37 0 0 139.7
2  152 41 0 0 139.7
0

0101000
-297 18 +301 18 *
Wi

0101100
-300 0 -298 0 +296 0 +295 0 *
Fa
0  1e-07 37 0

0111000
+294 0 *
Ve
1e-07
2171.7 0 2108.2
0 0

0101101
*
Ve
1e-07
2171.7 0 38.1
0 0

0101101
*
Ed
 1e-07 1 1 0
1  77 0 0 2070.1
2  153 42 0 0 2070.1
2  154 38 0 0 2070.1
0

0101000
-292 18 +291 18 *
Ve
1e-07
2171.7 139.7 2108.2
0 0

0101101
*
Ed
 1e-07 1 1 0
1  78 0 0 139.7
2  155 42 0 0 139.7
2  156 39 0 0 139.7
0

0101000
-289 18 +292 18 *
Ve
1e-07
2171.7 139.7 38.1
0 0

0101101
*
Ed
 1e-07 1 1 0
1  79 0 0 2070.1
2  157 42 0 0 2070.1
2  158 40 0 0 2070.1
0

0101000
-289 18 +287 18 *
Ed
 1e-07 1 1 0
1  80 0 0 139.7
2  159 42 0 0 139.7
2  160 41 0 0 139.7
0

0101000
-287 18 +291 18 *
Wi

0101100
-290 0 -288 0 +286 0 +285 0 *
Fa
0  1e-07 42 0

0111000
+284 0 *
Ed
 1e-07 1 1 0
1  81 0 0 38.1
2  161 38 0 0 38.1
2  162 41 0 0 38.1
0

0101000
-291 18 +301 18 *
Ed
 1e-07 1 1 0
1  82 0 0 38.1
2  163 38 0 0 38.1
2  164 39 0 0 38.1
0

0101000
-292 18 +302 18 *
Wi

0101100
-282 0 -290 0 +281 0 +300 0 *
Fa
0  1e-07 38 0

0111000
+280 0 *
Ed
 1e-07 1 1 0
1  83 0 0 38.1
2  165 40 0 0 38.1
2  166 41 0 0 38.1
0

0101000
-287 18 +297 18 *
Ed
 1e-07 1 1 0
1  84 0 0 38.1
2  167 40 0 0 38.1
2  168 39 0 0 38.1
0

0101000
-289 18 +299 18 *
Wi

0101100
-278 0 -286 0 +277 0 +296 0 *
Fa
0  1e-07 40 0

0111000
+276 0 *
Wi

0101100
-295 0 -278 0 +285 0 +282 0 *
Fa
0  1e-07 41 0

0111000
+274 0 *
Wi

0101100
-298 0 -277 0 +288 0 +281 0 *
Fa
0  1e-07 39 0

0111000
+272 0 *
Sh

0101100
-293 0 +283 0 -279 0 +275 0 -273 0 +271 0 *
So

0100000
+270 0 *
Ve
1e-07
266.7 0 2393.95
0 0

0101101
*
Ve
1e-07
266.7 0 2108.2
0 0

0101101
*
Ed
 1e-07 1 1 0
1  85 0 0 285.75
2  169 43 0 0 285.75
2  170 44 0 0 285.75
0

0101000
-268 20 +267 20 *
Ve
1e-07
266.7 139.7 2393.95
0 0

0101101
*
Ed
 1e-07 1 1 0
1  86 0 0 139.7
2  171 43 0 0 139.7
2  172 45 0 0 139.7
0

0101000
-265 20 +268 20 *
Ve
1e-07
266.7 139.7 2108.2
0 0

0101101
*
Ed
 1e-07 1 1 0
1  87 0 0 285.75
2  173 43 0 0 285.75
2  174 46 0 0 285.75
0

0101000
-265 20 +263 20 *
Ed
 1e-07 1 1 0
1  88 0 0 139.7
2  175 43 0 0 139.7
2  176 47 0 0 139.7
0

0101000
-263 20 +267 20 *
Wi

0101100
-266 0 -264 0 +262 0 +261 0 *
Fa
0  1e-07 43 0

0111000
+260 0 *
Ve
1e-07
2171.7 0 2393.95
0 0

0101101
*
Ve
1e-07
2171.7 0 2108.2
0 0

0101101
*
Ed
 1e-07 1 1 0
1  89 0 0 285.75
2  177 48 0 0 285.75
2  178 44 0 0 285.75
0

0101000
-258 20 +257 20 *
Ve
1e-07
2171.7 139.7 2393.95
0 0

0101101
*
Ed
 1e-07 1 1 0
1  90 0 0 139.7
2  179 48 0 0 139.7
2  180 45 0 0 139.7
0

0101000
-255 20 +258 20 *
Ve
1e-07
2171.7 139.7 2108.2
0 0

0101101
*
Ed
 1e-07 1 1 0
1  91 0 0 285.75
2  181 48 0 0 285.75
2  182 46 0 0 285.75
0

0101000
-255 20 +253 20 *
Ed
 1e-07 1 1 0
1  92 0 0 139.7
2  183 48 0 0 139.7
2  184 47 0 0 139.7
0

0101000
-253 20 +257 20 *
Wi

0101100
-256 0 -254 0 +252 0 +251 0 *
Fa
0  1e-07 48 0

0111000
+250 0 *
Ed
 1e-07 1 1 0
1  93 0 0 1905
2  185 44 0 0 1905
2  186 47 0 0 1905
0

0101000
-257 20 +267 20 *
Ed
 1e-07 1 1 0
1  94 0 0 1905
2  187 44 0 0 1905
2  188 45 0 0 1905
0

0101000
-258 20 +268 20 *
Wi

0101100
-248 0 -256 0 +247 0 +266 0 *
Fa
0  1e-07 44 0

0111000
+246 0 *
Ed
 1e-07 1 1 0
1  95 0 0 1905
2  189 46 0 0 1905
2  190 47 0 0 1905
0

0101000
-253 20 +263 20 *
Ed
 1e-07 1 1 0
1  96 0 0 1905
2  191 46 0 0 1905
2  192 45 0 0 1905
0

0101000
-255 20 +265 20 *
Wi

0101100
-244 0 -252 0 +243 0 +262 0 *
Fa
0  1e-07 46 0

0111000
+242 0 *
Wi

0101100
-261 0 -244 0 +251 0 +248 0 *
Fa
0  1e-07 47 0

0111000
+240 0 *
Wi

0101100
-264 0 -243 0 +254 0 +247 0 *
Fa
0  1e-07 45 0

0111000
+238 0 *
Sh

0101100
-259 0 +249 0 -245 0 +241 0 -239 0 +237 0 *
So

0100000
+236 0 *
Ve
1e-07
406.4 0 2400.3
0 0

0101101
*
Ve
1e-07
406.4 0 2393.95
0 0

0101101
*
Ed
 1e-07 1 1 0
1  97 0 0 6.34999999999991
2  193 49 0 0 6.34999999999991
2  194 50 0 0 6.34999999999991
0

0101000
-234 22 +233 22 *
Ve
1e-07
406.4 139.7 2400.3
0 0

0101101
*
Ed
 1e-07 1 1 0
1  98 0 0 139.7
2  195 49 0 0 139.7
2  196 51 0 0 139.7
0

0101000
-231 22 +234 22 *
Ve
1e-07
406.4 139.7 2393.95
0 0

0101101
*
Ed
 1e-07 1 1 0
1  99 0 0 6.34999999999991
2  197 49 0 0 6.34999999999991
2  198 52 0 0 6.34999999999991
0

0101000
-231 22 +229 22 *
Ed
 1e-07 1 1 0
1  100 0 0 139.7
2  199 49 0 0 139.7
2  200 53 0 0 139.7
0

0101000
-229 22 +233 22 *
Wi

0101100
-232 0 -230 0 +228 0 +227 0 *
Fa
0  1e-07 49 0

0111000
+226 0 *
Ve
1e-07
444.5 0 2400.3
0 0

0101101
*
Ve
1e-07
444.5 0 2393.95
0 0

0101101
*
Ed
 1e-07 1 1 0
1  101 0 0 6.34999999999991
2  201 54 0 0 6.34999999999991
2  202 50 0 0 6.34999999999991
0

0101000
-224 22 +223 22 *
Ve
1e-07
444.5 139.7 2400.3
0 0

0101101
*
Ed
 1e-07 1 1 0
1  102 0 0 139.7
2  203 54 0 0 139.7
2  204 51 0 0 139.7
0

0101000
-221 22 +224 22 *
Ve
1e-07
444.5 139.7 2393.95
0 0

0101101
*
Ed
 1e-07 1 1 0
1  103 0 0 6.34999999999991
2  205 54 0 0 6.34999999999991
2  206 52 0 0 6.34999999999991
0

0101000
-221 22 +219 22 *
Ed
 1e-07 1 1 0
1  104 0 0 139.7
2  207 54 0 0 139.7
2  208 53 0 0 139.7
0

0101000
-219 22 +223 22 *
Wi

0101100
-222 0 -220 0 +218 0 +217 0 *
Fa
0  1e-07 54 0

0111000
+216 0 *
Ed
 1e-07 1 1 0
1  105 0 0 38.1
2  209 50 0 0 38.1
2  210 53 0 0 38.1
0

0101000
-223 22 +233 22 *
Ed
 1e-07 1 1 0
1  106 0 0 38.1
2  211 50 0 0 38.1
2  212 51 0 0 38.1
0

0101000
-224 22 +234 22 *
Wi

0101100
-214 0 -222 0 +213 0 +232 0 *
Fa
0  1e-07 50 0

0111000
+212 0 *
Ed
 1e-07 1 1 0
1  107 0 0 38.1
2  213 52 0 0 38.1
2  214 53 0 0 38.1
0

0101000
-219 22 +229 22 *
Ed
 1e-07 1 1 0
1  108 0 0 38.1
2  215 52 0 0 38.1
2  216 51 0 0 38.1
0

0101000
-221 22 +231 22 *
Wi

0101100
-210 0 -218 0 +209 0 +228 0 *
Fa
0  1e-07 52 0

0111000
+208 0 *
Wi

0101100
-227 0 -210 0 +217 0 +214 0 *
Fa
0  1e-07 53 0

0111000
+206 0 *
Wi

0101100
-230 0 -209 0 +220 0 +213 0 *
Fa
0  1e-07 51 0

0111000
+204 0 *
Sh

0101100
-225 0 +215 0 -211 0 +207 0 -205 0 +203 0 *
So

0100000
+202 0 *
Ve
1e-07
812.8 0 2400.3
0 0

0101101
*
Ve
1e-07
812.8 0 2393.95
0 0

0101101
*
Ed
 1e-07 1 1 0
1  109 0 0 6.34999999999991
2  217 55 0 0 6.34999999999991
2  218 56 0 0 6.34999999999991
0

0101000
-200 24 +199 24 *
Ve
1e-07
812.8 139.7 2400.3
0 0

0101101
*
Ed
 1e-07 1 1 0
1  110 0 0 139.7
2  219 55 0 0 139.7
2  220 57 0 0 139.7
0

0101000
-197 24 +200 24 *
Ve
1e-07
812.8 139.7 2393.95
0 0

0101101
*
Ed
 1e-07 1 1 0
1  111 0 0 6.34999999999991
2  221 55 0 0 6.34999999999991
2  222 58 0 0 6.34999999999991
0

0101000
-197 24 +195 24 *
Ed
 1e-07 1 1 0
1  112 0 0 139.7
2  223 55 0 0 139.7
2  224 59 0 0 139.7
0

0101000
-195 24 +199 24 *
Wi

0101100
-198 0 -196 0 +194 0 +193 0 *
Fa
0  1e-07 55 0

0111000
+192 0 *
Ve
1e-07
850.9 0 2400.3
0 0

0101101
*
Ve
1e-07
850.9 0 2393.95
0 0

0101101
*
Ed
 1e-07 1 1 0
1  113 0 0 6.34999999999991
2  225 60 0 0 6.34999999999991
2  226 56 0 0 6.34999999999991
0

0101000
-190 24 +189 24 *
Ve
1e-07
850.9 139.7 2400.3
0 0

0101101
*
Ed
 1e-07 1 1 0
1  114 0 0 139.7
2  227 60 0 0 139.7
2  228 57 0 0 139.7
0

0101000
-187 24 +190 24 *
Ve
1e-07
850.9 139.7 2393.95
0 0

0101101
*
Ed
 1e-07 1 1 0
1  115 0 0 6.34999999999991
2  229 60 0 0 6.34999999999991
2  230 58 0 0 6.34999999999991
0

0101000
-187 24 +185 24 *
Ed
 1e-07 1 1 0
1  116 0 0 139.7
2  231 60 0 0 139.7
2  232 59 0 0 139.7
0

0101000
-185 24 +189 24 *
Wi

0101100
-188 0 -186 0 +184 0 +183 0 *
Fa
0  1e-07 60 0

0111000
+182 0 *
Ed
 1e-07 1 1 0
1  117 0 0 38.1
2  233 56 0 0 38.1
2  234 59 0 0 38.1
0

0101000
-189 24 +199 24 *
Ed
 1e-07 1 1 0
1  118 0 0 38.1
2  235 56 0 0 38.1
2  236 57 0 0 38.1
0

0101000
-190 24 +200 24 *
Wi

0101100
-180 0 -188 0 +179 0 +198 0 *
Fa
0  1e-07 56 0

0111000
+178 0 *
Ed
 1e-07 1 1 0
1  119 0 0 38.1
2  237 58 0 0 38.1
2  238 59 0 0 38.1
0

0101000
-185 24 +195 24 *
Ed
 1e-07 1 1 0
1  120 0 0 38.1
2  239 58 0 0 38.1
2  240 57 0 0 38.1
0

0101000
-187 24 +197 24 *
Wi

0101100
-176 0 -184 0 +175 0 +194 0 *
Fa
0  1e-07 58 0

0111000
+174 0 *
Wi

0101100
-193 0 -176 0 +183 0 +180 0 *
Fa
0  1e-07 59 0

0111000
+172 0 *
Wi

0101100
-196 0 -175 0 +186 0 +179 0 *
Fa
0  1e-07 57 0

0111000
+170 0 *
Sh

0101100
-191 0 +181 0 -177 0 +173 0 -171 0 +169 0 *
So

0100000
+168 0 *
Ve
1e-07
1219.2 0 2400.3
0 0

0101101
*
Ve
1e-07
1219.2 0 2393.95
0 0

0101101
*
Ed
 1e-07 1 1 0
1  121 0 0 6.34999999999991
2  241 61 0 0 6.34999999999991
2  242 62 0 0 6.34999999999991
0

0101000
-166 26 +165 26 *
Ve
1e-07
1219.2 139.7 2400.3
0 0

0101101
*
Ed
 1e-07 1 1 0
1  122 0 0 139.7
2  243 61 0 0 139.7
2  244 63 0 0 139.7
0

0101000
-163 26 +166 26 *
Ve
1e-07
1219.2 139.7 2393.95
0 0

0101101
*
Ed
 1e-07 1 1 0
1  123 0 0 6.34999999999991
2  245 61 0 0 6.34999999999991
2  246 64 0 0 6.34999999999991
0

0101000
-163 26 +161 26 *
Ed
 1e-07 1 1 0
1  124 0 0 139.7
2  247 61 0 0 139.7
2  248 65 0 0 139.7
0

0101000
-161 26 +165 26 *
Wi

0101100
-164 0 -162 0 +160 0 +159 0 *
Fa
0  1e-07 61 0

0111000
+158 0 *
Ve
1e-07
1257.3 0 2400.3
0 0

0101101
*
Ve
1e-07
1257.3 0 2393.95
0 0

0101101
*
Ed
 1e-07 1 1 0
1  125 0 0 6.34999999999991
2  249 66 0 0 6.34999999999991
2  250 62 0 0 6.34999999999991
0

0101000
-156 26 +155 26 *
Ve
1e-07
1257.3 139.7 2400.3
0 0

0101101
*
Ed
 1e-07 1 1 0
1  126 0 0 139.7
2  251 66 0 0 139.7
2  252 63 0 0 139.7
0

0101000
-153 26 +156 26 *
Ve
1e-07
1257.3 139.7 2393.95
0 0

0101101
*
Ed
 1e-07 1 1 0
1  127 0 0 6.34999999999991
2  253 66 0 0 6.34999999999991
2  254 64 0 0 6.34999999999991
0

0101000
-153 26 +151 26 *
Ed
 1e-07 1 1 0
1  128 0 0 139.7
2  255 66 0 0 139.7
2  256 65 0 0 139.7
0

0101000
-151 26 +155 26 *
Wi

0101100
-154 0 -152 0 +150 0 +149 0 *
Fa
0  1e-07 66 0

0111000
+148 0 *
Ed
 1e-07 1 1 0
1  129 0 0 38.1
2  257 62 0 0 38.1
2  258 65 0 0 38.1
0

0101000
-155 26 +165 26 *
Ed
 1e-07 1 1 0
1  130 0 0 38.1
2  259 62 0 0 38.1
2  260 63 0 0 38.1
0

0101000
-156 26 +166 26 *
Wi

0101100
-146 0 -154 0 +145 0 +164 0 *
Fa
0  1e-07 62 0

0111000
+144 0 *
Ed
 1e-07 1 1 0
1  131 0 0 38.1
2  261 64 0 0 38.1
2  262 65 0 0 38.1
0

0101000
-151 26 +161 26 *
Ed
 1e-07 1 1 0
1  132 0 0 38.1
2  263 64 0 0 38.1
2  264 63 0 0 38.1
0

0101000
-153 26 +163 26 *
Wi

0101100
-142 0 -150 0 +141 0 +160 0 *
Fa
0  1e-07 64 0

0111000
+140 0 *
Wi

0101100
-159 0 -142 0 +149 0 +146 0 *
Fa
0  1e-07 65 0

0111000
+138 0 *
Wi

0101100
-162 0 -141 0 +152 0 +145 0 *
Fa
0  1e-07 63 0

0111000
+136 0 *
Sh

0101100
-157 0 +147 0 -143 0 +139 0 -137 0 +135 0 *
So

0100000
+134 0 *
Ve
1e-07
1625.6 0 2400.3
0 0

0101101
*
Ve
1e-07
1625.6 0 2393.95
0 0

0101101
*
Ed
 1e-07 1 1 0
1  133 0 0 6.34999999999991
2  265 67 0 0 6.34999999999991
2  266 68 0 0 6.34999999999991
0

0101000
-132 28 +131 28 *
Ve
1e-07
1625.6 139.7 2400.3
0 0

0101101
*
Ed
 1e-07 1 1 0
1  134 0 0 139.7
2  267 67 0 0 139.7
2  268 69 0 0 139.7
0

0101000
-129 28 +132 28 *
Ve
1e-07
1625.6 139.7 2393.95
0 0

0101101
*
Ed
 1e-07 1 1 0
1  135 0 0 6.34999999999991
2  269 67 0 0 6.34999999999991
2  270 70 0 0 6.34999999999991
0

0101000
-129 28 +127 28 *
Ed
 1e-07 1 1 0
1  136 0 0 139.7
2  271 67 0 0 139.7
2  272 71 0 0 139.7
0

0101000
-127 28 +131 28 *
Wi

0101100
-130 0 -128 0 +126 0 +125 0 *
Fa
0  1e-07 67 0

0111000
+124 0 *
Ve
1e-07
1663.7 0 2400.3
0 0

0101101
*
Ve
1e-07
1663.7 0 2393.95
0 0

0101101
*
Ed
 1e-07 1 1 0
1  137 0 0 6.34999999999991
2  273 72 0 0 6.34999999999991
2  274 68 0 0 6.34999999999991
0

0101000
-122 28 +121 28 *
Ve
1e-07
1663.7 139.7 2400.3
0 0

0101101
*
Ed
 1e-07 1 1 0
1  138 0 0 139.7
2  275 72 0 0 139.7
2  276 69 0 0 139.7
0

0101000
-119 28 +122 28 *
Ve
1e-07
1663.7 139.7 2393.95
0 0

0101101
*
Ed
 1e-07 1 1 0
1  139 0 0 6.34999999999991
2  277 72 0 0 6.34999999999991
2  278 70 0 0 6.34999999999991
0

0101000
-119 28 +117 28 *
Ed
 1e-07 1 1 0
1  140 0 0 139.7
2  279 72 0 0 139.7
2  280 71 0 0 139.7
0

0101000
-117 28 +121 28 *
Wi

0101100
-120 0 -118 0 +116 0 +115 0 *
Fa
0  1e-07 72 0

0111000
+114 0 *
Ed
 1e-07 1 1 0
1  141 0 0 38.1
2  281 68 0 0 38.1
2  282 71 0 0 38.1
0

0101000
-121 28 +131 28 *
Ed
 1e-07 1 1 0
1  142 0 0 38.1
2  283 68 0 0 38.1
2  284 69 0 0 38.1
0

0101000
-122 28 +132 28 *
Wi

0101100
-112 0 -120 0 +111 0 +130 0 *
Fa
0  1e-07 68 0

0111000
+110 0 *
Ed
 1e-07 1 1 0
1  143 0 0 38.1
2  285 70 0 0 38.1
2  286 71 0 0 38.1
0

0101000
-117 28 +127 28 *
Ed
 1e-07 1 1 0
1  144 0 0 38.1
2  287 70 0 0 38.1
2  288 69 0 0 38.1
0

0101000
-119 28 +129 28 *
Wi

0101100
-108 0 -116 0 +107 0 +126 0 *
Fa
0  1e-07 70 0

0111000
+106 0 *
Wi

0101100
-125 0 -108 0 +115 0 +112 0 *
Fa
0  1e-07 71 0

0111000
+104 0 *
Wi

0101100
-128 0 -107 0 +118 0 +111 0 *
Fa
0  1e-07 69 0

0111000
+102 0 *
Sh

0101100
-123 0 +113 0 -109 0 +105 0 -103 0 +101 0 *
So

0100000
+100 0 *
Ve
1e-07
2032 0 2400.3
0 0

0101101
*
Ve
1e-07
2032 0 2393.95
0 0

0101101
*
Ed
 1e-07 1 1 0
1  145 0 0 6.34999999999991
2  289 73 0 0 6.34999999999991
2  290 74 0 0 6.34999999999991
0

0101000
-98 30 +97 30 *
Ve
1e-07
2032 139.7 2400.3
0 0

0101101
*
Ed
 1e-07 1 1 0
1  146 0 0 139.7
2  291 73 0 0 139.7
2  292 75 0 0 139.7
0

0101000
-95 30 +98 30 *
Ve
1e-07
2032 139.7 2393.95
0 0

0101101
*
Ed
 1e-07 1 1 0
1  147 0 0 6.34999999999991
2  293 73 0 0 6.34999999999991
2  294 76 0 0 6.34999999999991
0

0101000
-95 30 +93 30 *
Ed
 1e-07 1 1 0
1  148 0 0 139.7
2  295 73 0 0 139.7
2  296 77 0 0 139.7
0

0101000
-93 30 +97 30 *
Wi

0101100
-96 0 -94 0 +92 0 +91 0 *
Fa
0  1e-07 73 0

0111000
+90 0 *
Ve
1e-07
2070.1 0 2400.3
0 0

0101101
*
Ve
1e-07
2070.1 0 2393.95
0 0

0101101
*
Ed
 1e-07 1 1 0
1  149 0 0 6.34999999999991
2  297 78 0 0 6.34999999999991
2  298 74 0 0 6.34999999999991
0

0101000
-88 30 +87 30 *
Ve
1e-07
2070.1 139.7 2400.3
0 0

0101101
*
Ed
 1e-07 1 1 0
1  150 0 0 139.7
2  299 78 0 0 139.7
2  300 75 0 0 139.7
0

0101000
-85 30 +88 30 *
Ve
1e-07
2070.1 139.7 2393.95
0 0

0101101
*
Ed
 1e-07 1 1 0
1  151 0 0 6.34999999999991
2  301 78 0 0 6.34999999999991
2  302 76 0 0 6.34999999999991
0

0101000
-85 30 +83 30 *
Ed
 1e-07 1 1 0
1  152 0 0 139.7
2  303 78 0 0 139.7
2  304 77 0 0 139.7
0

0101000
-83 30 +87 30 *
Wi

0101100
-86 0 -84 0 +82 0 +81 0 *
Fa
0  1e-07 78 0

0111000
+80 0 *
Ed
 1e-07 1 1 0
1  153 0 0 38.1
2  305 74 0 0 38.1
2  306 77 0 0 38.1
0

0101000
-87 30 +97 30 *
Ed
 1e-07 1 1 0
1  154 0 0 38.1
2  307 74 0 0 38.1
2  308 75 0 0 38.1
0

0101000
-88 30 +98 30 *
Wi

0101100
-78 0 -86 0 +77 0 +96 0 *
Fa
0  1e-07 74 0

0111000
+76 0 *
Ed
 1e-07 1 1 0
1  155 0 0 38.1
2  309 76 0 0 38.1
2  310 77 0 0 38.1
0

0101000
-83 30 +93 30 *
Ed
 1e-07 1 1 0
1  156 0 0 38.1
2  311 76 0 0 38.1
2  312 75 0 0 38.1
0

0101000
-85 30 +95 30 *
Wi

0101100
-74 0 -82 0 +73 0 +92 0 *
Fa
0  1e-07 76 0

0111000
+72 0 *
Wi

0101100
-91 0 -74 0 +81 0 +78 0 *
Fa
0  1e-07 77 0

0111000
+70 0 *
Wi

0101100
-94 0 -73 0 +84 0 +77 0 *
Fa
0  1e-07 75 0

0111000
+68 0 *
Sh

0101100
-89 0 +79 0 -75 0 +71 0 -69 0 +67 0 *
So

0100000
+66 0 *
Ve
1e-07
0 -11.1125 2438.4
0 0

0101101
*
Ve
1e-07
0 -11.1125 0
0 0

0101101
*
Ed
 1e-07 1 1 0
1  157 0 0 2438.4
2  313 79 0 0 2438.4
2  314 80 0 0 2438.4
0

0101000
-64 32 +63 32 *
Ve
1e-07
0 0 2438.4
0 0

0101101
*
Ed
 1e-07 1 1 0
1  158 0 0 11.1125
2  315 79 0 0 11.1125
2  316 81 0 0 11.1125
0

0101000
-61 32 +64 32 *
Ve
1e-07
0 0 0
0 0

0101101
*
Ed
 1e-07 1 1 0
1  159 0 0 2438.4
2  317 79 0 0 2438.4
2  318 82 0 0 2438.4
0

0101000
-61 32 +59 32 *
Ed
 1e-07 1 1 0
1  160 0 0 11.1125
2  319 79 0 0 11.1125
2  320 83 0 0 11.1125
0

0101000
-59 32 +63 32 *
Wi

0101100
-62 0 -60 0 +58 0 +57 0 *
Fa
0  1e-07 79 0

0111000
+56 0 *
Ve
1.5e-07
304.8 -11.1125 0
0 0

0101101
*
Ed
 1e-07 1 1 0
1  161 0 0 304.8
2  321 80 0 0 304.8
2  322 83 0 0 304.8
0

0101000
+63 32 -54 32 *
Ve
1.5e-07
304.8 -11.1125 2108.2
0 0

0101101
*
Ed
 1.5e-07 1 1 0
1  162 0 -2108.2 0
2  323 80 31 -2108.2 0
2  324 84 33 -2108.2 0
0

0101000
+52 34 -54 34 *
Ve
1.5e-07
2133.6 -11.1125 2108.2
0 0

0101101
*
Ed
 1.5e-07 1 1 0
1  163 0 152.4 1981.2
2  325 80 31 152.4 1981.2
2  326 85 33 152.4 1981.2
0

0101000
+52 34 -50 34 *
Ve
1.5e-07
2133.6 -11.1125 0
0 0

0101101
*
Ed
 1.5e-07 1 1 0
1  164 0 -2108.2 0
2  327 80 31 -2108.2 0
2  328 86 33 -2108.2 0
0

0101000
+50 34 -48 34 *
Ve
1e-07
2438.4 -11.1125 0
0 0

0101101
*
Ed
 1e-07 1 1 0
1  165 0 2133.6 2438.4
2  329 80 0 2133.6 2438.4
2  330 87 0 2133.6 2438.4
0

0101000
+48 32 -46 32 *
Ve
1e-07
2438.4 -11.1125 2438.4
0 0

0101101
*
Ed
 1e-07 1 1 0
1  166 0 0 2438.4
2  331 80 0 0 2438.4
2  332 88 0 0 2438.4
0

0101000
-44 32 +46 32 *
Ed
 1e-07 1 1 0
1  167 0 0 2438.4
2  333 80 0 0 2438.4
2  334 81 0 0 2438.4
0

0101000
-44 32 +64 32 *
Wi

0101100
-53 31 +51 0 -49 0 -47 0 -45 31 -43 31 +42 31 +62 31 *
Fa
0  1e-07 80 31

0111000
+41 0 *
Ve
1e-07
2438.4 0 2438.4
0 0

0101101
*
Ed
 1e-07 1 1 0
1  168 0 0 2438.4
2  335 81 0 0 2438.4
2  336 82 0 0 2438.4
0

0101000
-39 32 +61 32 *
Ed
 1e-07 1 1 0
1  169 0 0 11.1125
2  337 81 0 0 11.1125
2  338 88 0 0 11.1125
0

0101000
-39 32 +44 32 *
Wi

0101100
-60 0 -38 0 +37 0 +42 0 *
Fa
0  1e-07 81 0

0111000
+36 0 *
Ve
1.5e-07
304.8 0 0
0 0

0101101
*
Ed
 1e-07 1 1 0
1  170 0 0 304.8
2  339 82 0 0 304.8
2  340 83 0 0 304.8
0

0101000
+59 32 -34 32 *
Ve
1.5e-07
304.8 0 2108.2
0 0

0101101
*
Ed
 1.5e-07 1 1 0
1  171 0 -2108.2 0
2  341 82 31 -2108.2 0
2  342 84 33 -2108.2 0
0

0101000
+32 34 -34 34 *
Ve
1.5e-07
2133.6 0 2108.2
0 0

0101101
*
Ed
 1.5e-07 1 1 0
1  172 0 152.4 1981.2
2  343 82 31 152.4 1981.2
2  344 85 33 152.4 1981.2
0

0101000
+32 34 -30 34 *
Ve
1.5e-07
2133.6 0 0
0 0

0101101
*
Ed
 1.5e-07 1 1 0
1  173 0 -2108.2 0
2  345 82 31 -2108.2 0
2  346 86 33 -2108.2 0
0

0101000
+30 34 -28 34 *
Ve
1e-07
2438.4 0 0
0 0

0101101
*
Ed
 1e-07 1 1 0
1  174 0 2133.6 2438.4
2  347 82 0 2133.6 2438.4
2  348 87 0 2133.6 2438.4
0

0101000
+28 32 -26 32 *
Ed
 1e-07 1 1 0
1  175 0 0 2438.4
2  349 82 0 0 2438.4
2  350 88 0 0 2438.4
0

0101000
-39 32 +26 32 *
Wi

0101100
-33 31 +31 0 -29 0 -27 0 -25 31 -24 31 +38 31 +58 31 *
Fa
0  1e-07 82 31

0111000
+23 0 *
Ed
 1e-07 1 1 0
1  176 0 1 12.1125
2  351 83 35 1 12.1125
2  352 84 0 1 12.1125
0

0101000
+54 36 -34 36 *
Wi

0101100
-33 31 +21 33 +53 31 -57 31 *
Fa
0  1e-07 83 31

0111000
+20 0 *
Ed
 1e-07 1 1 0
1  177 0 1 12.1125
2  353 84 0 1 12.1125
2  354 85 0 1 12.1125
0

0101000
+52 36 -32 36 *
Wi

0101100
-18 33 -31 0 +21 33 +51 0 *
Fa
0  1e-07 84 33

0111000
+17 0 *
Ed
 1e-07 1 1 0
1  178 0 1 12.1125
2  355 85 0 1 12.1125
2  356 86 0 1 12.1125
0

0101000
+50 36 -30 36 *
Wi

0101100
-18 33 -29 0 +15 33 +49 0 *
Fa
0  1e-07 85 33

0111000
+14 0 *
Ed
 1e-07 1 1 0
1  179 0 1 12.1125
2  357 86 0 1 12.1125
2  358 87 35 1 12.1125
0

0101000
+48 36 -28 36 *
Wi

0101100
-15 33 -27 0 +12 33 +47 0 *
Fa
0  1e-07 86 33

0111000
+11 0 *
Ed
 1e-07 1 1 0
1  180 0 0 11.1125
2  359 87 0 0 11.1125
2  360 88 0 0 11.1125
0

0101000
-26 32 +46 32 *
Wi

0101100
-25 31 +9 31 +45 31 -12 33 *
Fa
0  1e-07 87 31

0111000
+8 0 *
Wi

0101100
-43 0 -37 0 +24 0 +9 0 *
Fa
0  1e-07 88 0

0111000
+6 0 *
Sh

0101100
-55 31 -40 0 +35 31 +22 0 -19 0 +16 0 -13 0 -10 0 -7 0 +5 31 
*
So

0100000
+4 0 *
Co

0100000
+3 0 *
Co

1100000
+473 5 +439 7 +405 9 +371 11 +337 13 +303 15 +269 17 +235 19 +201 21 +167 23 
+133 25 +99 27 +65 29 +2 0 *

+1 4 