DBRep_DrawableShape

CASCADE Topology V1, (c) Matra-Datavision
Locations 26
1
              1               0               0               0 
              0               1               0               0 
              0               0               1               0 
1
              1               0               0               0 
              0               1               0               0 
              0               0               1               0 
1
              1               0               0              -0 
              0               1               0         11.1125 
              0               0               1              -0 
2  1 1 2 1 3 1 0
1
              1               0               0               0 
              0               1               0               0 
              0               0               1               0 
2  1 -1 5 -1 0
1
              1               0               0          2590.8 
              0               1               0               0 
              0               0               1               0 
2  1 -1 7 -1 0
1
              1               0               0               0 
              0               1               0               0 
              0               0               1          2400.3 
2  1 -1 9 -1 0
1
              1               0               0               0 
              0               1               0               0 
              0               0               1            38.1 
2  1 -1 11 -1 0
1
              1               0               0          2705.1 
              0               1               0               0 
              0               0               1            38.1 
2  1 -1 13 -1 0
1
              1               0               0           114.3 
              0               1               0               0 
              0               0               1            38.1 
2  1 -1 15 -1 0
1
              1               0               0          2590.8 
              0               1               0               0 
              0               0               1            38.1 
2  1 -1 17 -1 0
1
              1               0               0           114.3 
              0               1               0               0 
              0               0               1          2133.6 
2  1 -1 19 -1 0
1
              1               0               0               0 
              0               1               0        -11.1125 
              0               0               1               0 
2  1 -1 21 -1 0
1
              1               0               0           152.4 
              0               1               0        -12.1125 
              0               0               1               0 
2  1 -1 0
2  21 1 23 -1 0
2  1 -1 23 -1 0
Curve2ds 240
1 0 0 1 0 
1 0 0 1 0 
1 38.099999999999994 0 0 -1 
1 0 0 0 1 
1 0 -139.69999999999999 1 0 
1 0 0 1 0 
1 0 0 0 -1 
1 0 0 0 1 
1 0 0 1 0 
1 0 152.40000000000009 1 0 
1 38.099999999999994 0 0 -1 
1 152.40000000000009 0 0 1 
1 0 -139.69999999999999 1 0 
1 0 152.40000000000009 1 0 
1 0 0 0 -1 
1 152.40000000000009 0 0 1 
1 0 0 0 1 
1 0 0 1 0 
1 38.099999999999994 0 0 1 
1 0 0 1 0 
1 0 0 0 1 
1 0 139.69999999999999 1 0 
1 38.099999999999994 0 0 1 
1 0 139.69999999999999 1 0 
1 0 0 1 0 
1 0 0 1 0 
1 38.099999999999994 0 0 -1 
1 0 0 0 1 
1 0 -139.69999999999999 1 0 
1 0 0 1 0 
1 0 0 0 -1 
1 0 0 0 1 
1 0 0 1 0 
1 0 152.40000000000009 1 0 
1 38.099999999999994 0 0 -1 
1 152.40000000000009 0 0 1 
1 0 -139.69999999999999 1 0 
1 0 152.40000000000009 1 0 
1 0 0 0 -1 
1 152.40000000000009 0 0 1 
1 0 0 0 1 
1 0 0 1 0 
1 38.099999999999994 0 0 1 
1 0 0 1 0 
1 0 0 0 1 
1 0 139.69999999999999 1 0 
1 38.099999999999994 0 0 1 
1 0 139.69999999999999 1 0 
1 0 0 1 0 
1 0 0 1 0 
1 38.099999999999994 0 0 -1 
1 0 0 0 1 
1 0 -139.69999999999999 1 0 
1 0 0 1 0 
1 0 0 0 -1 
1 0 0 0 1 
1 0 0 1 0 
1 0 2743.1999999999998 1 0 
1 38.099999999999994 0 0 -1 
1 2743.1999999999998 0 0 1 
1 0 -139.69999999999999 1 0 
1 0 2743.1999999999998 1 0 
1 0 0 0 -1 
1 2743.1999999999998 0 0 1 
1 0 0 0 1 
1 0 0 1 0 
1 38.099999999999994 0 0 1 
1 0 0 1 0 
1 0 0 0 1 
1 0 139.69999999999999 1 0 
1 38.099999999999994 0 0 1 
1 0 139.69999999999999 1 0 
1 0 0 1 0 
1 0 0 1 0 
1 2362.1999999999998 0 0 -1 
1 0 0 0 1 
1 0 -139.69999999999999 1 0 
1 0 0 1 0 
1 0 0 0 -1 
1 0 0 0 1 
1 0 0 1 0 
1 0 38.099999999999994 1 0 
1 2362.1999999999998 0 0 -1 
1 38.099999999999994 0 0 1 
1 0 -139.69999999999999 1 0 
1 0 38.099999999999994 1 0 
1 0 0 0 -1 
1 38.099999999999994 0 0 1 
1 0 0 0 1 
1 0 0 1 0 
1 2362.1999999999998 0 0 1 
1 0 0 1 0 
1 0 0 0 1 
1 0 139.69999999999999 1 0 
1 2362.1999999999998 0 0 1 
1 0 139.69999999999999 1 0 
1 0 0 1 0 
1 0 0 1 0 
1 2362.1999999999998 0 0 -1 
1 0 0 0 1 
1 0 -139.69999999999999 1 0 
1 0 0 1 0 
1 0 0 0 -1 
1 0 0 0 1 
1 0 0 1 0 
1 0 38.099999999999994 1 0 
1 2362.1999999999998 0 0 -1 
1 38.099999999999994 0 0 1 
1 0 -139.69999999999999 1 0 
1 0 38.099999999999994 1 0 
1 0 0 0 -1 
1 38.099999999999994 0 0 1 
1 0 0 0 1 
1 0 0 1 0 
1 2362.1999999999998 0 0 1 
1 0 0 1 0 
1 0 0 0 1 
1 0 139.69999999999999 1 0 
1 2362.1999999999998 0 0 1 
1 0 139.69999999999999 1 0 
1 0 0 1 0 
1 0 0 1 0 
1 2095.5 0 0 -1 
1 0 0 0 1 
1 0 -139.69999999999999 1 0 
1 0 0 1 0 
1 0 0 0 -1 
1 0 0 0 1 
1 0 0 1 0 
1 0 38.099999999999994 1 0 
1 2095.5 0 0 -1 
1 38.099999999999994 0 0 1 
1 0 -139.69999999999999 1 0 
1 0 38.099999999999994 1 0 
1 0 0 0 -1 
1 38.099999999999994 0 0 1 
1 0 0 0 1 
1 0 0 1 0 
1 2095.5 0 0 1 
1 0 0 1 0 
1 0 0 0 1 
1 0 139.69999999999999 1 0 
1 2095.5 0 0 1 
1 0 139.69999999999999 1 0 
1 0 0 1 0 
1 0 0 1 0 
1 2095.5 0 0 -1 
1 0 0 0 1 
1 0 -139.69999999999999 1 0 
1 0 0 1 0 
1 0 0 0 -1 
1 0 0 0 1 
1 0 0 1 0 
1 0 38.099999999999994 1 0 
1 2095.5 0 0 -1 
1 38.099999999999994 0 0 1 
1 0 -139.69999999999999 1 0 
1 0 38.099999999999994 1 0 
1 0 0 0 -1 
1 38.099999999999994 0 0 1 
1 0 0 0 1 
1 0 0 1 0 
1 2095.5 0 0 1 
1 0 0 1 0 
1 0 0 0 1 
1 0 139.69999999999999 1 0 
1 2095.5 0 0 1 
1 0 139.69999999999999 1 0 
1 0 0 1 0 
1 0 0 1 0 
1 285.75 0 0 -1 
1 0 0 0 1 
1 0 -139.69999999999999 1 0 
1 0 0 1 0 
1 0 0 0 -1 
1 0 0 0 1 
1 0 0 1 0 
1 0 2514.5999999999995 1 0 
1 285.75 0 0 -1 
1 2514.5999999999995 0 0 1 
1 0 -139.69999999999999 1 0 
1 0 2514.5999999999995 1 0 
1 0 0 0 -1 
1 2514.5999999999995 0 0 1 
1 0 0 0 1 
1 0 0 1 0 
1 285.75 0 0 1 
1 0 0 1 0 
1 0 0 0 1 
1 0 139.69999999999999 1 0 
1 285.75 0 0 1 
1 0 139.69999999999999 1 0 
1 0 0 1 0 
1 0 0 1 0 
1 2438.3999999999996 0 0 -1 
1 0 0 0 1 
1 0 -11.112499999999999 1 0 
1 0 0 1 0 
1 0 0 0 -1 
1 0 0 0 1 
1 0 0 0 1 
1 0 0 1 0 
8 -2133.5999999999999 0
1 0 152.40000000000009 -1 0 
8 -2133.5999999999999 0
1 0 -1 -1 -0 
8 76.200000000000045 2514.5999999999995
1 2133.5999999999999 76.200000000000045 0 1 
8 76.200000000000045 2514.5999999999995
1 -76.200000000000045 1 1 0 
8 -2133.5999999999999 0
1 0 2590.7999999999997 -1 0 
8 -2133.5999999999999 0
1 0 -1 -1 -0 
1 0 0 0 1 
1 0 0 1 0 
1 0 2743.1999999999998 1 0 
1 0 0 1 0 
1 2438.3999999999996 0 0 1 
1 0 0 1 0 
1 0 11.112499999999999 1 0 
1 2438.3999999999996 0 0 1 
1 2743.1999999999998 0 0 1 
1 2438.3999999999996 0 0 -1 
1 0 0 0 1 
1 0 11.112499999999999 1 0 
8 -2133.5999999999999 0
1 0 152.40000000000009 -1 0 
8 -2133.5999999999999 0
1 0 -12.112499999999999 -1 -0 
8 76.200000000000045 2514.5999999999995
1 2133.5999999999999 76.200000000000045 0 1 
8 76.200000000000045 2514.5999999999995
1 -76.200000000000045 12.112499999999999 1 0 
8 -2133.5999999999999 0
1 0 2590.7999999999997 -1 0 
8 -2133.5999999999999 0
1 0 -12.112499999999999 -1 -0 
1 0 0 0 1 
1 0 11.112499999999999 1 0 
1 0 2743.1999999999998 1 0 
1 0 -11.112499999999999 1 0 
1 152.40000000000009 -1 0 1 
1 0 0 0 -1 
1 2133.5999999999999 0 0 -1 
1 0 0 0 1 
1 2438.3999999999996 0 0 1 
1 2133.5999999999999 0 0 -1 
1 0 0 0 -1 
1 2590.7999999999997 -1 0 1 
1 2743.1999999999998 0 0 1 
1 0 0 0 -1 
Curves 120
1 0 0 0 0 0 1 
1 0 0 38.099999999999994 -0 1 0 
1 0 139.69999999999999 0 0 0 1 
1 0 0 0 -0 1 0 
1 152.40000000000009 0 0 0 0 1 
1 152.40000000000009 0 38.099999999999994 -0 1 0 
1 152.40000000000009 139.69999999999999 0 0 0 1 
1 152.40000000000009 0 0 -0 1 0 
1 0 0 0 1 0 -0 
1 0 0 38.099999999999994 1 0 -0 
1 0 139.69999999999999 0 1 0 -0 
1 0 139.69999999999999 38.099999999999994 1 0 -0 
1 0 0 0 0 0 1 
1 0 0 38.099999999999994 -0 1 0 
1 0 139.69999999999999 0 0 0 1 
1 0 0 0 -0 1 0 
1 152.40000000000009 0 0 0 0 1 
1 152.40000000000009 0 38.099999999999994 -0 1 0 
1 152.40000000000009 139.69999999999999 0 0 0 1 
1 152.40000000000009 0 0 -0 1 0 
1 0 0 0 1 0 -0 
1 0 0 38.099999999999994 1 0 -0 
1 0 139.69999999999999 0 1 0 -0 
1 0 139.69999999999999 38.099999999999994 1 0 -0 
1 0 0 0 0 0 1 
1 0 0 38.099999999999994 -0 1 0 
1 0 139.69999999999999 0 0 0 1 
1 0 0 0 -0 1 0 
1 2743.1999999999998 0 0 0 0 1 
1 2743.1999999999998 0 38.099999999999994 -0 1 0 
1 2743.1999999999998 139.69999999999999 0 0 0 1 
1 2743.1999999999998 0 0 -0 1 0 
1 0 0 0 1 0 -0 
1 0 0 38.099999999999994 1 0 -0 
1 0 139.69999999999999 0 1 0 -0 
1 0 139.69999999999999 38.099999999999994 1 0 -0 
1 0 0 0 0 0 1 
1 0 0 2362.1999999999998 -0 1 0 
1 0 139.69999999999999 0 0 0 1 
1 0 0 0 -0 1 0 
1 38.099999999999994 0 0 0 0 1 
1 38.099999999999994 0 2362.1999999999998 -0 1 0 
1 38.099999999999994 139.69999999999999 0 0 0 1 
1 38.099999999999994 0 0 -0 1 0 
1 0 0 0 1 0 -0 
1 0 0 2362.1999999999998 1 0 -0 
1 0 139.69999999999999 0 1 0 -0 
1 0 139.69999999999999 2362.1999999999998 1 0 -0 
1 0 0 0 0 0 1 
1 0 0 2362.1999999999998 -0 1 0 
1 0 139.69999999999999 0 0 0 1 
1 0 0 0 -0 1 0 
1 38.099999999999994 0 0 0 0 1 
1 38.099999999999994 0 2362.1999999999998 -0 1 0 
1 38.099999999999994 139.69999999999999 0 0 0 1 
1 38.099999999999994 0 0 -0 1 0 
1 0 0 0 1 0 -0 
1 0 0 2362.1999999999998 1 0 -0 
1 0 139.69999999999999 0 1 0 -0 
1 0 139.69999999999999 2362.1999999999998 1 0 -0 
1 0 0 0 0 0 1 
1 0 0 2095.5 -0 1 0 
1 0 139.69999999999999 0 0 0 1 
1 0 0 0 -0 1 0 
1 38.099999999999994 0 0 0 0 1 
1 38.099999999999994 0 2095.5 -0 1 0 
1 38.099999999999994 139.69999999999999 0 0 0 1 
1 38.099999999999994 0 0 -0 1 0 
1 0 0 0 1 0 -0 
1 0 0 2095.5 1 0 -0 
1 0 139.69999999999999 0 1 0 -0 
1 0 139.69999999999999 2095.5 1 0 -0 
1 0 0 0 0 0 1 
1 0 0 2095.5 -0 1 0 
1 0 139.69999999999999 0 0 0 1 
1 0 0 0 -0 1 0 
1 38.099999999999994 0 0 0 0 1 
1 38.099999999999994 0 2095.5 -0 1 0 
1 38.099999999999994 139.69999999999999 0 0 0 1 
1 38.099999999999994 0 0 -0 1 0 
1 0 0 0 1 0 -0 
1 0 0 2095.5 1 0 -0 
1 0 139.69999999999999 0 1 0 -0 
1 0 139.69999999999999 2095.5 1 0 -0 
1 0 0 0 0 0 1 
1 0 0 285.75 -0 1 0 
1 0 139.69999999999999 0 0 0 1 
1 0 0 0 -0 1 0 
1 2514.5999999999995 0 0 0 0 1 
1 2514.5999999999995 0 285.75 -0 1 0 
1 2514.5999999999995 139.69999999999999 0 0 0 1 
1 2514.5999999999995 0 0 -0 1 0 
1 0 0 0 1 0 -0 
1 0 0 285.75 1 0 -0 
1 0 139.69999999999999 0 1 0 -0 
1 0 139.69999999999999 285.75 1 0 -0 
1 0 0 0 0 0 1 
1 0 0 2438.3999999999996 -0 1 0 
1 0 11.112499999999999 0 0 0 1 
1 0 0 0 -0 1 0 
1 0 0 0 1 0 -0 
1 152.40000000000009 -11.112499999999999 0 -0 0 -1 
1 76.200000000000045 -11.112499999999999 2133.5999999999999 1 0 -0 
1 2590.7999999999997 -11.112499999999999 0 -0 0 -1 
1 0 0 0 1 0 -0 
1 2743.1999999999998 0 0 0 0 1 
1 0 0 2438.3999999999996 1 0 -0 
1 0 11.112499999999999 2438.3999999999996 1 0 -0 
1 2743.1999999999998 0 2438.3999999999996 -0 1 0 
1 0 11.112499999999999 0 1 0 -0 
1 152.40000000000009 0 0 -0 0 -1 
1 76.200000000000045 0 2133.5999999999999 1 0 -0 
1 2590.7999999999997 0 0 -0 0 -1 
1 0 11.112499999999999 0 1 0 -0 
1 2743.1999999999998 11.112499999999999 0 0 0 1 
1 0 0 0 -0 1 0 
1 0 0 2133.5999999999999 -0 1 0 
1 2438.3999999999996 0 2133.5999999999999 -0 1 0 
1 2438.3999999999996 0 0 -0 1 0 
1 2743.1999999999998 0 0 -0 1 0 
Polygon3D 0
PolygonOnTriangulations 0
Surfaces 58
1 0 0 0 1 0 -0 0 0 1 0 -1 0 
1 0 0 0 -0 1 0 0 0 1 1 0 -0 
1 0 0 38.099999999999994 0 0 1 1 0 -0 -0 1 0 
1 0 139.69999999999999 0 -0 1 0 0 0 1 1 0 -0 
1 0 0 0 0 0 1 1 0 -0 -0 1 0 
1 152.40000000000009 0 0 1 0 -0 0 0 1 0 -1 0 
1 0 0 0 1 0 -0 0 0 1 0 -1 0 
1 0 0 0 -0 1 0 0 0 1 1 0 -0 
1 0 0 38.099999999999994 0 0 1 1 0 -0 -0 1 0 
1 0 139.69999999999999 0 -0 1 0 0 0 1 1 0 -0 
1 0 0 0 0 0 1 1 0 -0 -0 1 0 
1 152.40000000000009 0 0 1 0 -0 0 0 1 0 -1 0 
1 0 0 0 1 0 -0 0 0 1 0 -1 0 
1 0 0 0 -0 1 0 0 0 1 1 0 -0 
1 0 0 38.099999999999994 0 0 1 1 0 -0 -0 1 0 
1 0 139.69999999999999 0 -0 1 0 0 0 1 1 0 -0 
1 0 0 0 0 0 1 1 0 -0 -0 1 0 
1 2743.1999999999998 0 0 1 0 -0 0 0 1 0 -1 0 
1 0 0 0 1 0 -0 0 0 1 0 -1 0 
1 0 0 0 -0 1 0 0 0 1 1 0 -0 
1 0 0 2362.1999999999998 0 0 1 1 0 -0 -0 1 0 
1 0 139.69999999999999 0 -0 1 0 0 0 1 1 0 -0 
1 0 0 0 0 0 1 1 0 -0 -0 1 0 
1 38.099999999999994 0 0 1 0 -0 0 0 1 0 -1 0 
1 0 0 0 1 0 -0 0 0 1 0 -1 0 
1 0 0 0 -0 1 0 0 0 1 1 0 -0 
1 0 0 2362.1999999999998 0 0 1 1 0 -0 -0 1 0 
1 0 139.69999999999999 0 -0 1 0 0 0 1 1 0 -0 
1 0 0 0 0 0 1 1 0 -0 -0 1 0 
1 38.099999999999994 0 0 1 0 -0 0 0 1 0 -1 0 
1 0 0 0 1 0 -0 0 0 1 0 -1 0 
1 0 0 0 -0 1 0 0 0 1 1 0 -0 
1 0 0 2095.5 0 0 1 1 0 -0 -0 1 0 
1 0 139.69999999999999 0 -0 1 0 0 0 1 1 0 -0 
1 0 0 0 0 0 1 1 0 -0 -0 1 0 
1 38.099999999999994 0 0 1 0 -0 0 0 1 0 -1 0 
1 0 0 0 1 0 -0 0 0 1 0 -1 0 
1 0 0 0 -0 1 0 0 0 1 1 0 -0 
1 0 0 2095.5 0 0 1 1 0 -0 -0 1 0 
1 0 139.69999999999999 0 -0 1 0 0 0 1 1 0 -0 
1 0 0 0 0 0 1 1 0 -0 -0 1 0 
1 38.099999999999994 0 0 1 0 -0 0 0 1 0 -1 0 
1 0 0 0 1 0 -0 0 0 1 0 -1 0 
1 0 0 0 -0 1 0 0 0 1 1 0 -0 
1 0 0 285.75 0 0 1 1 0 -0 -0 1 0 
1 0 139.69999999999999 0 -0 1 0 0 0 1 1 0 -0 
1 0 0 0 0 0 1 1 0 -0 -0 1 0 
1 2514.5999999999995 0 0 1 0 -0 0 0 1 0 -1 0 
1 0 0 0 1 0 -0 0 0 1 0 -1 0 
1 0 0 0 -0 1 0 0 0 1 1 0 -0 
1 0 0 2438.3999999999996 0 0 1 1 0 -0 -0 1 0 
1 0 11.112499999999999 0 -0 1 0 0 0 1 1 0 -0 
1 0 0 0 0 0 1 1 0 -0 -0 1 0 
1 0 0 0 1 0 -0 0 0 1 0 -1 0 
1 0 0 2133.5999999999999 0 0 1 1 0 -0 -0 1 0 
1 2438.3999999999996 0 0 1 0 -0 0 0 1 0 -1 0 
1 0 0 0 0 0 1 1 0 -0 -0 1 0 
1 2743.1999999999998 0 0 1 0 -0 0 0 1 0 -1 0 
Triangulations 0

TShapes 336
Ve
1e-07
0 0 38.1
0 0

0101101
*
Ve
1e-07
0 0 0
0 0

0101101
*
Ed
 1e-07 1 1 0
1  1 0 0 38.1
2  1 1 0 0 38.1
2  2 2 0 0 38.1
0

0101000
-336 6 +335 6 *
Ve
1e-07
0 139.7 38.1
0 0

0101101
*
Ed
 1e-07 1 1 0
1  2 0 0 139.7
2  3 1 0 0 139.7
2  4 3 0 0 139.7
0

0101000
-333 6 +336 6 *
Ve
1e-07
0 139.7 0
0 0

0101101
*
Ed
 1e-07 1 1 0
1  3 0 0 38.1
2  5 1 0 0 38.1
2  6 4 0 0 38.1
0

0101000
-333 6 +331 6 *
Ed
 1e-07 1 1 0
1  4 0 0 139.7
2  7 1 0 0 139.7
2  8 5 0 0 139.7
0

0101000
-331 6 +335 6 *
Wi

0101100
-334 0 -332 0 +330 0 +329 0 *
Fa
0  1e-07 1 0

0111000
+328 0 *
Ve
1e-07
152.4 0 38.1
0 0

0101101
*
Ve
1e-07
152.4 0 0
0 0

0101101
*
Ed
 1e-07 1 1 0
1  5 0 0 38.1
2  9 6 0 0 38.1
2  10 2 0 0 38.1
0

0101000
-326 6 +325 6 *
Ve
1e-07
152.4 139.7 38.1
0 0

0101101
*
Ed
 1e-07 1 1 0
1  6 0 0 139.7
2  11 6 0 0 139.7
2  12 3 0 0 139.7
0

0101000
-323 6 +326 6 *
Ve
1e-07
152.4 139.7 0
0 0

0101101
*
Ed
 1e-07 1 1 0
1  7 0 0 38.1
2  13 6 0 0 38.1
2  14 4 0 0 38.1
0

0101000
-323 6 +321 6 *
Ed
 1e-07 1 1 0
1  8 0 0 139.7
2  15 6 0 0 139.7
2  16 5 0 0 139.7
0

0101000
-321 6 +325 6 *
Wi

0101100
-324 0 -322 0 +320 0 +319 0 *
Fa
0  1e-07 6 0

0111000
+318 0 *
Ed
 1e-07 1 1 0
1  9 0 0 152.4
2  17 2 0 0 152.4
2  18 5 0 0 152.4
0

0101000
-325 6 +335 6 *
Ed
 1e-07 1 1 0
1  10 0 0 152.4
2  19 2 0 0 152.4
2  20 3 0 0 152.4
0

0101000
-326 6 +336 6 *
Wi

0101100
-316 0 -324 0 +315 0 +334 0 *
Fa
0  1e-07 2 0

0111000
+314 0 *
Ed
 1e-07 1 1 0
1  11 0 0 152.4
2  21 4 0 0 152.4
2  22 5 0 0 152.4
0

0101000
-321 6 +331 6 *
Ed
 1e-07 1 1 0
1  12 0 0 152.4
2  23 4 0 0 152.4
2  24 3 0 0 152.4
0

0101000
-323 6 +333 6 *
Wi

0101100
-312 0 -320 0 +311 0 +330 0 *
Fa
0  1e-07 4 0

0111000
+310 0 *
Wi

0101100
-329 0 -312 0 +319 0 +316 0 *
Fa
0  1e-07 5 0

0111000
+308 0 *
Wi

0101100
-332 0 -311 0 +322 0 +315 0 *
Fa
0  1e-07 3 0

0111000
+306 0 *
Sh

0101100
-327 0 +317 0 -313 0 +309 0 -307 0 +305 0 *
So

0100000
+304 0 *
Ve
1e-07
2590.8 0 38.1
0 0

0101101
*
Ve
1e-07
2590.8 0 0
0 0

0101101
*
Ed
 1e-07 1 1 0
1  13 0 0 38.1
2  25 7 0 0 38.1
2  26 8 0 0 38.1
0

0101000
-302 8 +301 8 *
Ve
1e-07
2590.8 139.7 38.1
0 0

0101101
*
Ed
 1e-07 1 1 0
1  14 0 0 139.7
2  27 7 0 0 139.7
2  28 9 0 0 139.7
0

0101000
-299 8 +302 8 *
Ve
1e-07
2590.8 139.7 0
0 0

0101101
*
Ed
 1e-07 1 1 0
1  15 0 0 38.1
2  29 7 0 0 38.1
2  30 10 0 0 38.1
0

0101000
-299 8 +297 8 *
Ed
 1e-07 1 1 0
1  16 0 0 139.7
2  31 7 0 0 139.7
2  32 11 0 0 139.7
0

0101000
-297 8 +301 8 *
Wi

0101100
-300 0 -298 0 +296 0 +295 0 *
Fa
0  1e-07 7 0

0111000
+294 0 *
Ve
1e-07
2743.2 0 38.1
0 0

0101101
*
Ve
1e-07
2743.2 0 0
0 0

0101101
*
Ed
 1e-07 1 1 0
1  17 0 0 38.1
2  33 12 0 0 38.1
2  34 8 0 0 38.1
0

0101000
-292 8 +291 8 *
Ve
1e-07
2743.2 139.7 38.1
0 0

0101101
*
Ed
 1e-07 1 1 0
1  18 0 0 139.7
2  35 12 0 0 139.7
2  36 9 0 0 139.7
0

0101000
-289 8 +292 8 *
Ve
1e-07
2743.2 139.7 0
0 0

0101101
*
Ed
 1e-07 1 1 0
1  19 0 0 38.1
2  37 12 0 0 38.1
2  38 10 0 0 38.1
0

0101000
-289 8 +287 8 *
Ed
 1e-07 1 1 0
1  20 0 0 139.7
2  39 12 0 0 139.7
2  40 11 0 0 139.7
0

0101000
-287 8 +291 8 *
Wi

0101100
-290 0 -288 0 +286 0 +285 0 *
Fa
0  1e-07 12 0

0111000
+284 0 *
Ed
 1e-07 1 1 0
1  21 0 0 152.4
2  41 8 0 0 152.4
2  42 11 0 0 152.4
0

0101000
-291 8 +301 8 *
Ed
 1e-07 1 1 0
1  22 0 0 152.4
2  43 8 0 0 152.4
2  44 9 0 0 152.4
0

0101000
-292 8 +302 8 *
Wi

0101100
-282 0 -290 0 +281 0 +300 0 *
Fa
0  1e-07 8 0

0111000
+280 0 *
Ed
 1e-07 1 1 0
1  23 0 0 152.4
2  45 10 0 0 152.4
2  46 11 0 0 152.4
0

0101000
-287 8 +297 8 *
Ed
 1e-07 1 1 0
1  24 0 0 152.4
2  47 10 0 0 152.4
2  48 9 0 0 152.4
0

0101000
-289 8 +299 8 *
Wi

0101100
-278 0 -286 0 +277 0 +296 0 *
Fa
0  1e-07 10 0

0111000
+276 0 *
Wi

0101100
-295 0 -278 0 +285 0 +282 0 *
Fa
0  1e-07 11 0

0111000
+274 0 *
Wi

0101100
-298 0 -277 0 +288 0 +281 0 *
Fa
0  1e-07 9 0

0111000
+272 0 *
Sh

0101100
-293 0 +283 0 -279 0 +275 0 -273 0 +271 0 *
So

0100000
+270 0 *
Ve
1e-07
0 0 2438.4
0 0

0101101
*
Ve
1e-07
0 0 2400.3
0 0

0101101
*
Ed
 1e-07 1 1 0
1  25 0 0 38.1
2  49 13 0 0 38.1
2  50 14 0 0 38.1
0

0101000
-268 10 +267 10 *
Ve
1e-07
0 139.7 2438.4
0 0

0101101
*
Ed
 1e-07 1 1 0
1  26 0 0 139.7
2  51 13 0 0 139.7
2  52 15 0 0 139.7
0

0101000
-265 10 +268 10 *
Ve
1e-07
0 139.7 2400.3
0 0

0101101
*
Ed
 1e-07 1 1 0
1  27 0 0 38.1
2  53 13 0 0 38.1
2  54 16 0 0 38.1
0

0101000
-265 10 +263 10 *
Ed
 1e-07 1 1 0
1  28 0 0 139.7
2  55 13 0 0 139.7
2  56 17 0 0 139.7
0

0101000
-263 10 +267 10 *
Wi

0101100
-266 0 -264 0 +262 0 +261 0 *
Fa
0  1e-07 13 0

0111000
+260 0 *
Ve
1e-07
2743.2 0 2438.4
0 0

0101101
*
Ve
1e-07
2743.2 0 2400.3
0 0

0101101
*
Ed
 1e-07 1 1 0
1  29 0 0 38.1
2  57 18 0 0 38.1
2  58 14 0 0 38.1
0

0101000
-258 10 +257 10 *
Ve
1e-07
2743.2 139.7 2438.4
0 0

0101101
*
Ed
 1e-07 1 1 0
1  30 0 0 139.7
2  59 18 0 0 139.7
2  60 15 0 0 139.7
0

0101000
-255 10 +258 10 *
Ve
1e-07
2743.2 139.7 2400.3
0 0

0101101
*
Ed
 1e-07 1 1 0
1  31 0 0 38.1
2  61 18 0 0 38.1
2  62 16 0 0 38.1
0

0101000
-255 10 +253 10 *
Ed
 1e-07 1 1 0
1  32 0 0 139.7
2  63 18 0 0 139.7
2  64 17 0 0 139.7
0

0101000
-253 10 +257 10 *
Wi

0101100
-256 0 -254 0 +252 0 +251 0 *
Fa
0  1e-07 18 0

0111000
+250 0 *
Ed
 1e-07 1 1 0
1  33 0 0 2743.2
2  65 14 0 0 2743.2
2  66 17 0 0 2743.2
0

0101000
-257 10 +267 10 *
Ed
 1e-07 1 1 0
1  34 0 0 2743.2
2  67 14 0 0 2743.2
2  68 15 0 0 2743.2
0

0101000
-258 10 +268 10 *
Wi

0101100
-248 0 -256 0 +247 0 +266 0 *
Fa
0  1e-07 14 0

0111000
+246 0 *
Ed
 1e-07 1 1 0
1  35 0 0 2743.2
2  69 16 0 0 2743.2
2  70 17 0 0 2743.2
0

0101000
-253 10 +263 10 *
Ed
 1e-07 1 1 0
1  36 0 0 2743.2
2  71 16 0 0 2743.2
2  72 15 0 0 2743.2
0

0101000
-255 10 +265 10 *
Wi

0101100
-244 0 -252 0 +243 0 +262 0 *
Fa
0  1e-07 16 0

0111000
+242 0 *
Wi

0101100
-261 0 -244 0 +251 0 +248 0 *
Fa
0  1e-07 17 0

0111000
+240 0 *
Wi

0101100
-264 0 -243 0 +254 0 +247 0 *
Fa
0  1e-07 15 0

0111000
+238 0 *
Sh

0101100
-259 0 +249 0 -245 0 +241 0 -239 0 +237 0 *
So

0100000
+236 0 *
Ve
1e-07
0 0 2400.3
0 0

0101101
*
Ve
1e-07
0 0 38.1
0 0

0101101
*
Ed
 1e-07 1 1 0
1  37 0 0 2362.2
2  73 19 0 0 2362.2
2  74 20 0 0 2362.2
0

0101000
-234 12 +233 12 *
Ve
1e-07
0 139.7 2400.3
0 0

0101101
*
Ed
 1e-07 1 1 0
1  38 0 0 139.7
2  75 19 0 0 139.7
2  76 21 0 0 139.7
0

0101000
-231 12 +234 12 *
Ve
1e-07
0 139.7 38.1
0 0

0101101
*
Ed
 1e-07 1 1 0
1  39 0 0 2362.2
2  77 19 0 0 2362.2
2  78 22 0 0 2362.2
0

0101000
-231 12 +229 12 *
Ed
 1e-07 1 1 0
1  40 0 0 139.7
2  79 19 0 0 139.7
2  80 23 0 0 139.7
0

0101000
-229 12 +233 12 *
Wi

0101100
-232 0 -230 0 +228 0 +227 0 *
Fa
0  1e-07 19 0

0111000
+226 0 *
Ve
1e-07
38.1 0 2400.3
0 0

0101101
*
Ve
1e-07
38.1 0 38.1
0 0

0101101
*
Ed
 1e-07 1 1 0
1  41 0 0 2362.2
2  81 24 0 0 2362.2
2  82 20 0 0 2362.2
0

0101000
-224 12 +223 12 *
Ve
1e-07
38.1 139.7 2400.3
0 0

0101101
*
Ed
 1e-07 1 1 0
1  42 0 0 139.7
2  83 24 0 0 139.7
2  84 21 0 0 139.7
0

0101000
-221 12 +224 12 *
Ve
1e-07
38.1 139.7 38.1
0 0

0101101
*
Ed
 1e-07 1 1 0
1  43 0 0 2362.2
2  85 24 0 0 2362.2
2  86 22 0 0 2362.2
0

0101000
-221 12 +219 12 *
Ed
 1e-07 1 1 0
1  44 0 0 139.7
2  87 24 0 0 139.7
2  88 23 0 0 139.7
0

0101000
-219 12 +223 12 *
Wi

0101100
-222 0 -220 0 +218 0 +217 0 *
Fa
0  1e-07 24 0

0111000
+216 0 *
Ed
 1e-07 1 1 0
1  45 0 0 38.1
2  89 20 0 0 38.1
2  90 23 0 0 38.1
0

0101000
-223 12 +233 12 *
Ed
 1e-07 1 1 0
1  46 0 0 38.1
2  91 20 0 0 38.1
2  92 21 0 0 38.1
0

0101000
-224 12 +234 12 *
Wi

0101100
-214 0 -222 0 +213 0 +232 0 *
Fa
0  1e-07 20 0

0111000
+212 0 *
Ed
 1e-07 1 1 0
1  47 0 0 38.1
2  93 22 0 0 38.1
2  94 23 0 0 38.1
0

0101000
-219 12 +229 12 *
Ed
 1e-07 1 1 0
1  48 0 0 38.1
2  95 22 0 0 38.1
2  96 21 0 0 38.1
0

0101000
-221 12 +231 12 *
Wi

0101100
-210 0 -218 0 +209 0 +228 0 *
Fa
0  1e-07 22 0

0111000
+208 0 *
Wi

0101100
-227 0 -210 0 +217 0 +214 0 *
Fa
0  1e-07 23 0

0111000
+206 0 *
Wi

0101100
-230 0 -209 0 +220 0 +213 0 *
Fa
0  1e-07 21 0

0111000
+204 0 *
Sh

0101100
-225 0 +215 0 -211 0 +207 0 -205 0 +203 0 *
So

0100000
+202 0 *
Ve
1e-07
2705.1 0 2400.3
0 0

0101101
*
Ve
1e-07
2705.1 0 38.1
0 0

0101101
*
Ed
 1e-07 1 1 0
1  49 0 0 2362.2
2  97 25 0 0 2362.2
2  98 26 0 0 2362.2
0

0101000
-200 14 +199 14 *
Ve
1e-07
2705.1 139.7 2400.3
0 0

0101101
*
Ed
 1e-07 1 1 0
1  50 0 0 139.7
2  99 25 0 0 139.7
2  100 27 0 0 139.7
0

0101000
-197 14 +200 14 *
Ve
1e-07
2705.1 139.7 38.1
0 0

0101101
*
Ed
 1e-07 1 1 0
1  51 0 0 2362.2
2  101 25 0 0 2362.2
2  102 28 0 0 2362.2
0

0101000
-197 14 +195 14 *
Ed
 1e-07 1 1 0
1  52 0 0 139.7
2  103 25 0 0 139.7
2  104 29 0 0 139.7
0

0101000
-195 14 +199 14 *
Wi

0101100
-198 0 -196 0 +194 0 +193 0 *
Fa
0  1e-07 25 0

0111000
+192 0 *
Ve
1e-07
2743.2 0 2400.3
0 0

0101101
*
Ve
1e-07
2743.2 0 38.1
0 0

0101101
*
Ed
 1e-07 1 1 0
1  53 0 0 2362.2
2  105 30 0 0 2362.2
2  106 26 0 0 2362.2
0

0101000
-190 14 +189 14 *
Ve
1e-07
2743.2 139.7 2400.3
0 0

0101101
*
Ed
 1e-07 1 1 0
1  54 0 0 139.7
2  107 30 0 0 139.7
2  108 27 0 0 139.7
0

0101000
-187 14 +190 14 *
Ve
1e-07
2743.2 139.7 38.1
0 0

0101101
*
Ed
 1e-07 1 1 0
1  55 0 0 2362.2
2  109 30 0 0 2362.2
2  110 28 0 0 2362.2
0

0101000
-187 14 +185 14 *
Ed
 1e-07 1 1 0
1  56 0 0 139.7
2  111 30 0 0 139.7
2  112 29 0 0 139.7
0

0101000
-185 14 +189 14 *
Wi

0101100
-188 0 -186 0 +184 0 +183 0 *
Fa
0  1e-07 30 0

0111000
+182 0 *
Ed
 1e-07 1 1 0
1  57 0 0 38.1
2  113 26 0 0 38.1
2  114 29 0 0 38.1
0

0101000
-189 14 +199 14 *
Ed
 1e-07 1 1 0
1  58 0 0 38.1
2  115 26 0 0 38.1
2  116 27 0 0 38.1
0

0101000
-190 14 +200 14 *
Wi

0101100
-180 0 -188 0 +179 0 +198 0 *
Fa
0  1e-07 26 0

0111000
+178 0 *
Ed
 1e-07 1 1 0
1  59 0 0 38.1
2  117 28 0 0 38.1
2  118 29 0 0 38.1
0

0101000
-185 14 +195 14 *
Ed
 1e-07 1 1 0
1  60 0 0 38.1
2  119 28 0 0 38.1
2  120 27 0 0 38.1
0

0101000
-187 14 +197 14 *
Wi

0101100
-176 0 -184 0 +175 0 +194 0 *
Fa
0  1e-07 28 0

0111000
+174 0 *
Wi

0101100
-193 0 -176 0 +183 0 +180 0 *
Fa
0  1e-07 29 0

0111000
+172 0 *
Wi

0101100
-196 0 -175 0 +186 0 +179 0 *
Fa
0  1e-07 27 0

0111000
+170 0 *
Sh

0101100
-191 0 +181 0 -177 0 +173 0 -171 0 +169 0 *
So

0100000
+168 0 *
Ve
1e-07
114.3 0 2133.6
0 0

0101101
*
Ve
1e-07
114.3 0 38.1
0 0

0101101
*
Ed
 1e-07 1 1 0
1  61 0 0 2095.5
2  121 31 0 0 2095.5
2  122 32 0 0 2095.5
0

0101000
-166 16 +165 16 *
Ve
1e-07
114.3 139.7 2133.6
0 0

0101101
*
Ed
 1e-07 1 1 0
1  62 0 0 139.7
2  123 31 0 0 139.7
2  124 33 0 0 139.7
0

0101000
-163 16 +166 16 *
Ve
1e-07
114.3 139.7 38.1
0 0

0101101
*
Ed
 1e-07 1 1 0
1  63 0 0 2095.5
2  125 31 0 0 2095.5
2  126 34 0 0 2095.5
0

0101000
-163 16 +161 16 *
Ed
 1e-07 1 1 0
1  64 0 0 139.7
2  127 31 0 0 139.7
2  128 35 0 0 139.7
0

0101000
-161 16 +165 16 *
Wi

0101100
-164 0 -162 0 +160 0 +159 0 *
Fa
0  1e-07 31 0

0111000
+158 0 *
Ve
1e-07
152.4 0 2133.6
0 0

0101101
*
Ve
1e-07
152.4 0 38.1
0 0

0101101
*
Ed
 1e-07 1 1 0
1  65 0 0 2095.5
2  129 36 0 0 2095.5
2  130 32 0 0 2095.5
0

0101000
-156 16 +155 16 *
Ve
1e-07
152.4 139.7 2133.6
0 0

0101101
*
Ed
 1e-07 1 1 0
1  66 0 0 139.7
2  131 36 0 0 139.7
2  132 33 0 0 139.7
0

0101000
-153 16 +156 16 *
Ve
1e-07
152.4 139.7 38.1
0 0

0101101
*
Ed
 1e-07 1 1 0
1  67 0 0 2095.5
2  133 36 0 0 2095.5
2  134 34 0 0 2095.5
0

0101000
-153 16 +151 16 *
Ed
 1e-07 1 1 0
1  68 0 0 139.7
2  135 36 0 0 139.7
2  136 35 0 0 139.7
0

0101000
-151 16 +155 16 *
Wi

0101100
-154 0 -152 0 +150 0 +149 0 *
Fa
0  1e-07 36 0

0111000
+148 0 *
Ed
 1e-07 1 1 0
1  69 0 0 38.1
2  137 32 0 0 38.1
2  138 35 0 0 38.1
0

0101000
-155 16 +165 16 *
Ed
 1e-07 1 1 0
1  70 0 0 38.1
2  139 32 0 0 38.1
2  140 33 0 0 38.1
0

0101000
-156 16 +166 16 *
Wi

0101100
-146 0 -154 0 +145 0 +164 0 *
Fa
0  1e-07 32 0

0111000
+144 0 *
Ed
 1e-07 1 1 0
1  71 0 0 38.1
2  141 34 0 0 38.1
2  142 35 0 0 38.1
0

0101000
-151 16 +161 16 *
Ed
 1e-07 1 1 0
1  72 0 0 38.1
2  143 34 0 0 38.1
2  144 33 0 0 38.1
0

0101000
-153 16 +163 16 *
Wi

0101100
-142 0 -150 0 +141 0 +160 0 *
Fa
0  1e-07 34 0

0111000
+140 0 *
Wi

0101100
-159 0 -142 0 +149 0 +146 0 *
Fa
0  1e-07 35 0

0111000
+138 0 *
Wi

0101100
-162 0 -141 0 +152 0 +145 0 *
Fa
0  1e-07 33 0

0111000
+136 0 *
Sh

0101100
-157 0 +147 0 -143 0 +139 0 -137 0 +135 0 *
So

0100000
+134 0 *
Ve
1e-07
2590.8 0 2133.6
0 0

0101101
*
Ve
1e-07
2590.8 0 38.1
0 0

0101101
*
Ed
 1e-07 1 1 0
1  73 0 0 2095.5
2  145 37 0 0 2095.5
2  146 38 0 0 2095.5
0

0101000
-132 18 +131 18 *
Ve
1e-07
2590.8 139.7 2133.6
0 0

0101101
*
Ed
 1e-07 1 1 0
1  74 0 0 139.7
2  147 37 0 0 139.7
2  148 39 0 0 139.7
0

0101000
-129 18 +132 18 *
Ve
1e-07
2590.8 139.7 38.1
0 0

0101101
*
Ed
 1e-07 1 1 0
1  75 0 0 2095.5
2  149 37 0 0 2095.5
2  150 40 0 0 2095.5
0

0101000
-129 18 +127 18 *
Ed
 1e-07 1 1 0
1  76 0 0 139.7
2  151 37 0 0 139.7
2  152 41 0 0 139.7
0

0101000
-127 18 +131 18 *
Wi

0101100
-130 0 -128 0 +126 0 +125 0 *
Fa
0  1e-07 37 0

0111000
+124 0 *
Ve
1e-07
2628.9 0 2133.6
0 0

0101101
*
Ve
1e-07
2628.9 0 38.1
0 0

0101101
*
Ed
 1e-07 1 1 0
1  77 0 0 2095.5
2  153 42 0 0 2095.5
2  154 38 0 0 2095.5
0

0101000
-122 18 +121 18 *
Ve
1e-07
2628.9 139.7 2133.6
0 0

0101101
*
Ed
 1e-07 1 1 0
1  78 0 0 139.7
2  155 42 0 0 139.7
2  156 39 0 0 139.7
0

0101000
-119 18 +122 18 *
Ve
1e-07
2628.9 139.7 38.1
0 0

0101101
*
Ed
 1e-07 1 1 0
1  79 0 0 2095.5
2  157 42 0 0 2095.5
2  158 40 0 0 2095.5
0

0101000
-119 18 +117 18 *
Ed
 1e-07 1 1 0
1  80 0 0 139.7
2  159 42 0 0 139.7
2  160 41 0 0 139.7
0

0101000
-117 18 +121 18 *
Wi

0101100
-120 0 -118 0 +116 0 +115 0 *
Fa
0  1e-07 42 0

0111000
+114 0 *
Ed
 1e-07 1 1 0
1  81 0 0 38.1
2  161 38 0 0 38.1
2  162 41 0 0 38.1
0

0101000
-121 18 +131 18 *
Ed
 1e-07 1 1 0
1  82 0 0 38.1
2  163 38 0 0 38.1
2  164 39 0 0 38.1
0

0101000
-122 18 +132 18 *
Wi

0101100
-112 0 -120 0 +111 0 +130 0 *
Fa
0  1e-07 38 0

0111000
+110 0 *
Ed
 1e-07 1 1 0
1  83 0 0 38.1
2  165 40 0 0 38.1
2  166 41 0 0 38.1
0

0101000
-117 18 +127 18 *
Ed
 1e-07 1 1 0
1  84 0 0 38.1
2  167 40 0 0 38.1
2  168 39 0 0 38.1
0

0101000
-119 18 +129 18 *
Wi

0101100
-108 0 -116 0 +107 0 +126 0 *
Fa
0  1e-07 40 0

0111000
+106 0 *
Wi

0101100
-125 0 -108 0 +115 0 +112 0 *
Fa
0  1e-07 41 0

0111000
+104 0 *
Wi

0101100
-128 0 -107 0 +118 0 +111 0 *
Fa
0  1e-07 39 0

0111000
+102 0 *
Sh

0101100
-123 0 +113 0 -109 0 +105 0 -103 0 +101 0 *
So

0100000
+100 0 *
Ve
1e-07
114.3 0 2419.35
0 0

0101101
*
Ve
1e-07
114.3 0 2133.6
0 0

0101101
*
Ed
 1e-07 1 1 0
1  85 0 0 285.75
2  169 43 0 0 285.75
2  170 44 0 0 285.75
0

0101000
-98 20 +97 20 *
Ve
1e-07
114.3 139.7 2419.35
0 0

0101101
*
Ed
 1e-07 1 1 0
1  86 0 0 139.7
2  171 43 0 0 139.7
2  172 45 0 0 139.7
0

0101000
-95 20 +98 20 *
Ve
1e-07
114.3 139.7 2133.6
0 0

0101101
*
Ed
 1e-07 1 1 0
1  87 0 0 285.75
2  173 43 0 0 285.75
2  174 46 0 0 285.75
0

0101000
-95 20 +93 20 *
Ed
 1e-07 1 1 0
1  88 0 0 139.7
2  175 43 0 0 139.7
2  176 47 0 0 139.7
0

0101000
-93 20 +97 20 *
Wi

0101100
-96 0 -94 0 +92 0 +91 0 *
Fa
0  1e-07 43 0

0111000
+90 0 *
Ve
1e-07
2628.9 0 2419.35
0 0

0101101
*
Ve
1e-07
2628.9 0 2133.6
0 0

0101101
*
Ed
 1e-07 1 1 0
1  89 0 0 285.75
2  177 48 0 0 285.75
2  178 44 0 0 285.75
0

0101000
-88 20 +87 20 *
Ve
1e-07
2628.9 139.7 2419.35
0 0

0101101
*
Ed
 1e-07 1 1 0
1  90 0 0 139.7
2  179 48 0 0 139.7
2  180 45 0 0 139.7
0

0101000
-85 20 +88 20 *
Ve
1e-07
2628.9 139.7 2133.6
0 0

0101101
*
Ed
 1e-07 1 1 0
1  91 0 0 285.75
2  181 48 0 0 285.75
2  182 46 0 0 285.75
0

0101000
-85 20 +83 20 *
Ed
 1e-07 1 1 0
1  92 0 0 139.7
2  183 48 0 0 139.7
2  184 47 0 0 139.7
0

0101000
-83 20 +87 20 *
Wi

0101100
-86 0 -84 0 +82 0 +81 0 *
Fa
0  1e-07 48 0

0111000
+80 0 *
Ed
 1e-07 1 1 0
1  93 0 0 2514.6
2  185 44 0 0 2514.6
2  186 47 0 0 2514.6
0

0101000
-87 20 +97 20 *
Ed
 1e-07 1 1 0
1  94 0 0 2514.6
2  187 44 0 0 2514.6
2  188 45 0 0 2514.6
0

0101000
-88 20 +98 20 *
Wi

0101100
-78 0 -86 0 +77 0 +96 0 *
Fa
0  1e-07 44 0

0111000
+76 0 *
Ed
 1e-07 1 1 0
1  95 0 0 2514.6
2  189 46 0 0 2514.6
2  190 47 0 0 2514.6
0

0101000
-83 20 +93 20 *
Ed
 1e-07 1 1 0
1  96 0 0 2514.6
2  191 46 0 0 2514.6
2  192 45 0 0 2514.6
0

0101000
-85 20 +95 20 *
Wi

0101100
-74 0 -82 0 +73 0 +92 0 *
Fa
0  1e-07 46 0

0111000
+72 0 *
Wi

0101100
-91 0 -74 0 +81 0 +78 0 *
Fa
0  1e-07 47 0

0111000
+70 0 *
Wi

0101100
-94 0 -73 0 +84 0 +77 0 *
Fa
0  1e-07 45 0

0111000
+68 0 *
Sh

0101100
-89 0 +79 0 -75 0 +71 0 -69 0 +67 0 *
So

0100000
+66 0 *
Ve
1e-07
0 -11.1125 2438.4
0 0

0101101
*
Ve
1e-07
0 -11.1125 0
0 0

0101101
*
Ed
 1e-07 1 1 0
1  97 0 0 2438.4
2  193 49 0 0 2438.4
2  194 50 0 0 2438.4
0

0101000
-64 22 +63 22 *
Ve
1e-07
0 0 2438.4
0 0

0101101
*
Ed
 1e-07 1 1 0
1  98 0 0 11.1125
2  195 49 0 0 11.1125
2  196 51 0 0 11.1125
0

0101000
-61 22 +64 22 *
Ve
1e-07
0 0 0
0 0

0101101
*
Ed
 1e-07 1 1 0
1  99 0 0 2438.4
2  197 49 0 0 2438.4
2  198 52 0 0 2438.4
0

0101000
-61 22 +59 22 *
Ed
 1e-07 1 1 0
1  100 0 0 11.1125
2  199 49 0 0 11.1125
2  200 53 0 0 11.1125
0

0101000
-59 22 +63 22 *
Wi

0101100
-62 0 -60 0 +58 0 +57 0 *
Fa
0  1e-07 49 0

0111000
+56 0 *
Ve
1.5e-07
152.4 -11.1125 0
0 0

0101101
*
Ed
 1e-07 1 1 0
1  101 0 0 152.4
2  201 50 0 0 152.4
2  202 53 0 0 152.4
0

0101000
+63 22 -54 22 *
Ve
1.5e-07
152.4 -11.1125 2133.6
0 0

0101101
*
Ed
 1.5e-07 1 1 0
1  102 0 -2133.6 0
2  203 50 21 -2133.6 0
2  204 54 23 -2133.6 0
0

0101000
+52 24 -54 24 *
Ve
1.50000454747351e-07
2590.8 -11.1125 2133.6
0 0

0101101
*
Ed
 1.5e-07 1 1 0
1  103 0 76.2 2514.6
2  205 50 21 76.2 2514.6
2  206 55 23 76.2 2514.6
0

0101000
+52 24 -50 24 *
Ve
1.5e-07
2590.8 -11.1125 0
0 0

0101101
*
Ed
 1.5e-07 1 1 0
1  104 0 -2133.6 0
2  207 50 21 -2133.6 0
2  208 56 23 -2133.6 0
0

0101000
+50 24 -48 24 *
Ve
1e-07
2743.2 -11.1125 0
0 0

0101101
*
Ed
 1e-07 1 1 0
1  105 0 2590.8 2743.2
2  209 50 0 2590.8 2743.2
2  210 57 0 2590.8 2743.2
0

0101000
+48 22 -46 22 *
Ve
1e-07
2743.2 -11.1125 2438.4
0 0

0101101
*
Ed
 1e-07 1 1 0
1  106 0 0 2438.4
2  211 50 0 0 2438.4
2  212 58 0 0 2438.4
0

0101000
-44 22 +46 22 *
Ed
 1e-07 1 1 0
1  107 0 0 2743.2
2  213 50 0 0 2743.2
2  214 51 0 0 2743.2
0

0101000
-44 22 +64 22 *
Wi

0101100
-53 21 +51 0 -49 0 -47 0 -45 21 -43 21 +42 21 +62 21 *
Fa
0  1e-07 50 21

0101000
+41 0 *
Ve
1e-07
2743.2 0 2438.4
0 0

0101101
*
Ed
 1e-07 1 1 0
1  108 0 0 2743.2
2  215 51 0 0 2743.2
2  216 52 0 0 2743.2
0

0101000
-39 22 +61 22 *
Ed
 1e-07 1 1 0
1  109 0 0 11.1125
2  217 51 0 0 11.1125
2  218 58 0 0 11.1125
0

0101000
-39 22 +44 22 *
Wi

0101100
-60 0 -38 0 +37 0 +42 0 *
Fa
0  1e-07 51 0

0111000
+36 0 *
Ve
1.5e-07
152.4 0 0
0 0

0101101
*
Ed
 1e-07 1 1 0
1  110 0 0 152.4
2  219 52 0 0 152.4
2  220 53 0 0 152.4
0

0101000
+59 22 -34 22 *
Ve
1.5e-07
152.4 0 2133.6
0 0

0101101
*
Ed
 1.5e-07 1 1 0
1  111 0 -2133.6 0
2  221 52 21 -2133.6 0
2  222 54 23 -2133.6 0
0

0101000
+32 24 -34 24 *
Ve
1.50000454747351e-07
2590.8 0 2133.6
0 0

0101101
*
Ed
 1.5e-07 1 1 0
1  112 0 76.2 2514.6
2  223 52 21 76.2 2514.6
2  224 55 23 76.2 2514.6
0

0101000
+32 24 -30 24 *
Ve
1.5e-07
2590.8 0 0
0 0

0101101
*
Ed
 1.5e-07 1 1 0
1  113 0 -2133.6 0
2  225 52 21 -2133.6 0
2  226 56 23 -2133.6 0
0

0101000
+30 24 -28 24 *
Ve
1e-07
2743.2 0 0
0 0

0101101
*
Ed
 1e-07 1 1 0
1  114 0 2590.8 2743.2
2  227 52 0 2590.8 2743.2
2  228 57 0 2590.8 2743.2
0

0101000
+28 22 -26 22 *
Ed
 1e-07 1 1 0
1  115 0 0 2438.4
2  229 52 0 0 2438.4
2  230 58 0 0 2438.4
0

0101000
-39 22 +26 22 *
Wi

0101100
-33 21 +31 0 -29 0 -27 0 -25 21 -24 21 +38 21 +58 21 *
Fa
0  1e-07 52 21

0101000
+23 0 *
Ed
 1e-07 1 1 0
1  116 0 1 12.1125
2  231 53 25 1 12.1125
2  232 54 0 1 12.1125
0

0101000
+54 26 -34 26 *
Wi

0101100
-33 21 +21 23 +53 21 -57 21 *
Fa
0  1e-07 53 21

0101000
+20 0 *
Ed
 1e-07 1 1 0
1  117 0 1 12.1125
2  233 54 0 1 12.1125
2  234 55 0 1 12.1125
0

0101000
+52 26 -32 26 *
Wi

0101100
-18 23 -31 0 +21 23 +51 0 *
Fa
0  1e-07 54 23

0101000
+17 0 *
Ed
 1e-07 1 1 0
1  118 0 1 12.1125
2  235 55 0 1 12.1125
2  236 56 0 1 12.1125
0

0101000
+50 26 -30 26 *
Wi

0101100
-18 23 -29 0 +15 23 +49 0 *
Fa
0  1e-07 55 23

0101000
+14 0 *
Ed
 1e-07 1 1 0
1  119 0 1 12.1125
2  237 56 0 1 12.1125
2  238 57 25 1 12.1125
0

0101000
+48 26 -28 26 *
Wi

0101100
-15 23 -27 0 +12 23 +47 0 *
Fa
0  1e-07 56 23

0101000
+11 0 *
Ed
 1e-07 1 1 0
1  120 0 0 11.1125
2  239 57 0 0 11.1125
2  240 58 0 0 11.1125
0

0101000
-26 22 +46 22 *
Wi

0101100
-25 21 +9 21 +45 21 -12 23 *
Fa
0  1e-07 57 21

0101000
+8 0 *
Wi

0101100
-43 0 -37 0 +24 0 +9 0 *
Fa
0  1e-07 58 0

0111000
+6 0 *
Sh

0101100
-55 21 -40 0 +35 21 +22 0 -19 0 +16 0 -13 0 -10 0 -7 0 +5 21 
*
So

0100000
+4 0 *
Co

0100000
+3 0 *
Co

1100000
+303 5 +269 7 +235 9 +201 11 +167 13 +133 15 +99 17 +65 19 +2 0 *

+1 4 