DBRep_DrawableShape

CASCADE Topology V1, (c) Matra-Datavision
Locations 24
1
              1               0               0               0 
              0               1               0               0 
              0               0               1               0 
1
1.11022302462516e-16              -1               0               0 
              1 1.11022302462516e-16               0               0 
              0               0               1               0 
1
              1               0               0            88.9 
              0               1               0              -0 
              0               0               1              -0 
2  1 1 2 1 3 1 0
1
              1               0               0               0 
              0               1               0               0 
              0               0               1               0 
2  1 -1 5 -1 0
1
              1               0               0          1092.2 
              0               1               0               0 
              0               0               1               0 
2  1 -1 7 -1 0
1
              1               0               0               0 
              0               1               0               0 
              0               0               1          2400.3 
2  1 -1 9 -1 0
1
              1               0               0               0 
              0               1               0               0 
              0               0               1            38.1 
2  1 -1 11 -1 0
1
              1               0               0          1181.1 
              0               1               0               0 
              0               0               1            38.1 
2  1 -1 13 -1 0
1
              1               0               0 88.8999999999999 
              0               1               0               0 
              0               0               1            38.1 
2  1 -1 15 -1 0
1
              1               0               0          1092.2 
              0               1               0               0 
              0               0               1            38.1 
2  1 -1 17 -1 0
1
              1               0               0 88.8999999999999 
              0               1               0               0 
              0               0               1          2108.2 
2  1 -1 19 -1 0
1
              1               0               0           406.4 
              0               1               0               0 
              0               0               1          2197.1 
2  1 -1 21 -1 0
1
              1               0               0           812.8 
              0               1               0               0 
              0               0               1          2197.1 
2  1 -1 23 -1 0
Curve2ds 240
1 0 0 1 0 
1 0 0 1 0 
1 38.099999999999994 0 0 -1 
1 0 0 0 1 
1 0 -88.899999999999991 1 0 
1 0 0 1 0 
1 0 0 0 -1 
1 0 0 0 1 
1 0 0 1 0 
1 0 126.99999999999994 1 0 
1 38.099999999999994 0 0 -1 
1 126.99999999999994 0 0 1 
1 0 -88.899999999999991 1 0 
1 0 126.99999999999994 1 0 
1 0 0 0 -1 
1 126.99999999999994 0 0 1 
1 0 0 0 1 
1 0 0 1 0 
1 38.099999999999994 0 0 1 
1 0 0 1 0 
1 0 0 0 1 
1 0 88.899999999999991 1 0 
1 38.099999999999994 0 0 1 
1 0 88.899999999999991 1 0 
1 0 0 1 0 
1 0 0 1 0 
1 38.099999999999994 0 0 -1 
1 0 0 0 1 
1 0 -88.899999999999991 1 0 
1 0 0 1 0 
1 0 0 0 -1 
1 0 0 0 1 
1 0 0 1 0 
1 0 127 1 0 
1 38.099999999999994 0 0 -1 
1 127 0 0 1 
1 0 -88.899999999999991 1 0 
1 0 127 1 0 
1 0 0 0 -1 
1 127 0 0 1 
1 0 0 0 1 
1 0 0 1 0 
1 38.099999999999994 0 0 1 
1 0 0 1 0 
1 0 0 0 1 
1 0 88.899999999999991 1 0 
1 38.099999999999994 0 0 1 
1 0 88.899999999999991 1 0 
1 0 0 1 0 
1 0 0 1 0 
1 38.099999999999994 0 0 -1 
1 0 0 0 1 
1 0 -88.899999999999991 1 0 
1 0 0 1 0 
1 0 0 0 -1 
1 0 0 0 1 
1 0 0 1 0 
1 0 1219.1999999999998 1 0 
1 38.099999999999994 0 0 -1 
1 1219.1999999999998 0 0 1 
1 0 -88.899999999999991 1 0 
1 0 1219.1999999999998 1 0 
1 0 0 0 -1 
1 1219.1999999999998 0 0 1 
1 0 0 0 1 
1 0 0 1 0 
1 38.099999999999994 0 0 1 
1 0 0 1 0 
1 0 0 0 1 
1 0 88.899999999999991 1 0 
1 38.099999999999994 0 0 1 
1 0 88.899999999999991 1 0 
1 0 0 1 0 
1 0 0 1 0 
1 2362.1999999999998 0 0 -1 
1 0 0 0 1 
1 0 -88.899999999999991 1 0 
1 0 0 1 0 
1 0 0 0 -1 
1 0 0 0 1 
1 0 0 1 0 
1 0 38.099999999999994 1 0 
1 2362.1999999999998 0 0 -1 
1 38.099999999999994 0 0 1 
1 0 -88.899999999999991 1 0 
1 0 38.099999999999994 1 0 
1 0 0 0 -1 
1 38.099999999999994 0 0 1 
1 0 0 0 1 
1 0 0 1 0 
1 2362.1999999999998 0 0 1 
1 0 0 1 0 
1 0 0 0 1 
1 0 88.899999999999991 1 0 
1 2362.1999999999998 0 0 1 
1 0 88.899999999999991 1 0 
1 0 0 1 0 
1 0 0 1 0 
1 2362.1999999999998 0 0 -1 
1 0 0 0 1 
1 0 -88.899999999999991 1 0 
1 0 0 1 0 
1 0 0 0 -1 
1 0 0 0 1 
1 0 0 1 0 
1 0 38.099999999999994 1 0 
1 2362.1999999999998 0 0 -1 
1 38.099999999999994 0 0 1 
1 0 -88.899999999999991 1 0 
1 0 38.099999999999994 1 0 
1 0 0 0 -1 
1 38.099999999999994 0 0 1 
1 0 0 0 1 
1 0 0 1 0 
1 2362.1999999999998 0 0 1 
1 0 0 1 0 
1 0 0 0 1 
1 0 88.899999999999991 1 0 
1 2362.1999999999998 0 0 1 
1 0 88.899999999999991 1 0 
1 0 0 1 0 
1 0 0 1 0 
1 2070.0999999999999 0 0 -1 
1 0 0 0 1 
1 0 -88.899999999999991 1 0 
1 0 0 1 0 
1 0 0 0 -1 
1 0 0 0 1 
1 0 0 1 0 
1 0 38.099999999999994 1 0 
1 2070.0999999999999 0 0 -1 
1 38.099999999999994 0 0 1 
1 0 -88.899999999999991 1 0 
1 0 38.099999999999994 1 0 
1 0 0 0 -1 
1 38.099999999999994 0 0 1 
1 0 0 0 1 
1 0 0 1 0 
1 2070.0999999999999 0 0 1 
1 0 0 1 0 
1 0 0 0 1 
1 0 88.899999999999991 1 0 
1 2070.0999999999999 0 0 1 
1 0 88.899999999999991 1 0 
1 0 0 1 0 
1 0 0 1 0 
1 2070.0999999999999 0 0 -1 
1 0 0 0 1 
1 0 -88.899999999999991 1 0 
1 0 0 1 0 
1 0 0 0 -1 
1 0 0 0 1 
1 0 0 1 0 
1 0 38.099999999999994 1 0 
1 2070.0999999999999 0 0 -1 
1 38.099999999999994 0 0 1 
1 0 -88.899999999999991 1 0 
1 0 38.099999999999994 1 0 
1 0 0 0 -1 
1 38.099999999999994 0 0 1 
1 0 0 0 1 
1 0 0 1 0 
1 2070.0999999999999 0 0 1 
1 0 0 1 0 
1 0 0 0 1 
1 0 88.899999999999991 1 0 
1 2070.0999999999999 0 0 1 
1 0 88.899999999999991 1 0 
1 0 0 1 0 
1 0 0 1 0 
1 88.899999999999991 0 0 -1 
1 0 0 0 1 
1 0 -88.899999999999991 1 0 
1 0 0 1 0 
1 0 0 0 -1 
1 0 0 0 1 
1 0 0 1 0 
1 0 1041.3999999999999 1 0 
1 88.899999999999991 0 0 -1 
1 1041.3999999999999 0 0 1 
1 0 -88.899999999999991 1 0 
1 0 1041.3999999999999 1 0 
1 0 0 0 -1 
1 1041.3999999999999 0 0 1 
1 0 0 0 1 
1 0 0 1 0 
1 88.899999999999991 0 0 1 
1 0 0 1 0 
1 0 0 0 1 
1 0 88.899999999999991 1 0 
1 88.899999999999991 0 0 1 
1 0 88.899999999999991 1 0 
1 0 0 1 0 
1 0 0 1 0 
1 203.19999999999982 0 0 -1 
1 0 0 0 1 
1 0 -88.899999999999991 1 0 
1 0 0 1 0 
1 0 0 0 -1 
1 0 0 0 1 
1 0 0 1 0 
1 0 38.099999999999994 1 0 
1 203.19999999999982 0 0 -1 
1 38.099999999999994 0 0 1 
1 0 -88.899999999999991 1 0 
1 0 38.099999999999994 1 0 
1 0 0 0 -1 
1 38.099999999999994 0 0 1 
1 0 0 0 1 
1 0 0 1 0 
1 203.19999999999982 0 0 1 
1 0 0 1 0 
1 0 0 0 1 
1 0 88.899999999999991 1 0 
1 203.19999999999982 0 0 1 
1 0 88.899999999999991 1 0 
1 0 0 1 0 
1 0 0 1 0 
1 203.19999999999982 0 0 -1 
1 0 0 0 1 
1 0 -88.899999999999991 1 0 
1 0 0 1 0 
1 0 0 0 -1 
1 0 0 0 1 
1 0 0 1 0 
1 0 38.099999999999994 1 0 
1 203.19999999999982 0 0 -1 
1 38.099999999999994 0 0 1 
1 0 -88.899999999999991 1 0 
1 0 38.099999999999994 1 0 
1 0 0 0 -1 
1 38.099999999999994 0 0 1 
1 0 0 0 1 
1 0 0 1 0 
1 203.19999999999982 0 0 1 
1 0 0 1 0 
1 0 0 0 1 
1 0 88.899999999999991 1 0 
1 203.19999999999982 0 0 1 
1 0 88.899999999999991 1 0 
Curves 120
1 0 0 0 0 0 1 
1 0 0 38.099999999999994 -0 1 0 
1 0 88.899999999999991 0 0 0 1 
1 0 0 0 -0 1 0 
1 126.99999999999994 0 0 0 0 1 
1 126.99999999999994 0 38.099999999999994 -0 1 0 
1 126.99999999999994 88.899999999999991 0 0 0 1 
1 126.99999999999994 0 0 -0 1 0 
1 0 0 0 1 0 -0 
1 0 0 38.099999999999994 1 0 -0 
1 0 88.899999999999991 0 1 0 -0 
1 0 88.899999999999991 38.099999999999994 1 0 -0 
1 0 0 0 0 0 1 
1 0 0 38.099999999999994 -0 1 0 
1 0 88.899999999999991 0 0 0 1 
1 0 0 0 -0 1 0 
1 127 0 0 0 0 1 
1 127 0 38.099999999999994 -0 1 0 
1 127 88.899999999999991 0 0 0 1 
1 127 0 0 -0 1 0 
1 0 0 0 1 0 -0 
1 0 0 38.099999999999994 1 0 -0 
1 0 88.899999999999991 0 1 0 -0 
1 0 88.899999999999991 38.099999999999994 1 0 -0 
1 0 0 0 0 0 1 
1 0 0 38.099999999999994 -0 1 0 
1 0 88.899999999999991 0 0 0 1 
1 0 0 0 -0 1 0 
1 1219.1999999999998 0 0 0 0 1 
1 1219.1999999999998 0 38.099999999999994 -0 1 0 
1 1219.1999999999998 88.899999999999991 0 0 0 1 
1 1219.1999999999998 0 0 -0 1 0 
1 0 0 0 1 0 -0 
1 0 0 38.099999999999994 1 0 -0 
1 0 88.899999999999991 0 1 0 -0 
1 0 88.899999999999991 38.099999999999994 1 0 -0 
1 0 0 0 0 0 1 
1 0 0 2362.1999999999998 -0 1 0 
1 0 88.899999999999991 0 0 0 1 
1 0 0 0 -0 1 0 
1 38.099999999999994 0 0 0 0 1 
1 38.099999999999994 0 2362.1999999999998 -0 1 0 
1 38.099999999999994 88.899999999999991 0 0 0 1 
1 38.099999999999994 0 0 -0 1 0 
1 0 0 0 1 0 -0 
1 0 0 2362.1999999999998 1 0 -0 
1 0 88.899999999999991 0 1 0 -0 
1 0 88.899999999999991 2362.1999999999998 1 0 -0 
1 0 0 0 0 0 1 
1 0 0 2362.1999999999998 -0 1 0 
1 0 88.899999999999991 0 0 0 1 
1 0 0 0 -0 1 0 
1 38.099999999999994 0 0 0 0 1 
1 38.099999999999994 0 2362.1999999999998 -0 1 0 
1 38.099999999999994 88.899999999999991 0 0 0 1 
1 38.099999999999994 0 0 -0 1 0 
1 0 0 0 1 0 -0 
1 0 0 2362.1999999999998 1 0 -0 
1 0 88.899999999999991 0 1 0 -0 
1 0 88.899999999999991 2362.1999999999998 1 0 -0 
1 0 0 0 0 0 1 
1 0 0 2070.0999999999999 -0 1 0 
1 0 88.899999999999991 0 0 0 1 
1 0 0 0 -0 1 0 
1 38.099999999999994 0 0 0 0 1 
1 38.099999999999994 0 2070.0999999999999 -0 1 0 
1 38.099999999999994 88.899999999999991 0 0 0 1 
1 38.099999999999994 0 0 -0 1 0 
1 0 0 0 1 0 -0 
1 0 0 2070.0999999999999 1 0 -0 
1 0 88.899999999999991 0 1 0 -0 
1 0 88.899999999999991 2070.0999999999999 1 0 -0 
1 0 0 0 0 0 1 
1 0 0 2070.0999999999999 -0 1 0 
1 0 88.899999999999991 0 0 0 1 
1 0 0 0 -0 1 0 
1 38.099999999999994 0 0 0 0 1 
1 38.099999999999994 0 2070.0999999999999 -0 1 0 
1 38.099999999999994 88.899999999999991 0 0 0 1 
1 38.099999999999994 0 0 -0 1 0 
1 0 0 0 1 0 -0 
1 0 0 2070.0999999999999 1 0 -0 
1 0 88.899999999999991 0 1 0 -0 
1 0 88.899999999999991 2070.0999999999999 1 0 -0 
1 0 0 0 0 0 1 
1 0 0 88.899999999999991 -0 1 0 
1 0 88.899999999999991 0 0 0 1 
1 0 0 0 -0 1 0 
1 1041.3999999999999 0 0 0 0 1 
1 1041.3999999999999 0 88.899999999999991 -0 1 0 
1 1041.3999999999999 88.899999999999991 0 0 0 1 
1 1041.3999999999999 0 0 -0 1 0 
1 0 0 0 1 0 -0 
1 0 0 88.899999999999991 1 0 -0 
1 0 88.899999999999991 0 1 0 -0 
1 0 88.899999999999991 88.899999999999991 1 0 -0 
1 0 0 0 0 0 1 
1 0 0 203.19999999999982 -0 1 0 
1 0 88.899999999999991 0 0 0 1 
1 0 0 0 -0 1 0 
1 38.099999999999994 0 0 0 0 1 
1 38.099999999999994 0 203.19999999999982 -0 1 0 
1 38.099999999999994 88.899999999999991 0 0 0 1 
1 38.099999999999994 0 0 -0 1 0 
1 0 0 0 1 0 -0 
1 0 0 203.19999999999982 1 0 -0 
1 0 88.899999999999991 0 1 0 -0 
1 0 88.899999999999991 203.19999999999982 1 0 -0 
1 0 0 0 0 0 1 
1 0 0 203.19999999999982 -0 1 0 
1 0 88.899999999999991 0 0 0 1 
1 0 0 0 -0 1 0 
1 38.099999999999994 0 0 0 0 1 
1 38.099999999999994 0 203.19999999999982 -0 1 0 
1 38.099999999999994 88.899999999999991 0 0 0 1 
1 38.099999999999994 0 0 -0 1 0 
1 0 0 0 1 0 -0 
1 0 0 203.19999999999982 1 0 -0 
1 0 88.899999999999991 0 1 0 -0 
1 0 88.899999999999991 203.19999999999982 1 0 -0 
Polygon3D 0
PolygonOnTriangulations 0
Surfaces 60
1 0 0 0 1 0 -0 0 0 1 0 -1 0 
1 0 0 0 -0 1 0 0 0 1 1 0 -0 
1 0 0 38.099999999999994 0 0 1 1 0 -0 -0 1 0 
1 0 88.899999999999991 0 -0 1 0 0 0 1 1 0 -0 
1 0 0 0 0 0 1 1 0 -0 -0 1 0 
1 126.99999999999994 0 0 1 0 -0 0 0 1 0 -1 0 
1 0 0 0 1 0 -0 0 0 1 0 -1 0 
1 0 0 0 -0 1 0 0 0 1 1 0 -0 
1 0 0 38.099999999999994 0 0 1 1 0 -0 -0 1 0 
1 0 88.899999999999991 0 -0 1 0 0 0 1 1 0 -0 
1 0 0 0 0 0 1 1 0 -0 -0 1 0 
1 127 0 0 1 0 -0 0 0 1 0 -1 0 
1 0 0 0 1 0 -0 0 0 1 0 -1 0 
1 0 0 0 -0 1 0 0 0 1 1 0 -0 
1 0 0 38.099999999999994 0 0 1 1 0 -0 -0 1 0 
1 0 88.899999999999991 0 -0 1 0 0 0 1 1 0 -0 
1 0 0 0 0 0 1 1 0 -0 -0 1 0 
1 1219.1999999999998 0 0 1 0 -0 0 0 1 0 -1 0 
1 0 0 0 1 0 -0 0 0 1 0 -1 0 
1 0 0 0 -0 1 0 0 0 1 1 0 -0 
1 0 0 2362.1999999999998 0 0 1 1 0 -0 -0 1 0 
1 0 88.899999999999991 0 -0 1 0 0 0 1 1 0 -0 
1 0 0 0 0 0 1 1 0 -0 -0 1 0 
1 38.099999999999994 0 0 1 0 -0 0 0 1 0 -1 0 
1 0 0 0 1 0 -0 0 0 1 0 -1 0 
1 0 0 0 -0 1 0 0 0 1 1 0 -0 
1 0 0 2362.1999999999998 0 0 1 1 0 -0 -0 1 0 
1 0 88.899999999999991 0 -0 1 0 0 0 1 1 0 -0 
1 0 0 0 0 0 1 1 0 -0 -0 1 0 
1 38.099999999999994 0 0 1 0 -0 0 0 1 0 -1 0 
1 0 0 0 1 0 -0 0 0 1 0 -1 0 
1 0 0 0 -0 1 0 0 0 1 1 0 -0 
1 0 0 2070.0999999999999 0 0 1 1 0 -0 -0 1 0 
1 0 88.899999999999991 0 -0 1 0 0 0 1 1 0 -0 
1 0 0 0 0 0 1 1 0 -0 -0 1 0 
1 38.099999999999994 0 0 1 0 -0 0 0 1 0 -1 0 
1 0 0 0 1 0 -0 0 0 1 0 -1 0 
1 0 0 0 -0 1 0 0 0 1 1 0 -0 
1 0 0 2070.0999999999999 0 0 1 1 0 -0 -0 1 0 
1 0 88.899999999999991 0 -0 1 0 0 0 1 1 0 -0 
1 0 0 0 0 0 1 1 0 -0 -0 1 0 
1 38.099999999999994 0 0 1 0 -0 0 0 1 0 -1 0 
1 0 0 0 1 0 -0 0 0 1 0 -1 0 
1 0 0 0 -0 1 0 0 0 1 1 0 -0 
1 0 0 88.899999999999991 0 0 1 1 0 -0 -0 1 0 
1 0 88.899999999999991 0 -0 1 0 0 0 1 1 0 -0 
1 0 0 0 0 0 1 1 0 -0 -0 1 0 
1 1041.3999999999999 0 0 1 0 -0 0 0 1 0 -1 0 
1 0 0 0 1 0 -0 0 0 1 0 -1 0 
1 0 0 0 -0 1 0 0 0 1 1 0 -0 
1 0 0 203.19999999999982 0 0 1 1 0 -0 -0 1 0 
1 0 88.899999999999991 0 -0 1 0 0 0 1 1 0 -0 
1 0 0 0 0 0 1 1 0 -0 -0 1 0 
1 38.099999999999994 0 0 1 0 -0 0 0 1 0 -1 0 
1 0 0 0 1 0 -0 0 0 1 0 -1 0 
1 0 0 0 -0 1 0 0 0 1 1 0 -0 
1 0 0 203.19999999999982 0 0 1 1 0 -0 -0 1 0 
1 0 88.899999999999991 0 -0 1 0 0 0 1 1 0 -0 
1 0 0 0 0 0 1 1 0 -0 -0 1 0 
1 38.099999999999994 0 0 1 0 -0 0 0 1 0 -1 0 
Triangulations 0

TShapes 341
Ve
1e-07
0 0 38.1
0 0

0101101
*
Ve
1e-07
0 0 0
0 0

0101101
*
Ed
 1e-07 1 1 0
1  1 0 0 38.1
2  1 1 0 0 38.1
2  2 2 0 0 38.1
0

0101000
-341 6 +340 6 *
Ve
1e-07
0 88.9 38.1
0 0

0101101
*
Ed
 1e-07 1 1 0
1  2 0 0 88.9
2  3 1 0 0 88.9
2  4 3 0 0 88.9
0

0101000
-338 6 +341 6 *
Ve
1e-07
0 88.9 0
0 0

0101101
*
Ed
 1e-07 1 1 0
1  3 0 0 38.1
2  5 1 0 0 38.1
2  6 4 0 0 38.1
0

0101000
-338 6 +336 6 *
Ed
 1e-07 1 1 0
1  4 0 0 88.9
2  7 1 0 0 88.9
2  8 5 0 0 88.9
0

0101000
-336 6 +340 6 *
Wi

0101100
-339 0 -337 0 +335 0 +334 0 *
Fa
0  1e-07 1 0

0111000
+333 0 *
Ve
1e-07
127 0 38.1
0 0

0101101
*
Ve
1e-07
127 0 0
0 0

0101101
*
Ed
 1e-07 1 1 0
1  5 0 0 38.1
2  9 6 0 0 38.1
2  10 2 0 0 38.1
0

0101000
-331 6 +330 6 *
Ve
1e-07
127 88.9 38.1
0 0

0101101
*
Ed
 1e-07 1 1 0
1  6 0 0 88.9
2  11 6 0 0 88.9
2  12 3 0 0 88.9
0

0101000
-328 6 +331 6 *
Ve
1e-07
127 88.9 0
0 0

0101101
*
Ed
 1e-07 1 1 0
1  7 0 0 38.1
2  13 6 0 0 38.1
2  14 4 0 0 38.1
0

0101000
-328 6 +326 6 *
Ed
 1e-07 1 1 0
1  8 0 0 88.9
2  15 6 0 0 88.9
2  16 5 0 0 88.9
0

0101000
-326 6 +330 6 *
Wi

0101100
-329 0 -327 0 +325 0 +324 0 *
Fa
0  1e-07 6 0

0111000
+323 0 *
Ed
 1e-07 1 1 0
1  9 0 0 127
2  17 2 0 0 127
2  18 5 0 0 127
0

0101000
-330 6 +340 6 *
Ed
 1e-07 1 1 0
1  10 0 0 127
2  19 2 0 0 127
2  20 3 0 0 127
0

0101000
-331 6 +341 6 *
Wi

0101100
-321 0 -329 0 +320 0 +339 0 *
Fa
0  1e-07 2 0

0111000
+319 0 *
Ed
 1e-07 1 1 0
1  11 0 0 127
2  21 4 0 0 127
2  22 5 0 0 127
0

0101000
-326 6 +336 6 *
Ed
 1e-07 1 1 0
1  12 0 0 127
2  23 4 0 0 127
2  24 3 0 0 127
0

0101000
-328 6 +338 6 *
Wi

0101100
-317 0 -325 0 +316 0 +335 0 *
Fa
0  1e-07 4 0

0111000
+315 0 *
Wi

0101100
-334 0 -317 0 +324 0 +321 0 *
Fa
0  1e-07 5 0

0111000
+313 0 *
Wi

0101100
-337 0 -316 0 +327 0 +320 0 *
Fa
0  1e-07 3 0

0111000
+311 0 *
Sh

0101100
-332 0 +322 0 -318 0 +314 0 -312 0 +310 0 *
So

0100000
+309 0 *
Ve
1e-07
1092.2 0 38.1
0 0

0101101
*
Ve
1e-07
1092.2 0 0
0 0

0101101
*
Ed
 1e-07 1 1 0
1  13 0 0 38.1
2  25 7 0 0 38.1
2  26 8 0 0 38.1
0

0101000
-307 8 +306 8 *
Ve
1e-07
1092.2 88.9 38.1
0 0

0101101
*
Ed
 1e-07 1 1 0
1  14 0 0 88.9
2  27 7 0 0 88.9
2  28 9 0 0 88.9
0

0101000
-304 8 +307 8 *
Ve
1e-07
1092.2 88.9 0
0 0

0101101
*
Ed
 1e-07 1 1 0
1  15 0 0 38.1
2  29 7 0 0 38.1
2  30 10 0 0 38.1
0

0101000
-304 8 +302 8 *
Ed
 1e-07 1 1 0
1  16 0 0 88.9
2  31 7 0 0 88.9
2  32 11 0 0 88.9
0

0101000
-302 8 +306 8 *
Wi

0101100
-305 0 -303 0 +301 0 +300 0 *
Fa
0  1e-07 7 0

0111000
+299 0 *
Ve
1e-07
1219.2 0 38.1
0 0

0101101
*
Ve
1e-07
1219.2 0 0
0 0

0101101
*
Ed
 1e-07 1 1 0
1  17 0 0 38.1
2  33 12 0 0 38.1
2  34 8 0 0 38.1
0

0101000
-297 8 +296 8 *
Ve
1e-07
1219.2 88.9 38.1
0 0

0101101
*
Ed
 1e-07 1 1 0
1  18 0 0 88.9
2  35 12 0 0 88.9
2  36 9 0 0 88.9
0

0101000
-294 8 +297 8 *
Ve
1e-07
1219.2 88.9 0
0 0

0101101
*
Ed
 1e-07 1 1 0
1  19 0 0 38.1
2  37 12 0 0 38.1
2  38 10 0 0 38.1
0

0101000
-294 8 +292 8 *
Ed
 1e-07 1 1 0
1  20 0 0 88.9
2  39 12 0 0 88.9
2  40 11 0 0 88.9
0

0101000
-292 8 +296 8 *
Wi

0101100
-295 0 -293 0 +291 0 +290 0 *
Fa
0  1e-07 12 0

0111000
+289 0 *
Ed
 1e-07 1 1 0
1  21 0 0 127
2  41 8 0 0 127
2  42 11 0 0 127
0

0101000
-296 8 +306 8 *
Ed
 1e-07 1 1 0
1  22 0 0 127
2  43 8 0 0 127
2  44 9 0 0 127
0

0101000
-297 8 +307 8 *
Wi

0101100
-287 0 -295 0 +286 0 +305 0 *
Fa
0  1e-07 8 0

0111000
+285 0 *
Ed
 1e-07 1 1 0
1  23 0 0 127
2  45 10 0 0 127
2  46 11 0 0 127
0

0101000
-292 8 +302 8 *
Ed
 1e-07 1 1 0
1  24 0 0 127
2  47 10 0 0 127
2  48 9 0 0 127
0

0101000
-294 8 +304 8 *
Wi

0101100
-283 0 -291 0 +282 0 +301 0 *
Fa
0  1e-07 10 0

0111000
+281 0 *
Wi

0101100
-300 0 -283 0 +290 0 +287 0 *
Fa
0  1e-07 11 0

0111000
+279 0 *
Wi

0101100
-303 0 -282 0 +293 0 +286 0 *
Fa
0  1e-07 9 0

0111000
+277 0 *
Sh

0101100
-298 0 +288 0 -284 0 +280 0 -278 0 +276 0 *
So

0100000
+275 0 *
Ve
1e-07
0 0 2438.4
0 0

0101101
*
Ve
1e-07
0 0 2400.3
0 0

0101101
*
Ed
 1e-07 1 1 0
1  25 0 0 38.1
2  49 13 0 0 38.1
2  50 14 0 0 38.1
0

0101000
-273 10 +272 10 *
Ve
1e-07
0 88.9 2438.4
0 0

0101101
*
Ed
 1e-07 1 1 0
1  26 0 0 88.9
2  51 13 0 0 88.9
2  52 15 0 0 88.9
0

0101000
-270 10 +273 10 *
Ve
1e-07
0 88.9 2400.3
0 0

0101101
*
Ed
 1e-07 1 1 0
1  27 0 0 38.1
2  53 13 0 0 38.1
2  54 16 0 0 38.1
0

0101000
-270 10 +268 10 *
Ed
 1e-07 1 1 0
1  28 0 0 88.9
2  55 13 0 0 88.9
2  56 17 0 0 88.9
0

0101000
-268 10 +272 10 *
Wi

0101100
-271 0 -269 0 +267 0 +266 0 *
Fa
0  1e-07 13 0

0111000
+265 0 *
Ve
1e-07
1219.2 0 2438.4
0 0

0101101
*
Ve
1e-07
1219.2 0 2400.3
0 0

0101101
*
Ed
 1e-07 1 1 0
1  29 0 0 38.1
2  57 18 0 0 38.1
2  58 14 0 0 38.1
0

0101000
-263 10 +262 10 *
Ve
1e-07
1219.2 88.9 2438.4
0 0

0101101
*
Ed
 1e-07 1 1 0
1  30 0 0 88.9
2  59 18 0 0 88.9
2  60 15 0 0 88.9
0

0101000
-260 10 +263 10 *
Ve
1e-07
1219.2 88.9 2400.3
0 0

0101101
*
Ed
 1e-07 1 1 0
1  31 0 0 38.1
2  61 18 0 0 38.1
2  62 16 0 0 38.1
0

0101000
-260 10 +258 10 *
Ed
 1e-07 1 1 0
1  32 0 0 88.9
2  63 18 0 0 88.9
2  64 17 0 0 88.9
0

0101000
-258 10 +262 10 *
Wi

0101100
-261 0 -259 0 +257 0 +256 0 *
Fa
0  1e-07 18 0

0111000
+255 0 *
Ed
 1e-07 1 1 0
1  33 0 0 1219.2
2  65 14 0 0 1219.2
2  66 17 0 0 1219.2
0

0101000
-262 10 +272 10 *
Ed
 1e-07 1 1 0
1  34 0 0 1219.2
2  67 14 0 0 1219.2
2  68 15 0 0 1219.2
0

0101000
-263 10 +273 10 *
Wi

0101100
-253 0 -261 0 +252 0 +271 0 *
Fa
0  1e-07 14 0

0111000
+251 0 *
Ed
 1e-07 1 1 0
1  35 0 0 1219.2
2  69 16 0 0 1219.2
2  70 17 0 0 1219.2
0

0101000
-258 10 +268 10 *
Ed
 1e-07 1 1 0
1  36 0 0 1219.2
2  71 16 0 0 1219.2
2  72 15 0 0 1219.2
0

0101000
-260 10 +270 10 *
Wi

0101100
-249 0 -257 0 +248 0 +267 0 *
Fa
0  1e-07 16 0

0111000
+247 0 *
Wi

0101100
-266 0 -249 0 +256 0 +253 0 *
Fa
0  1e-07 17 0

0111000
+245 0 *
Wi

0101100
-269 0 -248 0 +259 0 +252 0 *
Fa
0  1e-07 15 0

0111000
+243 0 *
Sh

0101100
-264 0 +254 0 -250 0 +246 0 -244 0 +242 0 *
So

0100000
+241 0 *
Ve
1e-07
0 0 2400.3
0 0

0101101
*
Ve
1e-07
0 0 38.1
0 0

0101101
*
Ed
 1e-07 1 1 0
1  37 0 0 2362.2
2  73 19 0 0 2362.2
2  74 20 0 0 2362.2
0

0101000
-239 12 +238 12 *
Ve
1e-07
0 88.9 2400.3
0 0

0101101
*
Ed
 1e-07 1 1 0
1  38 0 0 88.9
2  75 19 0 0 88.9
2  76 21 0 0 88.9
0

0101000
-236 12 +239 12 *
Ve
1e-07
0 88.9 38.1
0 0

0101101
*
Ed
 1e-07 1 1 0
1  39 0 0 2362.2
2  77 19 0 0 2362.2
2  78 22 0 0 2362.2
0

0101000
-236 12 +234 12 *
Ed
 1e-07 1 1 0
1  40 0 0 88.9
2  79 19 0 0 88.9
2  80 23 0 0 88.9
0

0101000
-234 12 +238 12 *
Wi

0101100
-237 0 -235 0 +233 0 +232 0 *
Fa
0  1e-07 19 0

0111000
+231 0 *
Ve
1e-07
38.1 0 2400.3
0 0

0101101
*
Ve
1e-07
38.1 0 38.1
0 0

0101101
*
Ed
 1e-07 1 1 0
1  41 0 0 2362.2
2  81 24 0 0 2362.2
2  82 20 0 0 2362.2
0

0101000
-229 12 +228 12 *
Ve
1e-07
38.1 88.9 2400.3
0 0

0101101
*
Ed
 1e-07 1 1 0
1  42 0 0 88.9
2  83 24 0 0 88.9
2  84 21 0 0 88.9
0

0101000
-226 12 +229 12 *
Ve
1e-07
38.1 88.9 38.1
0 0

0101101
*
Ed
 1e-07 1 1 0
1  43 0 0 2362.2
2  85 24 0 0 2362.2
2  86 22 0 0 2362.2
0

0101000
-226 12 +224 12 *
Ed
 1e-07 1 1 0
1  44 0 0 88.9
2  87 24 0 0 88.9
2  88 23 0 0 88.9
0

0101000
-224 12 +228 12 *
Wi

0101100
-227 0 -225 0 +223 0 +222 0 *
Fa
0  1e-07 24 0

0111000
+221 0 *
Ed
 1e-07 1 1 0
1  45 0 0 38.1
2  89 20 0 0 38.1
2  90 23 0 0 38.1
0

0101000
-228 12 +238 12 *
Ed
 1e-07 1 1 0
1  46 0 0 38.1
2  91 20 0 0 38.1
2  92 21 0 0 38.1
0

0101000
-229 12 +239 12 *
Wi

0101100
-219 0 -227 0 +218 0 +237 0 *
Fa
0  1e-07 20 0

0111000
+217 0 *
Ed
 1e-07 1 1 0
1  47 0 0 38.1
2  93 22 0 0 38.1
2  94 23 0 0 38.1
0

0101000
-224 12 +234 12 *
Ed
 1e-07 1 1 0
1  48 0 0 38.1
2  95 22 0 0 38.1
2  96 21 0 0 38.1
0

0101000
-226 12 +236 12 *
Wi

0101100
-215 0 -223 0 +214 0 +233 0 *
Fa
0  1e-07 22 0

0111000
+213 0 *
Wi

0101100
-232 0 -215 0 +222 0 +219 0 *
Fa
0  1e-07 23 0

0111000
+211 0 *
Wi

0101100
-235 0 -214 0 +225 0 +218 0 *
Fa
0  1e-07 21 0

0111000
+209 0 *
Sh

0101100
-230 0 +220 0 -216 0 +212 0 -210 0 +208 0 *
So

0100000
+207 0 *
Ve
1e-07
1181.1 0 2400.3
0 0

0101101
*
Ve
1e-07
1181.1 0 38.1
0 0

0101101
*
Ed
 1e-07 1 1 0
1  49 0 0 2362.2
2  97 25 0 0 2362.2
2  98 26 0 0 2362.2
0

0101000
-205 14 +204 14 *
Ve
1e-07
1181.1 88.9 2400.3
0 0

0101101
*
Ed
 1e-07 1 1 0
1  50 0 0 88.9
2  99 25 0 0 88.9
2  100 27 0 0 88.9
0

0101000
-202 14 +205 14 *
Ve
1e-07
1181.1 88.9 38.1
0 0

0101101
*
Ed
 1e-07 1 1 0
1  51 0 0 2362.2
2  101 25 0 0 2362.2
2  102 28 0 0 2362.2
0

0101000
-202 14 +200 14 *
Ed
 1e-07 1 1 0
1  52 0 0 88.9
2  103 25 0 0 88.9
2  104 29 0 0 88.9
0

0101000
-200 14 +204 14 *
Wi

0101100
-203 0 -201 0 +199 0 +198 0 *
Fa
0  1e-07 25 0

0111000
+197 0 *
Ve
1e-07
1219.2 0 2400.3
0 0

0101101
*
Ve
1e-07
1219.2 0 38.1
0 0

0101101
*
Ed
 1e-07 1 1 0
1  53 0 0 2362.2
2  105 30 0 0 2362.2
2  106 26 0 0 2362.2
0

0101000
-195 14 +194 14 *
Ve
1e-07
1219.2 88.9 2400.3
0 0

0101101
*
Ed
 1e-07 1 1 0
1  54 0 0 88.9
2  107 30 0 0 88.9
2  108 27 0 0 88.9
0

0101000
-192 14 +195 14 *
Ve
1e-07
1219.2 88.9 38.1
0 0

0101101
*
Ed
 1e-07 1 1 0
1  55 0 0 2362.2
2  109 30 0 0 2362.2
2  110 28 0 0 2362.2
0

0101000
-192 14 +190 14 *
Ed
 1e-07 1 1 0
1  56 0 0 88.9
2  111 30 0 0 88.9
2  112 29 0 0 88.9
0

0101000
-190 14 +194 14 *
Wi

0101100
-193 0 -191 0 +189 0 +188 0 *
Fa
0  1e-07 30 0

0111000
+187 0 *
Ed
 1e-07 1 1 0
1  57 0 0 38.1
2  113 26 0 0 38.1
2  114 29 0 0 38.1
0

0101000
-194 14 +204 14 *
Ed
 1e-07 1 1 0
1  58 0 0 38.1
2  115 26 0 0 38.1
2  116 27 0 0 38.1
0

0101000
-195 14 +205 14 *
Wi

0101100
-185 0 -193 0 +184 0 +203 0 *
Fa
0  1e-07 26 0

0111000
+183 0 *
Ed
 1e-07 1 1 0
1  59 0 0 38.1
2  117 28 0 0 38.1
2  118 29 0 0 38.1
0

0101000
-190 14 +200 14 *
Ed
 1e-07 1 1 0
1  60 0 0 38.1
2  119 28 0 0 38.1
2  120 27 0 0 38.1
0

0101000
-192 14 +202 14 *
Wi

0101100
-181 0 -189 0 +180 0 +199 0 *
Fa
0  1e-07 28 0

0111000
+179 0 *
Wi

0101100
-198 0 -181 0 +188 0 +185 0 *
Fa
0  1e-07 29 0

0111000
+177 0 *
Wi

0101100
-201 0 -180 0 +191 0 +184 0 *
Fa
0  1e-07 27 0

0111000
+175 0 *
Sh

0101100
-196 0 +186 0 -182 0 +178 0 -176 0 +174 0 *
So

0100000
+173 0 *
Ve
1e-07
88.8999999999999 0 2108.2
0 0

0101101
*
Ve
1e-07
88.8999999999999 0 38.1
0 0

0101101
*
Ed
 1e-07 1 1 0
1  61 0 0 2070.1
2  121 31 0 0 2070.1
2  122 32 0 0 2070.1
0

0101000
-171 16 +170 16 *
Ve
1e-07
88.8999999999999 88.9 2108.2
0 0

0101101
*
Ed
 1e-07 1 1 0
1  62 0 0 88.9
2  123 31 0 0 88.9
2  124 33 0 0 88.9
0

0101000
-168 16 +171 16 *
Ve
1e-07
88.8999999999999 88.9 38.1
0 0

0101101
*
Ed
 1e-07 1 1 0
1  63 0 0 2070.1
2  125 31 0 0 2070.1
2  126 34 0 0 2070.1
0

0101000
-168 16 +166 16 *
Ed
 1e-07 1 1 0
1  64 0 0 88.9
2  127 31 0 0 88.9
2  128 35 0 0 88.9
0

0101000
-166 16 +170 16 *
Wi

0101100
-169 0 -167 0 +165 0 +164 0 *
Fa
0  1e-07 31 0

0111000
+163 0 *
Ve
1e-07
127 0 2108.2
0 0

0101101
*
Ve
1e-07
127 0 38.1
0 0

0101101
*
Ed
 1e-07 1 1 0
1  65 0 0 2070.1
2  129 36 0 0 2070.1
2  130 32 0 0 2070.1
0

0101000
-161 16 +160 16 *
Ve
1e-07
127 88.9 2108.2
0 0

0101101
*
Ed
 1e-07 1 1 0
1  66 0 0 88.9
2  131 36 0 0 88.9
2  132 33 0 0 88.9
0

0101000
-158 16 +161 16 *
Ve
1e-07
127 88.9 38.1
0 0

0101101
*
Ed
 1e-07 1 1 0
1  67 0 0 2070.1
2  133 36 0 0 2070.1
2  134 34 0 0 2070.1
0

0101000
-158 16 +156 16 *
Ed
 1e-07 1 1 0
1  68 0 0 88.9
2  135 36 0 0 88.9
2  136 35 0 0 88.9
0

0101000
-156 16 +160 16 *
Wi

0101100
-159 0 -157 0 +155 0 +154 0 *
Fa
0  1e-07 36 0

0111000
+153 0 *
Ed
 1e-07 1 1 0
1  69 0 0 38.1
2  137 32 0 0 38.1
2  138 35 0 0 38.1
0

0101000
-160 16 +170 16 *
Ed
 1e-07 1 1 0
1  70 0 0 38.1
2  139 32 0 0 38.1
2  140 33 0 0 38.1
0

0101000
-161 16 +171 16 *
Wi

0101100
-151 0 -159 0 +150 0 +169 0 *
Fa
0  1e-07 32 0

0111000
+149 0 *
Ed
 1e-07 1 1 0
1  71 0 0 38.1
2  141 34 0 0 38.1
2  142 35 0 0 38.1
0

0101000
-156 16 +166 16 *
Ed
 1e-07 1 1 0
1  72 0 0 38.1
2  143 34 0 0 38.1
2  144 33 0 0 38.1
0

0101000
-158 16 +168 16 *
Wi

0101100
-147 0 -155 0 +146 0 +165 0 *
Fa
0  1e-07 34 0

0111000
+145 0 *
Wi

0101100
-164 0 -147 0 +154 0 +151 0 *
Fa
0  1e-07 35 0

0111000
+143 0 *
Wi

0101100
-167 0 -146 0 +157 0 +150 0 *
Fa
0  1e-07 33 0

0111000
+141 0 *
Sh

0101100
-162 0 +152 0 -148 0 +144 0 -142 0 +140 0 *
So

0100000
+139 0 *
Ve
1e-07
1092.2 0 2108.2
0 0

0101101
*
Ve
1e-07
1092.2 0 38.1
0 0

0101101
*
Ed
 1e-07 1 1 0
1  73 0 0 2070.1
2  145 37 0 0 2070.1
2  146 38 0 0 2070.1
0

0101000
-137 18 +136 18 *
Ve
1e-07
1092.2 88.9 2108.2
0 0

0101101
*
Ed
 1e-07 1 1 0
1  74 0 0 88.9
2  147 37 0 0 88.9
2  148 39 0 0 88.9
0

0101000
-134 18 +137 18 *
Ve
1e-07
1092.2 88.9 38.1
0 0

0101101
*
Ed
 1e-07 1 1 0
1  75 0 0 2070.1
2  149 37 0 0 2070.1
2  150 40 0 0 2070.1
0

0101000
-134 18 +132 18 *
Ed
 1e-07 1 1 0
1  76 0 0 88.9
2  151 37 0 0 88.9
2  152 41 0 0 88.9
0

0101000
-132 18 +136 18 *
Wi

0101100
-135 0 -133 0 +131 0 +130 0 *
Fa
0  1e-07 37 0

0111000
+129 0 *
Ve
1e-07
1130.3 0 2108.2
0 0

0101101
*
Ve
1e-07
1130.3 0 38.1
0 0

0101101
*
Ed
 1e-07 1 1 0
1  77 0 0 2070.1
2  153 42 0 0 2070.1
2  154 38 0 0 2070.1
0

0101000
-127 18 +126 18 *
Ve
1e-07
1130.3 88.9 2108.2
0 0

0101101
*
Ed
 1e-07 1 1 0
1  78 0 0 88.9
2  155 42 0 0 88.9
2  156 39 0 0 88.9
0

0101000
-124 18 +127 18 *
Ve
1e-07
1130.3 88.9 38.1
0 0

0101101
*
Ed
 1e-07 1 1 0
1  79 0 0 2070.1
2  157 42 0 0 2070.1
2  158 40 0 0 2070.1
0

0101000
-124 18 +122 18 *
Ed
 1e-07 1 1 0
1  80 0 0 88.9
2  159 42 0 0 88.9
2  160 41 0 0 88.9
0

0101000
-122 18 +126 18 *
Wi

0101100
-125 0 -123 0 +121 0 +120 0 *
Fa
0  1e-07 42 0

0111000
+119 0 *
Ed
 1e-07 1 1 0
1  81 0 0 38.1
2  161 38 0 0 38.1
2  162 41 0 0 38.1
0

0101000
-126 18 +136 18 *
Ed
 1e-07 1 1 0
1  82 0 0 38.1
2  163 38 0 0 38.1
2  164 39 0 0 38.1
0

0101000
-127 18 +137 18 *
Wi

0101100
-117 0 -125 0 +116 0 +135 0 *
Fa
0  1e-07 38 0

0111000
+115 0 *
Ed
 1e-07 1 1 0
1  83 0 0 38.1
2  165 40 0 0 38.1
2  166 41 0 0 38.1
0

0101000
-122 18 +132 18 *
Ed
 1e-07 1 1 0
1  84 0 0 38.1
2  167 40 0 0 38.1
2  168 39 0 0 38.1
0

0101000
-124 18 +134 18 *
Wi

0101100
-113 0 -121 0 +112 0 +131 0 *
Fa
0  1e-07 40 0

0111000
+111 0 *
Wi

0101100
-130 0 -113 0 +120 0 +117 0 *
Fa
0  1e-07 41 0

0111000
+109 0 *
Wi

0101100
-133 0 -112 0 +123 0 +116 0 *
Fa
0  1e-07 39 0

0111000
+107 0 *
Sh

0101100
-128 0 +118 0 -114 0 +110 0 -108 0 +106 0 *
So

0100000
+105 0 *
Ve
1e-07
88.8999999999999 0 2197.1
0 0

0101101
*
Ve
1e-07
88.8999999999999 0 2108.2
0 0

0101101
*
Ed
 1e-07 1 1 0
1  85 0 0 88.9
2  169 43 0 0 88.9
2  170 44 0 0 88.9
0

0101000
-103 20 +102 20 *
Ve
1e-07
88.8999999999999 88.9 2197.1
0 0

0101101
*
Ed
 1e-07 1 1 0
1  86 0 0 88.9
2  171 43 0 0 88.9
2  172 45 0 0 88.9
0

0101000
-100 20 +103 20 *
Ve
1e-07
88.8999999999999 88.9 2108.2
0 0

0101101
*
Ed
 1e-07 1 1 0
1  87 0 0 88.9
2  173 43 0 0 88.9
2  174 46 0 0 88.9
0

0101000
-100 20 +98 20 *
Ed
 1e-07 1 1 0
1  88 0 0 88.9
2  175 43 0 0 88.9
2  176 47 0 0 88.9
0

0101000
-98 20 +102 20 *
Wi

0101100
-101 0 -99 0 +97 0 +96 0 *
Fa
0  1e-07 43 0

0111000
+95 0 *
Ve
1e-07
1130.3 0 2197.1
0 0

0101101
*
Ve
1e-07
1130.3 0 2108.2
0 0

0101101
*
Ed
 1e-07 1 1 0
1  89 0 0 88.9
2  177 48 0 0 88.9
2  178 44 0 0 88.9
0

0101000
-93 20 +92 20 *
Ve
1e-07
1130.3 88.9 2197.1
0 0

0101101
*
Ed
 1e-07 1 1 0
1  90 0 0 88.9
2  179 48 0 0 88.9
2  180 45 0 0 88.9
0

0101000
-90 20 +93 20 *
Ve
1e-07
1130.3 88.9 2108.2
0 0

0101101
*
Ed
 1e-07 1 1 0
1  91 0 0 88.9
2  181 48 0 0 88.9
2  182 46 0 0 88.9
0

0101000
-90 20 +88 20 *
Ed
 1e-07 1 1 0
1  92 0 0 88.9
2  183 48 0 0 88.9
2  184 47 0 0 88.9
0

0101000
-88 20 +92 20 *
Wi

0101100
-91 0 -89 0 +87 0 +86 0 *
Fa
0  1e-07 48 0

0111000
+85 0 *
Ed
 1e-07 1 1 0
1  93 0 0 1041.4
2  185 44 0 0 1041.4
2  186 47 0 0 1041.4
0

0101000
-92 20 +102 20 *
Ed
 1e-07 1 1 0
1  94 0 0 1041.4
2  187 44 0 0 1041.4
2  188 45 0 0 1041.4
0

0101000
-93 20 +103 20 *
Wi

0101100
-83 0 -91 0 +82 0 +101 0 *
Fa
0  1e-07 44 0

0111000
+81 0 *
Ed
 1e-07 1 1 0
1  95 0 0 1041.4
2  189 46 0 0 1041.4
2  190 47 0 0 1041.4
0

0101000
-88 20 +98 20 *
Ed
 1e-07 1 1 0
1  96 0 0 1041.4
2  191 46 0 0 1041.4
2  192 45 0 0 1041.4
0

0101000
-90 20 +100 20 *
Wi

0101100
-79 0 -87 0 +78 0 +97 0 *
Fa
0  1e-07 46 0

0111000
+77 0 *
Wi

0101100
-96 0 -79 0 +86 0 +83 0 *
Fa
0  1e-07 47 0

0111000
+75 0 *
Wi

0101100
-99 0 -78 0 +89 0 +82 0 *
Fa
0  1e-07 45 0

0111000
+73 0 *
Sh

0101100
-94 0 +84 0 -80 0 +76 0 -74 0 +72 0 *
So

0100000
+71 0 *
Ve
1e-07
406.4 0 2400.3
0 0

0101101
*
Ve
1e-07
406.4 0 2197.1
0 0

0101101
*
Ed
 1e-07 1 1 0
1  97 0 0 203.2
2  193 49 0 0 203.2
2  194 50 0 0 203.2
0

0101000
-69 22 +68 22 *
Ve
1e-07
406.4 88.9 2400.3
0 0

0101101
*
Ed
 1e-07 1 1 0
1  98 0 0 88.9
2  195 49 0 0 88.9
2  196 51 0 0 88.9
0

0101000
-66 22 +69 22 *
Ve
1e-07
406.4 88.9 2197.1
0 0

0101101
*
Ed
 1e-07 1 1 0
1  99 0 0 203.2
2  197 49 0 0 203.2
2  198 52 0 0 203.2
0

0101000
-66 22 +64 22 *
Ed
 1e-07 1 1 0
1  100 0 0 88.9
2  199 49 0 0 88.9
2  200 53 0 0 88.9
0

0101000
-64 22 +68 22 *
Wi

0101100
-67 0 -65 0 +63 0 +62 0 *
Fa
0  1e-07 49 0

0111000
+61 0 *
Ve
1e-07
444.5 0 2400.3
0 0

0101101
*
Ve
1e-07
444.5 0 2197.1
0 0

0101101
*
Ed
 1e-07 1 1 0
1  101 0 0 203.2
2  201 54 0 0 203.2
2  202 50 0 0 203.2
0

0101000
-59 22 +58 22 *
Ve
1e-07
444.5 88.9 2400.3
0 0

0101101
*
Ed
 1e-07 1 1 0
1  102 0 0 88.9
2  203 54 0 0 88.9
2  204 51 0 0 88.9
0

0101000
-56 22 +59 22 *
Ve
1e-07
444.5 88.9 2197.1
0 0

0101101
*
Ed
 1e-07 1 1 0
1  103 0 0 203.2
2  205 54 0 0 203.2
2  206 52 0 0 203.2
0

0101000
-56 22 +54 22 *
Ed
 1e-07 1 1 0
1  104 0 0 88.9
2  207 54 0 0 88.9
2  208 53 0 0 88.9
0

0101000
-54 22 +58 22 *
Wi

0101100
-57 0 -55 0 +53 0 +52 0 *
Fa
0  1e-07 54 0

0111000
+51 0 *
Ed
 1e-07 1 1 0
1  105 0 0 38.1
2  209 50 0 0 38.1
2  210 53 0 0 38.1
0

0101000
-58 22 +68 22 *
Ed
 1e-07 1 1 0
1  106 0 0 38.1
2  211 50 0 0 38.1
2  212 51 0 0 38.1
0

0101000
-59 22 +69 22 *
Wi

0101100
-49 0 -57 0 +48 0 +67 0 *
Fa
0  1e-07 50 0

0111000
+47 0 *
Ed
 1e-07 1 1 0
1  107 0 0 38.1
2  213 52 0 0 38.1
2  214 53 0 0 38.1
0

0101000
-54 22 +64 22 *
Ed
 1e-07 1 1 0
1  108 0 0 38.1
2  215 52 0 0 38.1
2  216 51 0 0 38.1
0

0101000
-56 22 +66 22 *
Wi

0101100
-45 0 -53 0 +44 0 +63 0 *
Fa
0  1e-07 52 0

0111000
+43 0 *
Wi

0101100
-62 0 -45 0 +52 0 +49 0 *
Fa
0  1e-07 53 0

0111000
+41 0 *
Wi

0101100
-65 0 -44 0 +55 0 +48 0 *
Fa
0  1e-07 51 0

0111000
+39 0 *
Sh

0101100
-60 0 +50 0 -46 0 +42 0 -40 0 +38 0 *
So

0100000
+37 0 *
Ve
1e-07
812.8 0 2400.3
0 0

0101101
*
Ve
1e-07
812.8 0 2197.1
0 0

0101101
*
Ed
 1e-07 1 1 0
1  109 0 0 203.2
2  217 55 0 0 203.2
2  218 56 0 0 203.2
0

0101000
-35 24 +34 24 *
Ve
1e-07
812.8 88.9 2400.3
0 0

0101101
*
Ed
 1e-07 1 1 0
1  110 0 0 88.9
2  219 55 0 0 88.9
2  220 57 0 0 88.9
0

0101000
-32 24 +35 24 *
Ve
1e-07
812.8 88.9 2197.1
0 0

0101101
*
Ed
 1e-07 1 1 0
1  111 0 0 203.2
2  221 55 0 0 203.2
2  222 58 0 0 203.2
0

0101000
-32 24 +30 24 *
Ed
 1e-07 1 1 0
1  112 0 0 88.9
2  223 55 0 0 88.9
2  224 59 0 0 88.9
0

0101000
-30 24 +34 24 *
Wi

0101100
-33 0 -31 0 +29 0 +28 0 *
Fa
0  1e-07 55 0

0111000
+27 0 *
Ve
1e-07
850.9 0 2400.3
0 0

0101101
*
Ve
1e-07
850.9 0 2197.1
0 0

0101101
*
Ed
 1e-07 1 1 0
1  113 0 0 203.2
2  225 60 0 0 203.2
2  226 56 0 0 203.2
0

0101000
-25 24 +24 24 *
Ve
1e-07
850.9 88.9 2400.3
0 0

0101101
*
Ed
 1e-07 1 1 0
1  114 0 0 88.9
2  227 60 0 0 88.9
2  228 57 0 0 88.9
0

0101000
-22 24 +25 24 *
Ve
1e-07
850.9 88.9 2197.1
0 0

0101101
*
Ed
 1e-07 1 1 0
1  115 0 0 203.2
2  229 60 0 0 203.2
2  230 58 0 0 203.2
0

0101000
-22 24 +20 24 *
Ed
 1e-07 1 1 0
1  116 0 0 88.9
2  231 60 0 0 88.9
2  232 59 0 0 88.9
0

0101000
-20 24 +24 24 *
Wi

0101100
-23 0 -21 0 +19 0 +18 0 *
Fa
0  1e-07 60 0

0111000
+17 0 *
Ed
 1e-07 1 1 0
1  117 0 0 38.1
2  233 56 0 0 38.1
2  234 59 0 0 38.1
0

0101000
-24 24 +34 24 *
Ed
 1e-07 1 1 0
1  118 0 0 38.1
2  235 56 0 0 38.1
2  236 57 0 0 38.1
0

0101000
-25 24 +35 24 *
Wi

0101100
-15 0 -23 0 +14 0 +33 0 *
Fa
0  1e-07 56 0

0111000
+13 0 *
Ed
 1e-07 1 1 0
1  119 0 0 38.1
2  237 58 0 0 38.1
2  238 59 0 0 38.1
0

0101000
-20 24 +30 24 *
Ed
 1e-07 1 1 0
1  120 0 0 38.1
2  239 58 0 0 38.1
2  240 57 0 0 38.1
0

0101000
-22 24 +32 24 *
Wi

0101100
-11 0 -19 0 +10 0 +29 0 *
Fa
0  1e-07 58 0

0111000
+9 0 *
Wi

0101100
-28 0 -11 0 +18 0 +15 0 *
Fa
0  1e-07 59 0

0111000
+7 0 *
Wi

0101100
-31 0 -10 0 +21 0 +14 0 *
Fa
0  1e-07 57 0

0111000
+5 0 *
Sh

0101100
-26 0 +16 0 -12 0 +8 0 -6 0 +4 0 *
So

0100000
+3 0 *
Co

1100000
+308 5 +274 7 +240 9 +206 11 +172 13 +138 15 +104 17 +70 19 +36 21 +2 23 
*

+1 4 