DBRep_DrawableShape

CASCADE Topology V1, (c) Matra-Datavision
Locations 17
1
              1               0               0               0 
              0               1               0               0 
              0               0               1               0 
1
             -1 -1.22464679914735e-16               0               0 
1.22464679914735e-16              -1               0               0 
              0               0               1               0 
1
              1               0               0          1219.2 
              0               1               0           139.7 
              0               0               1              -0 
2  1 1 2 1 3 1 0
2  1 -1 0
1
              1               0               0               0 
              0               1               0               0 
              0               0               1          2400.3 
2  1 -1 6 -1 0
1
              1               0               0               0 
              0               1               0               0 
              0               0               1            38.1 
2  1 -1 8 -1 0
1
              1               0               0           406.4 
              0               1               0               0 
              0               0               1            38.1 
2  1 -1 10 -1 0
1
              1               0               0           812.8 
              0               1               0               0 
              0               0               1            38.1 
2  1 -1 12 -1 0
1
              1               0               0          1181.1 
              0               1               0               0 
              0               0               1            38.1 
2  1 -1 14 -1 0
1
              1               0               0               0 
              0               1               0        -11.1125 
              0               0               1               0 
2  1 -1 16 -1 0
Curve2ds 168
1 0 0 1 0 
1 0 0 1 0 
1 38.099999999999994 0 0 -1 
1 0 0 0 1 
1 0 -139.69999999999999 1 0 
1 0 0 1 0 
1 0 0 0 -1 
1 0 0 0 1 
1 0 0 1 0 
1 0 1219.1999999999998 1 0 
1 38.099999999999994 0 0 -1 
1 1219.1999999999998 0 0 1 
1 0 -139.69999999999999 1 0 
1 0 1219.1999999999998 1 0 
1 0 0 0 -1 
1 1219.1999999999998 0 0 1 
1 0 0 0 1 
1 0 0 1 0 
1 38.099999999999994 0 0 1 
1 0 0 1 0 
1 0 0 0 1 
1 0 139.69999999999999 1 0 
1 38.099999999999994 0 0 1 
1 0 139.69999999999999 1 0 
1 0 0 1 0 
1 0 0 1 0 
1 38.099999999999994 0 0 -1 
1 0 0 0 1 
1 0 -139.69999999999999 1 0 
1 0 0 1 0 
1 0 0 0 -1 
1 0 0 0 1 
1 0 0 1 0 
1 0 1219.1999999999998 1 0 
1 38.099999999999994 0 0 -1 
1 1219.1999999999998 0 0 1 
1 0 -139.69999999999999 1 0 
1 0 1219.1999999999998 1 0 
1 0 0 0 -1 
1 1219.1999999999998 0 0 1 
1 0 0 0 1 
1 0 0 1 0 
1 38.099999999999994 0 0 1 
1 0 0 1 0 
1 0 0 0 1 
1 0 139.69999999999999 1 0 
1 38.099999999999994 0 0 1 
1 0 139.69999999999999 1 0 
1 0 0 1 0 
1 0 0 1 0 
1 2362.1999999999998 0 0 -1 
1 0 0 0 1 
1 0 -139.69999999999999 1 0 
1 0 0 1 0 
1 0 0 0 -1 
1 0 0 0 1 
1 0 0 1 0 
1 0 38.099999999999994 1 0 
1 2362.1999999999998 0 0 -1 
1 38.099999999999994 0 0 1 
1 0 -139.69999999999999 1 0 
1 0 38.099999999999994 1 0 
1 0 0 0 -1 
1 38.099999999999994 0 0 1 
1 0 0 0 1 
1 0 0 1 0 
1 2362.1999999999998 0 0 1 
1 0 0 1 0 
1 0 0 0 1 
1 0 139.69999999999999 1 0 
1 2362.1999999999998 0 0 1 
1 0 139.69999999999999 1 0 
1 0 0 1 0 
1 0 0 1 0 
1 2362.1999999999998 0 0 -1 
1 0 0 0 1 
1 0 -139.69999999999999 1 0 
1 0 0 1 0 
1 0 0 0 -1 
1 0 0 0 1 
1 0 0 1 0 
1 0 38.099999999999994 1 0 
1 2362.1999999999998 0 0 -1 
1 38.099999999999994 0 0 1 
1 0 -139.69999999999999 1 0 
1 0 38.099999999999994 1 0 
1 0 0 0 -1 
1 38.099999999999994 0 0 1 
1 0 0 0 1 
1 0 0 1 0 
1 2362.1999999999998 0 0 1 
1 0 0 1 0 
1 0 0 0 1 
1 0 139.69999999999999 1 0 
1 2362.1999999999998 0 0 1 
1 0 139.69999999999999 1 0 
1 0 0 1 0 
1 0 0 1 0 
1 2362.1999999999998 0 0 -1 
1 0 0 0 1 
1 0 -139.69999999999999 1 0 
1 0 0 1 0 
1 0 0 0 -1 
1 0 0 0 1 
1 0 0 1 0 
1 0 38.099999999999994 1 0 
1 2362.1999999999998 0 0 -1 
1 38.099999999999994 0 0 1 
1 0 -139.69999999999999 1 0 
1 0 38.099999999999994 1 0 
1 0 0 0 -1 
1 38.099999999999994 0 0 1 
1 0 0 0 1 
1 0 0 1 0 
1 2362.1999999999998 0 0 1 
1 0 0 1 0 
1 0 0 0 1 
1 0 139.69999999999999 1 0 
1 2362.1999999999998 0 0 1 
1 0 139.69999999999999 1 0 
1 0 0 1 0 
1 0 0 1 0 
1 2362.1999999999998 0 0 -1 
1 0 0 0 1 
1 0 -139.69999999999999 1 0 
1 0 0 1 0 
1 0 0 0 -1 
1 0 0 0 1 
1 0 0 1 0 
1 0 38.099999999999994 1 0 
1 2362.1999999999998 0 0 -1 
1 38.099999999999994 0 0 1 
1 0 -139.69999999999999 1 0 
1 0 38.099999999999994 1 0 
1 0 0 0 -1 
1 38.099999999999994 0 0 1 
1 0 0 0 1 
1 0 0 1 0 
1 2362.1999999999998 0 0 1 
1 0 0 1 0 
1 0 0 0 1 
1 0 139.69999999999999 1 0 
1 2362.1999999999998 0 0 1 
1 0 139.69999999999999 1 0 
1 0 0 1 0 
1 0 0 1 0 
1 2438.3999999999996 0 0 -1 
1 0 0 0 1 
1 0 -11.112499999999999 1 0 
1 0 0 1 0 
1 0 0 0 -1 
1 0 0 0 1 
1 0 0 1 0 
1 0 1219.1999999999998 1 0 
1 2438.3999999999996 0 0 -1 
1 1219.1999999999998 0 0 1 
1 0 -11.112499999999999 1 0 
1 0 1219.1999999999998 1 0 
1 0 0 0 -1 
1 1219.1999999999998 0 0 1 
1 0 0 0 1 
1 0 0 1 0 
1 2438.3999999999996 0 0 1 
1 0 0 1 0 
1 0 0 0 1 
1 0 11.112499999999999 1 0 
1 2438.3999999999996 0 0 1 
1 0 11.112499999999999 1 0 
Curves 84
1 0 0 0 0 0 1 
1 0 0 38.099999999999994 -0 1 0 
1 0 139.69999999999999 0 0 0 1 
1 0 0 0 -0 1 0 
1 1219.1999999999998 0 0 0 0 1 
1 1219.1999999999998 0 38.099999999999994 -0 1 0 
1 1219.1999999999998 139.69999999999999 0 0 0 1 
1 1219.1999999999998 0 0 -0 1 0 
1 0 0 0 1 0 -0 
1 0 0 38.099999999999994 1 0 -0 
1 0 139.69999999999999 0 1 0 -0 
1 0 139.69999999999999 38.099999999999994 1 0 -0 
1 0 0 0 0 0 1 
1 0 0 38.099999999999994 -0 1 0 
1 0 139.69999999999999 0 0 0 1 
1 0 0 0 -0 1 0 
1 1219.1999999999998 0 0 0 0 1 
1 1219.1999999999998 0 38.099999999999994 -0 1 0 
1 1219.1999999999998 139.69999999999999 0 0 0 1 
1 1219.1999999999998 0 0 -0 1 0 
1 0 0 0 1 0 -0 
1 0 0 38.099999999999994 1 0 -0 
1 0 139.69999999999999 0 1 0 -0 
1 0 139.69999999999999 38.099999999999994 1 0 -0 
1 0 0 0 0 0 1 
1 0 0 2362.1999999999998 -0 1 0 
1 0 139.69999999999999 0 0 0 1 
1 0 0 0 -0 1 0 
1 38.099999999999994 0 0 0 0 1 
1 38.099999999999994 0 2362.1999999999998 -0 1 0 
1 38.099999999999994 139.69999999999999 0 0 0 1 
1 38.099999999999994 0 0 -0 1 0 
1 0 0 0 1 0 -0 
1 0 0 2362.1999999999998 1 0 -0 
1 0 139.69999999999999 0 1 0 -0 
1 0 139.69999999999999 2362.1999999999998 1 0 -0 
1 0 0 0 0 0 1 
1 0 0 2362.1999999999998 -0 1 0 
1 0 139.69999999999999 0 0 0 1 
1 0 0 0 -0 1 0 
1 38.099999999999994 0 0 0 0 1 
1 38.099999999999994 0 2362.1999999999998 -0 1 0 
1 38.099999999999994 139.69999999999999 0 0 0 1 
1 38.099999999999994 0 0 -0 1 0 
1 0 0 0 1 0 -0 
1 0 0 2362.1999999999998 1 0 -0 
1 0 139.69999999999999 0 1 0 -0 
1 0 139.69999999999999 2362.1999999999998 1 0 -0 
1 0 0 0 0 0 1 
1 0 0 2362.1999999999998 -0 1 0 
1 0 139.69999999999999 0 0 0 1 
1 0 0 0 -0 1 0 
1 38.099999999999994 0 0 0 0 1 
1 38.099999999999994 0 2362.1999999999998 -0 1 0 
1 38.099999999999994 139.69999999999999 0 0 0 1 
1 38.099999999999994 0 0 -0 1 0 
1 0 0 0 1 0 -0 
1 0 0 2362.1999999999998 1 0 -0 
1 0 139.69999999999999 0 1 0 -0 
1 0 139.69999999999999 2362.1999999999998 1 0 -0 
1 0 0 0 0 0 1 
1 0 0 2362.1999999999998 -0 1 0 
1 0 139.69999999999999 0 0 0 1 
1 0 0 0 -0 1 0 
1 38.099999999999994 0 0 0 0 1 
1 38.099999999999994 0 2362.1999999999998 -0 1 0 
1 38.099999999999994 139.69999999999999 0 0 0 1 
1 38.099999999999994 0 0 -0 1 0 
1 0 0 0 1 0 -0 
1 0 0 2362.1999999999998 1 0 -0 
1 0 139.69999999999999 0 1 0 -0 
1 0 139.69999999999999 2362.1999999999998 1 0 -0 
1 0 0 0 0 0 1 
1 0 0 2438.3999999999996 -0 1 0 
1 0 11.112499999999999 0 0 0 1 
1 0 0 0 -0 1 0 
1 1219.1999999999998 0 0 0 0 1 
1 1219.1999999999998 0 2438.3999999999996 -0 1 0 
1 1219.1999999999998 11.112499999999999 0 0 0 1 
1 1219.1999999999998 0 0 -0 1 0 
1 0 0 0 1 0 -0 
1 0 0 2438.3999999999996 1 0 -0 
1 0 11.112499999999999 0 1 0 -0 
1 0 11.112499999999999 2438.3999999999996 1 0 -0 
Polygon3D 0
PolygonOnTriangulations 0
Surfaces 42
1 0 0 0 1 0 -0 0 0 1 0 -1 0 
1 0 0 0 -0 1 0 0 0 1 1 0 -0 
1 0 0 38.099999999999994 0 0 1 1 0 -0 -0 1 0 
1 0 139.69999999999999 0 -0 1 0 0 0 1 1 0 -0 
1 0 0 0 0 0 1 1 0 -0 -0 1 0 
1 1219.1999999999998 0 0 1 0 -0 0 0 1 0 -1 0 
1 0 0 0 1 0 -0 0 0 1 0 -1 0 
1 0 0 0 -0 1 0 0 0 1 1 0 -0 
1 0 0 38.099999999999994 0 0 1 1 0 -0 -0 1 0 
1 0 139.69999999999999 0 -0 1 0 0 0 1 1 0 -0 
1 0 0 0 0 0 1 1 0 -0 -0 1 0 
1 1219.1999999999998 0 0 1 0 -0 0 0 1 0 -1 0 
1 0 0 0 1 0 -0 0 0 1 0 -1 0 
1 0 0 0 -0 1 0 0 0 1 1 0 -0 
1 0 0 2362.1999999999998 0 0 1 1 0 -0 -0 1 0 
1 0 139.69999999999999 0 -0 1 0 0 0 1 1 0 -0 
1 0 0 0 0 0 1 1 0 -0 -0 1 0 
1 38.099999999999994 0 0 1 0 -0 0 0 1 0 -1 0 
1 0 0 0 1 0 -0 0 0 1 0 -1 0 
1 0 0 0 -0 1 0 0 0 1 1 0 -0 
1 0 0 2362.1999999999998 0 0 1 1 0 -0 -0 1 0 
1 0 139.69999999999999 0 -0 1 0 0 0 1 1 0 -0 
1 0 0 0 0 0 1 1 0 -0 -0 1 0 
1 38.099999999999994 0 0 1 0 -0 0 0 1 0 -1 0 
1 0 0 0 1 0 -0 0 0 1 0 -1 0 
1 0 0 0 -0 1 0 0 0 1 1 0 -0 
1 0 0 2362.1999999999998 0 0 1 1 0 -0 -0 1 0 
1 0 139.69999999999999 0 -0 1 0 0 0 1 1 0 -0 
1 0 0 0 0 0 1 1 0 -0 -0 1 0 
1 38.099999999999994 0 0 1 0 -0 0 0 1 0 -1 0 
1 0 0 0 1 0 -0 0 0 1 0 -1 0 
1 0 0 0 -0 1 0 0 0 1 1 0 -0 
1 0 0 2362.1999999999998 0 0 1 1 0 -0 -0 1 0 
1 0 139.69999999999999 0 -0 1 0 0 0 1 1 0 -0 
1 0 0 0 0 0 1 1 0 -0 -0 1 0 
1 38.099999999999994 0 0 1 0 -0 0 0 1 0 -1 0 
1 0 0 0 1 0 -0 0 0 1 0 -1 0 
1 0 0 0 -0 1 0 0 0 1 1 0 -0 
1 0 0 2438.3999999999996 0 0 1 1 0 -0 -0 1 0 
1 0 11.112499999999999 0 -0 1 0 0 0 1 1 0 -0 
1 0 0 0 0 0 1 1 0 -0 -0 1 0 
1 1219.1999999999998 0 0 1 0 -0 0 0 1 0 -1 0 
Triangulations 0

TShapes 239
Ve
1e-07
0 0 38.1
0 0

0101101
*
Ve
1e-07
0 0 0
0 0

0101101
*
Ed
 1e-07 1 1 0
1  1 0 0 38.1
2  1 1 0 0 38.1
2  2 2 0 0 38.1
0

0101000
-239 5 +238 5 *
Ve
1e-07
0 139.7 38.1
0 0

0101101
*
Ed
 1e-07 1 1 0
1  2 0 0 139.7
2  3 1 0 0 139.7
2  4 3 0 0 139.7
0

0101000
-236 5 +239 5 *
Ve
1e-07
0 139.7 0
0 0

0101101
*
Ed
 1e-07 1 1 0
1  3 0 0 38.1
2  5 1 0 0 38.1
2  6 4 0 0 38.1
0

0101000
-236 5 +234 5 *
Ed
 1e-07 1 1 0
1  4 0 0 139.7
2  7 1 0 0 139.7
2  8 5 0 0 139.7
0

0101000
-234 5 +238 5 *
Wi

0101100
-237 0 -235 0 +233 0 +232 0 *
Fa
0  1e-07 1 0

0111000
+231 0 *
Ve
1e-07
1219.2 0 38.1
0 0

0101101
*
Ve
1e-07
1219.2 0 0
0 0

0101101
*
Ed
 1e-07 1 1 0
1  5 0 0 38.1
2  9 6 0 0 38.1
2  10 2 0 0 38.1
0

0101000
-229 5 +228 5 *
Ve
1e-07
1219.2 139.7 38.1
0 0

0101101
*
Ed
 1e-07 1 1 0
1  6 0 0 139.7
2  11 6 0 0 139.7
2  12 3 0 0 139.7
0

0101000
-226 5 +229 5 *
Ve
1e-07
1219.2 139.7 0
0 0

0101101
*
Ed
 1e-07 1 1 0
1  7 0 0 38.1
2  13 6 0 0 38.1
2  14 4 0 0 38.1
0

0101000
-226 5 +224 5 *
Ed
 1e-07 1 1 0
1  8 0 0 139.7
2  15 6 0 0 139.7
2  16 5 0 0 139.7
0

0101000
-224 5 +228 5 *
Wi

0101100
-227 0 -225 0 +223 0 +222 0 *
Fa
0  1e-07 6 0

0111000
+221 0 *
Ed
 1e-07 1 1 0
1  9 0 0 1219.2
2  17 2 0 0 1219.2
2  18 5 0 0 1219.2
0

0101000
-228 5 +238 5 *
Ed
 1e-07 1 1 0
1  10 0 0 1219.2
2  19 2 0 0 1219.2
2  20 3 0 0 1219.2
0

0101000
-229 5 +239 5 *
Wi

0101100
-219 0 -227 0 +218 0 +237 0 *
Fa
0  1e-07 2 0

0111000
+217 0 *
Ed
 1e-07 1 1 0
1  11 0 0 1219.2
2  21 4 0 0 1219.2
2  22 5 0 0 1219.2
0

0101000
-224 5 +234 5 *
Ed
 1e-07 1 1 0
1  12 0 0 1219.2
2  23 4 0 0 1219.2
2  24 3 0 0 1219.2
0

0101000
-226 5 +236 5 *
Wi

0101100
-215 0 -223 0 +214 0 +233 0 *
Fa
0  1e-07 4 0

0111000
+213 0 *
Wi

0101100
-232 0 -215 0 +222 0 +219 0 *
Fa
0  1e-07 5 0

0111000
+211 0 *
Wi

0101100
-235 0 -214 0 +225 0 +218 0 *
Fa
0  1e-07 3 0

0111000
+209 0 *
Sh

0101100
-230 0 +220 0 -216 0 +212 0 -210 0 +208 0 *
So

0100000
+207 0 *
Ve
1e-07
0 0 2438.4
0 0

0101101
*
Ve
1e-07
0 0 2400.3
0 0

0101101
*
Ed
 1e-07 1 1 0
1  13 0 0 38.1
2  25 7 0 0 38.1
2  26 8 0 0 38.1
0

0101000
-205 7 +204 7 *
Ve
1e-07
0 139.7 2438.4
0 0

0101101
*
Ed
 1e-07 1 1 0
1  14 0 0 139.7
2  27 7 0 0 139.7
2  28 9 0 0 139.7
0

0101000
-202 7 +205 7 *
Ve
1e-07
0 139.7 2400.3
0 0

0101101
*
Ed
 1e-07 1 1 0
1  15 0 0 38.1
2  29 7 0 0 38.1
2  30 10 0 0 38.1
0

0101000
-202 7 +200 7 *
Ed
 1e-07 1 1 0
1  16 0 0 139.7
2  31 7 0 0 139.7
2  32 11 0 0 139.7
0

0101000
-200 7 +204 7 *
Wi

0101100
-203 0 -201 0 +199 0 +198 0 *
Fa
0  1e-07 7 0

0111000
+197 0 *
Ve
1e-07
1219.2 0 2438.4
0 0

0101101
*
Ve
1e-07
1219.2 0 2400.3
0 0

0101101
*
Ed
 1e-07 1 1 0
1  17 0 0 38.1
2  33 12 0 0 38.1
2  34 8 0 0 38.1
0

0101000
-195 7 +194 7 *
Ve
1e-07
1219.2 139.7 2438.4
0 0

0101101
*
Ed
 1e-07 1 1 0
1  18 0 0 139.7
2  35 12 0 0 139.7
2  36 9 0 0 139.7
0

0101000
-192 7 +195 7 *
Ve
1e-07
1219.2 139.7 2400.3
0 0

0101101
*
Ed
 1e-07 1 1 0
1  19 0 0 38.1
2  37 12 0 0 38.1
2  38 10 0 0 38.1
0

0101000
-192 7 +190 7 *
Ed
 1e-07 1 1 0
1  20 0 0 139.7
2  39 12 0 0 139.7
2  40 11 0 0 139.7
0

0101000
-190 7 +194 7 *
Wi

0101100
-193 0 -191 0 +189 0 +188 0 *
Fa
0  1e-07 12 0

0111000
+187 0 *
Ed
 1e-07 1 1 0
1  21 0 0 1219.2
2  41 8 0 0 1219.2
2  42 11 0 0 1219.2
0

0101000
-194 7 +204 7 *
Ed
 1e-07 1 1 0
1  22 0 0 1219.2
2  43 8 0 0 1219.2
2  44 9 0 0 1219.2
0

0101000
-195 7 +205 7 *
Wi

0101100
-185 0 -193 0 +184 0 +203 0 *
Fa
0  1e-07 8 0

0111000
+183 0 *
Ed
 1e-07 1 1 0
1  23 0 0 1219.2
2  45 10 0 0 1219.2
2  46 11 0 0 1219.2
0

0101000
-190 7 +200 7 *
Ed
 1e-07 1 1 0
1  24 0 0 1219.2
2  47 10 0 0 1219.2
2  48 9 0 0 1219.2
0

0101000
-192 7 +202 7 *
Wi

0101100
-181 0 -189 0 +180 0 +199 0 *
Fa
0  1e-07 10 0

0111000
+179 0 *
Wi

0101100
-198 0 -181 0 +188 0 +185 0 *
Fa
0  1e-07 11 0

0111000
+177 0 *
Wi

0101100
-201 0 -180 0 +191 0 +184 0 *
Fa
0  1e-07 9 0

0111000
+175 0 *
Sh

0101100
-196 0 +186 0 -182 0 +178 0 -176 0 +174 0 *
So

0100000
+173 0 *
Ve
1e-07
0 0 2400.3
0 0

0101101
*
Ve
1e-07
0 0 38.1
0 0

0101101
*
Ed
 1e-07 1 1 0
1  25 0 0 2362.2
2  49 13 0 0 2362.2
2  50 14 0 0 2362.2
0

0101000
-171 9 +170 9 *
Ve
1e-07
0 139.7 2400.3
0 0

0101101
*
Ed
 1e-07 1 1 0
1  26 0 0 139.7
2  51 13 0 0 139.7
2  52 15 0 0 139.7
0

0101000
-168 9 +171 9 *
Ve
1e-07
0 139.7 38.1
0 0

0101101
*
Ed
 1e-07 1 1 0
1  27 0 0 2362.2
2  53 13 0 0 2362.2
2  54 16 0 0 2362.2
0

0101000
-168 9 +166 9 *
Ed
 1e-07 1 1 0
1  28 0 0 139.7
2  55 13 0 0 139.7
2  56 17 0 0 139.7
0

0101000
-166 9 +170 9 *
Wi

0101100
-169 0 -167 0 +165 0 +164 0 *
Fa
0  1e-07 13 0

0111000
+163 0 *
Ve
1e-07
38.1 0 2400.3
0 0

0101101
*
Ve
1e-07
38.1 0 38.1
0 0

0101101
*
Ed
 1e-07 1 1 0
1  29 0 0 2362.2
2  57 18 0 0 2362.2
2  58 14 0 0 2362.2
0

0101000
-161 9 +160 9 *
Ve
1e-07
38.1 139.7 2400.3
0 0

0101101
*
Ed
 1e-07 1 1 0
1  30 0 0 139.7
2  59 18 0 0 139.7
2  60 15 0 0 139.7
0

0101000
-158 9 +161 9 *
Ve
1e-07
38.1 139.7 38.1
0 0

0101101
*
Ed
 1e-07 1 1 0
1  31 0 0 2362.2
2  61 18 0 0 2362.2
2  62 16 0 0 2362.2
0

0101000
-158 9 +156 9 *
Ed
 1e-07 1 1 0
1  32 0 0 139.7
2  63 18 0 0 139.7
2  64 17 0 0 139.7
0

0101000
-156 9 +160 9 *
Wi

0101100
-159 0 -157 0 +155 0 +154 0 *
Fa
0  1e-07 18 0

0111000
+153 0 *
Ed
 1e-07 1 1 0
1  33 0 0 38.1
2  65 14 0 0 38.1
2  66 17 0 0 38.1
0

0101000
-160 9 +170 9 *
Ed
 1e-07 1 1 0
1  34 0 0 38.1
2  67 14 0 0 38.1
2  68 15 0 0 38.1
0

0101000
-161 9 +171 9 *
Wi

0101100
-151 0 -159 0 +150 0 +169 0 *
Fa
0  1e-07 14 0

0111000
+149 0 *
Ed
 1e-07 1 1 0
1  35 0 0 38.1
2  69 16 0 0 38.1
2  70 17 0 0 38.1
0

0101000
-156 9 +166 9 *
Ed
 1e-07 1 1 0
1  36 0 0 38.1
2  71 16 0 0 38.1
2  72 15 0 0 38.1
0

0101000
-158 9 +168 9 *
Wi

0101100
-147 0 -155 0 +146 0 +165 0 *
Fa
0  1e-07 16 0

0111000
+145 0 *
Wi

0101100
-164 0 -147 0 +154 0 +151 0 *
Fa
0  1e-07 17 0

0111000
+143 0 *
Wi

0101100
-167 0 -146 0 +157 0 +150 0 *
Fa
0  1e-07 15 0

0111000
+141 0 *
Sh

0101100
-162 0 +152 0 -148 0 +144 0 -142 0 +140 0 *
So

0100000
+139 0 *
Ve
1e-07
406.4 0 2400.3
0 0

0101101
*
Ve
1e-07
406.4 0 38.1
0 0

0101101
*
Ed
 1e-07 1 1 0
1  37 0 0 2362.2
2  73 19 0 0 2362.2
2  74 20 0 0 2362.2
0

0101000
-137 11 +136 11 *
Ve
1e-07
406.4 139.7 2400.3
0 0

0101101
*
Ed
 1e-07 1 1 0
1  38 0 0 139.7
2  75 19 0 0 139.7
2  76 21 0 0 139.7
0

0101000
-134 11 +137 11 *
Ve
1e-07
406.4 139.7 38.1
0 0

0101101
*
Ed
 1e-07 1 1 0
1  39 0 0 2362.2
2  77 19 0 0 2362.2
2  78 22 0 0 2362.2
0

0101000
-134 11 +132 11 *
Ed
 1e-07 1 1 0
1  40 0 0 139.7
2  79 19 0 0 139.7
2  80 23 0 0 139.7
0

0101000
-132 11 +136 11 *
Wi

0101100
-135 0 -133 0 +131 0 +130 0 *
Fa
0  1e-07 19 0

0111000
+129 0 *
Ve
1e-07
444.5 0 2400.3
0 0

0101101
*
Ve
1e-07
444.5 0 38.1
0 0

0101101
*
Ed
 1e-07 1 1 0
1  41 0 0 2362.2
2  81 24 0 0 2362.2
2  82 20 0 0 2362.2
0

0101000
-127 11 +126 11 *
Ve
1e-07
444.5 139.7 2400.3
0 0

0101101
*
Ed
 1e-07 1 1 0
1  42 0 0 139.7
2  83 24 0 0 139.7
2  84 21 0 0 139.7
0

0101000
-124 11 +127 11 *
Ve
1e-07
444.5 139.7 38.1
0 0

0101101
*
Ed
 1e-07 1 1 0
1  43 0 0 2362.2
2  85 24 0 0 2362.2
2  86 22 0 0 2362.2
0

0101000
-124 11 +122 11 *
Ed
 1e-07 1 1 0
1  44 0 0 139.7
2  87 24 0 0 139.7
2  88 23 0 0 139.7
0

0101000
-122 11 +126 11 *
Wi

0101100
-125 0 -123 0 +121 0 +120 0 *
Fa
0  1e-07 24 0

0111000
+119 0 *
Ed
 1e-07 1 1 0
1  45 0 0 38.1
2  89 20 0 0 38.1
2  90 23 0 0 38.1
0

0101000
-126 11 +136 11 *
Ed
 1e-07 1 1 0
1  46 0 0 38.1
2  91 20 0 0 38.1
2  92 21 0 0 38.1
0

0101000
-127 11 +137 11 *
Wi

0101100
-117 0 -125 0 +116 0 +135 0 *
Fa
0  1e-07 20 0

0111000
+115 0 *
Ed
 1e-07 1 1 0
1  47 0 0 38.1
2  93 22 0 0 38.1
2  94 23 0 0 38.1
0

0101000
-122 11 +132 11 *
Ed
 1e-07 1 1 0
1  48 0 0 38.1
2  95 22 0 0 38.1
2  96 21 0 0 38.1
0

0101000
-124 11 +134 11 *
Wi

0101100
-113 0 -121 0 +112 0 +131 0 *
Fa
0  1e-07 22 0

0111000
+111 0 *
Wi

0101100
-130 0 -113 0 +120 0 +117 0 *
Fa
0  1e-07 23 0

0111000
+109 0 *
Wi

0101100
-133 0 -112 0 +123 0 +116 0 *
Fa
0  1e-07 21 0

0111000
+107 0 *
Sh

0101100
-128 0 +118 0 -114 0 +110 0 -108 0 +106 0 *
So

0100000
+105 0 *
Ve
1e-07
812.8 0 2400.3
0 0

0101101
*
Ve
1e-07
812.8 0 38.1
0 0

0101101
*
Ed
 1e-07 1 1 0
1  49 0 0 2362.2
2  97 25 0 0 2362.2
2  98 26 0 0 2362.2
0

0101000
-103 13 +102 13 *
Ve
1e-07
812.8 139.7 2400.3
0 0

0101101
*
Ed
 1e-07 1 1 0
1  50 0 0 139.7
2  99 25 0 0 139.7
2  100 27 0 0 139.7
0

0101000
-100 13 +103 13 *
Ve
1e-07
812.8 139.7 38.1
0 0

0101101
*
Ed
 1e-07 1 1 0
1  51 0 0 2362.2
2  101 25 0 0 2362.2
2  102 28 0 0 2362.2
0

0101000
-100 13 +98 13 *
Ed
 1e-07 1 1 0
1  52 0 0 139.7
2  103 25 0 0 139.7
2  104 29 0 0 139.7
0

0101000
-98 13 +102 13 *
Wi

0101100
-101 0 -99 0 +97 0 +96 0 *
Fa
0  1e-07 25 0

0111000
+95 0 *
Ve
1e-07
850.9 0 2400.3
0 0

0101101
*
Ve
1e-07
850.9 0 38.1
0 0

0101101
*
Ed
 1e-07 1 1 0
1  53 0 0 2362.2
2  105 30 0 0 2362.2
2  106 26 0 0 2362.2
0

0101000
-93 13 +92 13 *
Ve
1e-07
850.9 139.7 2400.3
0 0

0101101
*
Ed
 1e-07 1 1 0
1  54 0 0 139.7
2  107 30 0 0 139.7
2  108 27 0 0 139.7
0

0101000
-90 13 +93 13 *
Ve
1e-07
850.9 139.7 38.1
0 0

0101101
*
Ed
 1e-07 1 1 0
1  55 0 0 2362.2
2  109 30 0 0 2362.2
2  110 28 0 0 2362.2
0

0101000
-90 13 +88 13 *
Ed
 1e-07 1 1 0
1  56 0 0 139.7
2  111 30 0 0 139.7
2  112 29 0 0 139.7
0

0101000
-88 13 +92 13 *
Wi

0101100
-91 0 -89 0 +87 0 +86 0 *
Fa
0  1e-07 30 0

0111000
+85 0 *
Ed
 1e-07 1 1 0
1  57 0 0 38.1
2  113 26 0 0 38.1
2  114 29 0 0 38.1
0

0101000
-92 13 +102 13 *
Ed
 1e-07 1 1 0
1  58 0 0 38.1
2  115 26 0 0 38.1
2  116 27 0 0 38.1
0

0101000
-93 13 +103 13 *
Wi

0101100
-83 0 -91 0 +82 0 +101 0 *
Fa
0  1e-07 26 0

0111000
+81 0 *
Ed
 1e-07 1 1 0
1  59 0 0 38.1
2  117 28 0 0 38.1
2  118 29 0 0 38.1
0

0101000
-88 13 +98 13 *
Ed
 1e-07 1 1 0
1  60 0 0 38.1
2  119 28 0 0 38.1
2  120 27 0 0 38.1
0

0101000
-90 13 +100 13 *
Wi

0101100
-79 0 -87 0 +78 0 +97 0 *
Fa
0  1e-07 28 0

0111000
+77 0 *
Wi

0101100
-96 0 -79 0 +86 0 +83 0 *
Fa
0  1e-07 29 0

0111000
+75 0 *
Wi

0101100
-99 0 -78 0 +89 0 +82 0 *
Fa
0  1e-07 27 0

0111000
+73 0 *
Sh

0101100
-94 0 +84 0 -80 0 +76 0 -74 0 +72 0 *
So

0100000
+71 0 *
Ve
1e-07
1181.1 0 2400.3
0 0

0101101
*
Ve
1e-07
1181.1 0 38.1
0 0

0101101
*
Ed
 1e-07 1 1 0
1  61 0 0 2362.2
2  121 31 0 0 2362.2
2  122 32 0 0 2362.2
0

0101000
-69 15 +68 15 *
Ve
1e-07
1181.1 139.7 2400.3
0 0

0101101
*
Ed
 1e-07 1 1 0
1  62 0 0 139.7
2  123 31 0 0 139.7
2  124 33 0 0 139.7
0

0101000
-66 15 +69 15 *
Ve
1e-07
1181.1 139.7 38.1
0 0

0101101
*
Ed
 1e-07 1 1 0
1  63 0 0 2362.2
2  125 31 0 0 2362.2
2  126 34 0 0 2362.2
0

0101000
-66 15 +64 15 *
Ed
 1e-07 1 1 0
1  64 0 0 139.7
2  127 31 0 0 139.7
2  128 35 0 0 139.7
0

0101000
-64 15 +68 15 *
Wi

0101100
-67 0 -65 0 +63 0 +62 0 *
Fa
0  1e-07 31 0

0111000
+61 0 *
Ve
1e-07
1219.2 0 2400.3
0 0

0101101
*
Ve
1e-07
1219.2 0 38.1
0 0

0101101
*
Ed
 1e-07 1 1 0
1  65 0 0 2362.2
2  129 36 0 0 2362.2
2  130 32 0 0 2362.2
0

0101000
-59 15 +58 15 *
Ve
1e-07
1219.2 139.7 2400.3
0 0

0101101
*
Ed
 1e-07 1 1 0
1  66 0 0 139.7
2  131 36 0 0 139.7
2  132 33 0 0 139.7
0

0101000
-56 15 +59 15 *
Ve
1e-07
1219.2 139.7 38.1
0 0

0101101
*
Ed
 1e-07 1 1 0
1  67 0 0 2362.2
2  133 36 0 0 2362.2
2  134 34 0 0 2362.2
0

0101000
-56 15 +54 15 *
Ed
 1e-07 1 1 0
1  68 0 0 139.7
2  135 36 0 0 139.7
2  136 35 0 0 139.7
0

0101000
-54 15 +58 15 *
Wi

0101100
-57 0 -55 0 +53 0 +52 0 *
Fa
0  1e-07 36 0

0111000
+51 0 *
Ed
 1e-07 1 1 0
1  69 0 0 38.1
2  137 32 0 0 38.1
2  138 35 0 0 38.1
0

0101000
-58 15 +68 15 *
Ed
 1e-07 1 1 0
1  70 0 0 38.1
2  139 32 0 0 38.1
2  140 33 0 0 38.1
0

0101000
-59 15 +69 15 *
Wi

0101100
-49 0 -57 0 +48 0 +67 0 *
Fa
0  1e-07 32 0

0111000
+47 0 *
Ed
 1e-07 1 1 0
1  71 0 0 38.1
2  141 34 0 0 38.1
2  142 35 0 0 38.1
0

0101000
-54 15 +64 15 *
Ed
 1e-07 1 1 0
1  72 0 0 38.1
2  143 34 0 0 38.1
2  144 33 0 0 38.1
0

0101000
-56 15 +66 15 *
Wi

0101100
-45 0 -53 0 +44 0 +63 0 *
Fa
0  1e-07 34 0

0111000
+43 0 *
Wi

0101100
-62 0 -45 0 +52 0 +49 0 *
Fa
0  1e-07 35 0

0111000
+41 0 *
Wi

0101100
-65 0 -44 0 +55 0 +48 0 *
Fa
0  1e-07 33 0

0111000
+39 0 *
Sh

0101100
-60 0 +50 0 -46 0 +42 0 -40 0 +38 0 *
So

0100000
+37 0 *
Ve
1e-07
0 -11.1125 2438.4
0 0

0101101
*
Ve
1e-07
0 -11.1125 0
0 0

0101101
*
Ed
 1e-07 1 1 0
1  73 0 0 2438.4
2  145 37 0 0 2438.4
2  146 38 0 0 2438.4
0

0101000
-35 17 +34 17 *
Ve
1e-07
0 0 2438.4
0 0

0101101
*
Ed
 1e-07 1 1 0
1  74 0 0 11.1125
2  147 37 0 0 11.1125
2  148 39 0 0 11.1125
0

0101000
-32 17 +35 17 *
Ve
1e-07
0 0 0
0 0

0101101
*
Ed
 1e-07 1 1 0
1  75 0 0 2438.4
2  149 37 0 0 2438.4
2  150 40 0 0 2438.4
0

0101000
-32 17 +30 17 *
Ed
 1e-07 1 1 0
1  76 0 0 11.1125
2  151 37 0 0 11.1125
2  152 41 0 0 11.1125
0

0101000
-30 17 +34 17 *
Wi

0101100
-33 0 -31 0 +29 0 +28 0 *
Fa
0  1e-07 37 0

0111000
+27 0 *
Ve
1e-07
1219.2 -11.1125 2438.4
0 0

0101101
*
Ve
1e-07
1219.2 -11.1125 0
0 0

0101101
*
Ed
 1e-07 1 1 0
1  77 0 0 2438.4
2  153 42 0 0 2438.4
2  154 38 0 0 2438.4
0

0101000
-25 17 +24 17 *
Ve
1e-07
1219.2 0 2438.4
0 0

0101101
*
Ed
 1e-07 1 1 0
1  78 0 0 11.1125
2  155 42 0 0 11.1125
2  156 39 0 0 11.1125
0

0101000
-22 17 +25 17 *
Ve
1e-07
1219.2 0 0
0 0

0101101
*
Ed
 1e-07 1 1 0
1  79 0 0 2438.4
2  157 42 0 0 2438.4
2  158 40 0 0 2438.4
0

0101000
-22 17 +20 17 *
Ed
 1e-07 1 1 0
1  80 0 0 11.1125
2  159 42 0 0 11.1125
2  160 41 0 0 11.1125
0

0101000
-20 17 +24 17 *
Wi

0101100
-23 0 -21 0 +19 0 +18 0 *
Fa
0  1e-07 42 0

0111000
+17 0 *
Ed
 1e-07 1 1 0
1  81 0 0 1219.2
2  161 38 0 0 1219.2
2  162 41 0 0 1219.2
0

0101000
-24 17 +34 17 *
Ed
 1e-07 1 1 0
1  82 0 0 1219.2
2  163 38 0 0 1219.2
2  164 39 0 0 1219.2
0

0101000
-25 17 +35 17 *
Wi

0101100
-15 0 -23 0 +14 0 +33 0 *
Fa
0  1e-07 38 0

0111000
+13 0 *
Ed
 1e-07 1 1 0
1  83 0 0 1219.2
2  165 40 0 0 1219.2
2  166 41 0 0 1219.2
0

0101000
-20 17 +30 17 *
Ed
 1e-07 1 1 0
1  84 0 0 1219.2
2  167 40 0 0 1219.2
2  168 39 0 0 1219.2
0

0101000
-22 17 +32 17 *
Wi

0101100
-11 0 -19 0 +10 0 +29 0 *
Fa
0  1e-07 40 0

0111000
+9 0 *
Wi

0101100
-28 0 -11 0 +18 0 +15 0 *
Fa
0  1e-07 41 0

0111000
+7 0 *
Wi

0101100
-31 0 -10 0 +21 0 +14 0 *
Fa
0  1e-07 39 0

0111000
+5 0 *
Sh

0101100
-26 0 +16 0 -12 0 +8 0 -6 0 +4 0 *
So

0100000
+3 0 *
Co

1100000
+206 0 +172 6 +138 8 +104 10 +70 12 +36 14 +2 16 *

+1 4 